SplineFontDB: 3.0
FontName: MarkoOne-Regular
FullName: Marko One Regular
FamilyName: Marko One
Weight: Regular
Copyright: Copyright (c) 2011, Cyreal (www.cyreal.org)\nwith Reserved Font Name "Marko" and "Marko One".
Version: 001.003
ItalicAngle: 0
UnderlinePosition: -103
UnderlineWidth: 102
Ascent: 1638
Descent: 410
sfntRevision: 0x000100c5
LayerCount: 2
Layer: 0 1 "Back"  1
Layer: 1 1 "Fore"  0
NeedsXUIDChange: 1
XUID: [1021 288 713564382 8140334]
FSType: 0
OS2Version: 2
OS2_WeightWidthSlopeOnly: 0
OS2_UseTypoMetrics: 1
CreationTime: 1323621065
ModificationTime: 1323650058
PfmFamily: 17
TTFWeight: 400
TTFWidth: 5
LineGap: 0
VLineGap: 0
Panose: 2 0 0 0 0 0 0 0 0 0
OS2TypoAscent: 381
OS2TypoAOffset: 1
OS2TypoDescent: -317
OS2TypoDOffset: 1
OS2TypoLinegap: 0
OS2WinAscent: 0
OS2WinAOffset: 1
OS2WinDescent: 0
OS2WinDOffset: 1
HheadAscent: 0
HheadAOffset: 1
HheadDescent: 0
HheadDOffset: 1
OS2SubXSize: 1434
OS2SubYSize: 1331
OS2SubXOff: 0
OS2SubYOff: 287
OS2SupXSize: 1434
OS2SupYSize: 1331
OS2SupXOff: 0
OS2SupYOff: 977
OS2StrikeYSize: 102
OS2StrikeYPos: 512
OS2Vendor: 'pyrs'
OS2CodePages: 00000001.00000000
OS2UnicodeRanges: 80000023.00000043.00000000.00000000
MarkAttachClasses: 1
DEI: 91125
TtTable: prep
PUSHW_1
 511
SCANCTRL
PUSHB_1
 4
SCANTYPE
EndTTInstrs
LangName: 1033 "" "" "" "Cyreal: Marko One: 2011" "MarkoOne-Regular" "Version 1.003" "" "Marko is a trademark of Cyreal (www.cyreal.org)." "Cyreal" "Zhenya Spizhovyi" "" "http://cyreal.org" "http://www.flickr.com/photos/spizh_/" "This Font Software is licensed under the SIL Open Font License, Version 1.1. This license is available with a FAQ at:+AA0A-http://scripts.sil.org/OFL" "http://scripts.sil.org/OFL" 
GaspTable: 1 65535 15
Encoding: UnicodeBmp
UnicodeInterp: none
NameList: Adobe Glyph List
DisplaySize: -36
AntiAlias: 1
FitToEm: 1
WinInfo: 34 34 13
BeginPrivate: 2
BlueValues 27 [-35 0 1036 1071 1434 1475]
OtherBlues 11 [-688 -655]
EndPrivate
BeginChars: 65544 220

StartChar: .notdef
Encoding: 65536 -1 0
Width: 1976
Flags: HMW
HStem: -35 21G<1388.5 1411> -2 21G<1442 1448.5> -1 21G<1477 1503.5> 1227 20G<1833 1834>
LayerCount: 2
Fore
SplineSet
1227 553 m 1,0,-1
 1376 752 l 1,1,2
 1331 791 1331 791 1300 805 c 1,3,-1
 1149 614 l 1,4,5
 1040 701 1040 701 950 764 c 1,6,7
 909 717 909 717 897 684 c 1,8,-1
 1083 537 l 1,9,-1
 936 346 l 1,10,11
 937.46459687 337.212418779 937.46459687 337.212418779 966.583466992 314.073898364 c 128,-1,12
 995.702337113 290.93537795 995.702337113 290.93537795 1000.67345792 290.93537795 c 128,-1,13
 1005.64457872 290.93537795 1005.64457872 290.93537795 1006 291 c 2,14,-1
 1165 471 l 1,15,-1
 1356 324 l 1,16,17
 1364 326 1364 326 1388 356 c 128,-1,18
 1412 386 1412 386 1411 393 c 1,19,20
 1396 407 1396 407 1333 461 c 128,-1,21
 1270 515 1270 515 1227 553 c 1,0,-1
92 856 m 1,22,-1
 616 811 l 1,23,24
 689 826 689 826 776 842.5 c 128,-1,25
 863 859 863 859 913.5 869 c 128,-1,26
 964 879 964 879 1023 891 c 128,-1,27
 1082 903 1082 903 1115 911 c 128,-1,28
 1148 919 1148 919 1184 930 c 128,-1,29
 1220 941 1220 941 1240.5 952 c 0,30,31
 1288.84395604 977.940659341 1288.84395604 977.940659341 1307 1006 c 1,32,33
 1368 1114 1368 1114 1432.5 1160 c 128,-1,34
 1497 1206 1497 1206 1566.5 1206 c 128,-1,35
 1636 1206 1636 1206 1681 1192 c 1,36,-1
 1681 1194 l 1,37,-1
 1833 1247 l 1,38,39
 1839 1247 1839 1247 1839 1243 c 2,40,-1
 1839 1241 l 1,41,-1
 1788 1100 l 1,42,-1
 1931 1106 l 2,43,44
 1935.78460969 1106 1935.78460969 1106 1935.78460969 1102.78460969 c 0,45,46
 1935.31658859 1100.91653936 1935.31658859 1100.91653936 1935 1100 c 2,47,-1
 1804 965 l 1,48,-1
 1802 967 l 1,49,50
 1797 482 1797 482 1309 150 c 1,51,52
 1309 125.555555556 1309 125.555555556 1297.5 112.777777778 c 128,-1,53
 1286 100 1286 100 1272 100 c 1,54,-1
 1247 76 l 1,55,56
 1379 29 1379 29 1442 -2 c 1,57,-1
 1485 -1 l 1,58,59
 1560 -1 1560 -1 1612 -39 c 1,60,-1
 1612 -43.5 l 2,61,62
 1612 -46.75 1612 -46.75 1608.5 -49.375 c 128,-1,63
 1605 -52 1605 -52 1604 -53 c 1,64,65
 1543.8617012 -25.2438620924 1543.8617012 -25.2438620924 1520.82821012 -25.2438620924 c 128,-1,66
 1497.79471904 -25.2438620924 1497.79471904 -25.2438620924 1485 -27 c 1,67,68
 1539 -56 1539 -56 1561 -88 c 1,69,70
 1558 -97 1558 -97 1542 -100 c 1,71,72
 1476.89928491 -34.8992849131 1476.89928491 -34.8992849131 1416.12125053 -34.8992849131 c 0,73,74
 1391.50357543 -34.8992849131 1391.50357543 -34.8992849131 1381.25178772 -36.9496424566 c 128,-1,75
 1371 -39 1371 -39 1366.5 -39.5 c 128,-1,76
 1362 -40 1362 -40 1353 -43.5 c 128,-1,77
 1344 -47 1344 -47 1340.5 -48.5 c 128,-1,78
 1337 -50 1337 -50 1325 -55.5 c 128,-1,79
 1313 -61 1313 -61 1308.5 -61 c 2,80,-1
 1301 -61 l 2,81,82
 1295.42857143 -61 1295.42857143 -61 1294 -51 c 1,83,84
 1313.84126984 -29.1746031746 1313.84126984 -29.1746031746 1326.92063492 -25.0873015873 c 128,-1,85
 1340 -21 1340 -21 1355.5 -16.5 c 128,-1,86
 1371 -12 1371 -12 1382 -8 c 1,87,88
 1334.24786325 17.811965812 1334.24786325 17.811965812 1269.12393162 40.405982906 c 128,-1,89
 1204 63 1204 63 1204 70 c 0,90,91
 1204 82 1204 82 1227 100 c 1,92,93
 1212 100 1212 100 1201.5 114 c 128,-1,94
 1191 128 1191 128 1188 139 c 1,95,-1
 1133 139 l 2,96,97
 1072 139 1072 139 1020 147 c 1,98,99
 1002.13067478 99.3484660731 1002.13067478 99.3484660731 971.843388091 99.3484660731 c 0,100,101
 968.47484761 99.3484660731 968.47484761 99.3484660731 965 100 c 1,102,103
 941 87 941 87 934 80 c 1,104,105
 1066 -4 1066 -4 1106 -37 c 1,106,107
 1113 -39 1113 -39 1139.5 -43 c 128,-1,108
 1166 -47 1166 -47 1180 -51 c 0,109,110
 1223.49180328 -63.4262295082 1223.49180328 -63.4262295082 1253 -104 c 1,111,112
 1253 -111.666666667 1253 -111.666666667 1249 -114.333333333 c 128,-1,113
 1245 -117 1245 -117 1243 -119 c 1,114,115
 1217 -95 1217 -95 1200 -86.5 c 128,-1,116
 1183 -78 1183 -78 1143 -72 c 1,117,118
 1183 -97 1183 -97 1198 -152 c 1,119,120
 1195.15991361 -160.520259177 1195.15991361 -160.520259177 1189.88060475 -160.520259177 c 128,-1,121
 1184.60129589 -160.520259177 1184.60129589 -160.520259177 1182 -160 c 1,122,123
 1150 -109 1150 -109 1119 -84.5 c 128,-1,124
 1088 -60 1088 -60 1036 -60 c 128,-1,125
 984 -60 984 -60 930 -74 c 1,126,127
 924 -65 924 -65 924 -57 c 1,128,129
 952.75 -34 952.75 -34 1011.5 -34 c 0,130,131
 1014 -34 1014 -34 1026.5 -33.5 c 128,-1,132
 1039 -33 1039 -33 1040 -33 c 1,133,134
 1013 -10 1013 -10 972 16 c 0,135,136
 887 69.9024390244 887 69.9024390244 887 84 c 0,137,138
 887 93.5625 887 93.5625 897.5 100.78125 c 128,-1,139
 908 108 908 108 913 113 c 1,140,141
 897.735088936 128.264911064 897.735088936 128.264911064 897.735088936 148.072811276 c 128,-1,142
 897.735088936 167.880711487 897.735088936 167.880711487 899 178 c 1,143,144
 736.110670631 267.390485629 736.110670631 267.390485629 624 407 c 0,145,146
 540.579394019 510.882264051 540.579394019 510.882264051 469.283833279 631.348837838 c 0,147,148
 467 634 467 634 466 636 c 128,-1,149
 465 638 465 638 463.5 640.5 c 128,-1,150
 462 643 462 643 457 645.5 c 128,-1,151
 452 648 452 648 413.5 661 c 128,-1,152
 375 674 375 674 363.5 678 c 128,-1,153
 352 682 352 682 318 693.5 c 128,-1,154
 284 705 284 705 270 711 c 128,-1,155
 256 717 256 717 228 728 c 128,-1,156
 200 739 200 739 184.5 747 c 128,-1,157
 169 755 169 755 148 766 c 0,158,159
 68.5254203577 807.629541717 68.5254203577 807.629541717 68.5254203577 831.814770859 c 128,-1,160
 68.5254203577 856 68.5254203577 856 92 856 c 1,22,-1
EndSplineSet
EndChar

StartChar: quotesingle
Encoding: 39 39 2
Width: 367
Flags: HMW
HStem: 1063 21G<186.5 205> 1530 20G<162 212.5>
LayerCount: 2
Fore
SplineSet
246 1067 m 1,0,1
 225 1063 225 1063 193.5 1063 c 128,-1,2
 162 1063 162 1063 139 1071 c 1,3,4
 91 1379 91 1379 61 1478 c 2,5,-1
 51 1511 l 1,6,7
 94 1550 94 1550 180.5 1550 c 128,-1,8
 267 1550 267 1550 315 1520 c 1,9,10
 315 1379.65625 315 1379.65625 246 1067 c 1,0,1
EndSplineSet
EndChar

StartChar: logicalnot
Encoding: 172 172 3
Width: 1128
Flags: HMW
HStem: 255 21G<905 935> 648 167<432 766.5>
VStem: 828 166<413 498.5>
LayerCount: 2
Fore
SplineSet
143 809 m 1,0,-1
 707 815 l 1,1,2
 902 815 902 815 985 809 c 1,3,4
 994 735 994 735 994 518.5 c 128,-1,5
 994 302 994 302 991 258 c 1,6,7
 968 255 968 255 915.5 255 c 128,-1,8
 863 255 863 255 831 262 c 1,9,10
 828 296 828 296 828 455 c 128,-1,11
 828 614 828 614 831 653 c 1,12,13
 741 648 741 648 504.5 648 c 128,-1,14
 268 648 268 648 141 653 c 1,15,16
 134 677 134 677 134 737 c 128,-1,17
 134 797 134 797 143 809 c 1,0,-1
EndSplineSet
EndChar

StartChar: one
Encoding: 49 49 4
Width: 813
Flags: HMW
HStem: -26 21G<438.5 499.5> 1457 20G<488 527>
VStem: 369 274<322 1012 1012 1064>
LayerCount: 2
Fore
SplineSet
655 1399 m 1,0,-1
 643 1075 l 1,1,-1
 643 319 l 2,2,3
 643 210 643 210 655 52.5 c 2,4,-1
 659 0 l 1,5,6
 574 -26 574 -26 473 -26 c 128,-1,7
 372 -26 372 -26 340 0 c 1,8,9
 369 211 369 211 369 322 c 2,10,-1
 369 1012 l 2,11,12
 369 1105 369 1105 382.5 1201 c 2,13,-1
 387 1233 l 1,14,15
 222 1086 222 1086 96 1030 c 1,16,17
 94 1033 94 1033 83 1047 c 128,-1,18
 72 1061 72 1061 63.5 1073 c 0,19,20
 37.893081761 1109.1509434 37.893081761 1109.1509434 31 1135 c 1,21,22
 71 1180 71 1180 222 1321 c 128,-1,23
 373 1462 373 1462 415 1469.5 c 128,-1,24
 457 1477 457 1477 515.5 1477 c 128,-1,25
 574 1477 574 1477 643 1452 c 1,26,27
 655 1436 655 1436 655 1399 c 1,0,-1
EndSplineSet
EndChar

StartChar: bullet
Encoding: 8226 8226 5
Width: 913
Flags: HMW
HStem: 358 21G<395 473.5> 931 20G<452 531>
LayerCount: 2
Fore
SplineSet
645 434 m 1,0,1
 558 358 558 358 429.5 358 c 128,-1,2
 301 358 301 358 217 449 c 1,3,4
 155 518 155 518 155 603 c 0,5,6
 155 765.549019608 155 765.549019608 264 866 c 1,7,8
 363 951 363 951 492.5 951 c 128,-1,9
 622 951 622 951 698 862 c 1,10,11
 759 797 759 797 759 710 c 0,12,13
 759 541.547169811 759 541.547169811 645 434 c 1,0,1
EndSplineSet
EndChar

StartChar: three
Encoding: 51 51 6
Width: 1178
Flags: HMW
HStem: -37 156<513 618.5 513 651.5> -37 438<213 651.5> 693 157<473 614.5> 1063 414 1330 147
VStem: 122 263 725 256<1075 1185.5> 774 305<328.5 509>
LayerCount: 2
Fore
SplineSet
375 1120 m 1,0,1
 346.5 1063 346.5 1063 276.75 1063 c 128,-1,2
 207 1063 207 1063 178.5 1095 c 0,3,4
 127 1152.8245614 127 1152.8245614 127 1333 c 0,5,6
 127 1410 127 1410 145 1432 c 1,7,8
 289.47059967 1477.22557903 289.47059967 1477.22557903 421.620876604 1477.22557903 c 128,-1,9
 553.771153538 1477.22557903 553.771153538 1477.22557903 629.199752274 1465.7285121 c 128,-1,10
 704.628351009 1454.23144518 704.628351009 1454.23144518 769.804946893 1429.01046917 c 128,-1,11
 834.981542778 1403.78949316 834.981542778 1403.78949316 881.49746845 1366.46764846 c 0,12,13
 981 1286.63223777 981 1286.63223777 981 1153 c 0,14,15
 981 950 981 950 811 815 c 1,16,17
 927 785 927 785 1003 687 c 128,-1,18
 1079 589 1079 589 1079 428 c 0,19,20
 1079 145.006711409 1079 145.006711409 834.5 28.5 c 0,21,22
 696.850825195 -37.0912175247 696.850825195 -37.0912175247 489.598517639 -37.0912175247 c 0,23,24
 308.024671326 -37.0912175247 308.024671326 -37.0912175247 133 45 c 1,25,26
 114.625 66 114.625 66 114.625 99.53125 c 128,-1,27
 114.625 133.0625 114.625 133.0625 115 143 c 2,28,-1
 129 383 l 1,29,30
 184 401 184 401 231 401 c 128,-1,31
 278 401 278 401 304.5 390 c 128,-1,32
 331 379 331 379 346.5 361.5 c 128,-1,33
 362 344 362 344 371 318.5 c 0,34,35
 385 278.833333333 385 278.833333333 385 235.416666667 c 128,-1,36
 385 192 385 192 383 154 c 1,37,38
 454.842105263 119 454.842105263 119 554.421052632 119 c 128,-1,39
 654 119 654 119 714 200 c 128,-1,40
 774 281 774 281 774 417.5 c 128,-1,41
 774 554 774 554 714 623.5 c 128,-1,42
 654 693 654 693 520 693 c 0,43,44
 500 693 500 693 489 692 c 2,45,-1
 385 686 l 1,46,47
 379.063843371 687.978718876 379.063843371 687.978718876 379.063843371 713.170186027 c 128,-1,48
 379.063843371 738.361653179 379.063843371 738.361653179 392.638860356 784.465161488 c 128,-1,49
 406.21387734 830.568669798 406.21387734 830.568669798 420.10693867 840.284334899 c 128,-1,50
 434 850 434 850 490 850 c 128,-1,51
 546 850 546 850 623 842 c 1,52,53
 725 948.163265306 725 948.163265306 725 1104 c 0,54,55
 725 1330 725 1330 468 1330 c 0,56,57
 433 1330 433 1330 375 1323 c 1,58,-1
 375 1120 l 1,0,1
EndSplineSet
EndChar

StartChar: seven
Encoding: 55 55 7
Width: 1016
Flags: HMW
HStem: -16 21G<423.5 484> 1085 347 1274 158 1434 20G<27 27>
VStem: 295 319
LayerCount: 2
Fore
SplineSet
27 1454 m 1,0,1
 402 1432 402 1432 956 1432 c 1,2,3
 983 1367 983 1367 983 1308.5 c 128,-1,4
 983 1250 983 1250 956.5 1198 c 128,-1,5
 930 1146 930 1146 835.5 986 c 128,-1,6
 741 826 741 826 713 765 c 128,-1,7
 685 704 685 704 667.5 655.5 c 128,-1,8
 650 607 650 607 640 533.5 c 0,9,10
 612 327.7 612 327.7 612 220.35 c 128,-1,11
 612 113 612 113 625 6 c 1,12,13
 553 -16 553 -16 453.5 -16 c 128,-1,14
 354 -16 354 -16 295 6 c 1,15,16
 295 426.383561644 295 426.383561644 388.5 639 c 0,17,18
 453.554883721 786.933023256 453.554883721 786.933023256 608.5 1007 c 0,19,20
 713.322683706 1155.87859425 713.322683706 1155.87859425 788 1288 c 1,21,-1
 276 1260 l 1,22,-1
 276 1139 l 1,23,24
 259.714285714 1106.42857143 259.714285714 1106.42857143 216.857142857 1095.71428571 c 128,-1,25
 174 1085 174 1085 145 1085 c 0,26,27
 71 1085 71 1085 40.5 1137.5 c 128,-1,28
 10 1190 10 1190 10 1314 c 128,-1,29
 10 1438 10 1438 27 1454 c 1,0,1
EndSplineSet
EndChar

StartChar: zero
Encoding: 48 48 8
Width: 1491
Flags: HMW
HStem: -41 160<733 863 687 945> 1317 160<642 836.5>
VStem: 115 317<737 737> 1065 313<524 917.5>
LayerCount: 2
Fore
SplineSet
114.667399428 744.054392349 m 0,0,1
 114.667399428 870.172436326 114.667399428 870.172436326 164.113283074 1010.57035276 c 128,-1,2
 213.55916672 1150.96826919 213.55916672 1150.96826919 300.122302021 1253.81662449 c 128,-1,3
 386.685437322 1356.66497978 386.685437322 1356.66497978 511.498318938 1416.83248989 c 128,-1,4
 636.311200554 1477 636.311200554 1477 791.155600277 1477 c 128,-1,5
 946 1477 946 1477 1084 1376.5 c 128,-1,6
 1222 1276 1222 1276 1300 1106.5 c 128,-1,7
 1378 937 1378 937 1378 755 c 128,-1,8
 1378 573 1378 573 1336 432 c 128,-1,9
 1294 291 1294 291 1215 185.5 c 128,-1,10
 1136 80 1136 80 1012 19.5 c 128,-1,11
 888 -41 888 -41 733 -41 c 0,12,13
 472.535296675 -39.5766956102 472.535296675 -39.5766956102 289.549139336 192.72609343 c 0,14,15
 114.667399428 414.740242058 114.667399428 414.740242058 114.667399428 744.054392349 c 0,0,1
988 273 m 128,-1,17
 1065 427 1065 427 1065 716.5 c 128,-1,18
 1065 1006 1065 1006 976 1161.5 c 128,-1,19
 887 1317 887 1317 739.5 1317 c 128,-1,20
 592 1317 592 1317 512 1170 c 128,-1,21
 432 1023 432 1023 432 744 c 128,-1,22
 432 465 432 465 534.5 292 c 128,-1,23
 637 119 637 119 774 119 c 128,-1,16
 911 119 911 119 988 273 c 128,-1,17
EndSplineSet
EndChar

StartChar: five
Encoding: 53 53 9
Width: 1204
Flags: HMW
HStem: -35 158<537 557 501.5 679> -35 389<233.5 679> 717 160<448.5 775> 1270 162<199 834 199 412> 1434 20G<1085 1085>
VStem: 180 256 819 293<327.5 535.5>
LayerCount: 2
Fore
SplineSet
991.5 143 m 0,0,1
 818.095393463 -35.0912175247 818.095393463 -35.0912175247 526.552195485 -35.0912175247 c 0,2,3
 440.180998188 -35.0912175247 440.180998188 -35.0912175247 336.865142047 -12.8675380168 c 128,-1,4
 233.549285905 9.35614149115 233.549285905 9.35614149115 154 47 c 1,5,6
 134.626930588 67.6646073727 134.626930588 67.6646073727 134.626930588 126.364659165 c 0,7,8
 134.626930588 135.113660583 134.626930588 135.113660583 139.813465294 220.056830292 c 128,-1,9
 145 305 145 305 150 336 c 1,10,11
 205 354 205 354 275.5 354 c 128,-1,12
 346 354 346 354 374.5 318.5 c 128,-1,13
 403 283 403 283 403 240.5 c 128,-1,14
 403 198 403 198 401 156 c 1,15,16
 416.961538462 143.230769231 416.961538462 143.230769231 462.480769231 133.115384615 c 128,-1,17
 508 123 508 123 552 123.5 c 128,-1,18
 596 124 596 124 639 142 c 128,-1,19
 682 160 682 160 723.5 195.5 c 128,-1,20
 765 231 765 231 792 296.5 c 128,-1,21
 819 362 819 362 819 446 c 0,22,23
 819 573 819 573 732 645 c 128,-1,24
 645 717 645 717 504.5 717 c 128,-1,25
 364 717 364 717 199 694 c 1,26,27
 188 705 188 705 185 721.5 c 128,-1,28
 182 738 182 738 182 793 c 2,29,-1
 178 1171 l 1,30,-1
 173.307958478 1348.80541421 l 1,31,32
 173.307958478 1402.88235294 173.307958478 1402.88235294 199 1432 c 1,33,34
 567 1432 567 1432 955.5 1448.5 c 2,35,-1
 1085 1454 l 1,36,37
 1096 1444 1096 1444 1099 1426.5 c 128,-1,38
 1102 1409 1102 1409 1102 1356 c 0,39,40
 1102 1210 1102 1210 1070 1147.5 c 128,-1,41
 1038 1085 1038 1085 965 1085 c 0,42,43
 919 1085 919 1085 886.5 1098.5 c 128,-1,44
 854 1112 854 1112 844 1125.5 c 2,45,-1
 834 1139 l 1,46,-1
 834 1270 l 1,47,-1
 412 1270 l 1,48,49
 436 1121 436 1121 436 1077 c 2,50,-1
 436 866 l 1,51,52
 518 877 518 877 632.5 877 c 128,-1,53
 747 877 747 877 828 848.5 c 128,-1,54
 909 820 909 820 972.5 767.5 c 128,-1,55
 1036 715 1036 715 1074 632.5 c 128,-1,56
 1112 550 1112 550 1112 454.5 c 0,57,58
 1112 266.756756757 1112 266.756756757 991.5 143 c 0,0,1
EndSplineSet
EndChar

StartChar: four
Encoding: 52 52 10
Width: 1223
Flags: HMW
HStem: -21 21G<810 865.5> 286 189 1457 20G<837 883.5>
VStem: 721 266 721 471
LayerCount: 2
Fore
SplineSet
995 1368 m 1,0,-1
 987 1083 l 1,1,-1
 987 467 l 1,2,3
 1110 474 1110 474 1155 502 c 1,4,5
 1192 481 1192 481 1192 418.5 c 128,-1,6
 1192 356 1192 356 1136.5 309 c 128,-1,7
 1081 262 1081 262 989 250 c 1,8,9
 996 101 996 101 1012 6 c 1,10,11
 926 -21 926 -21 839 -21 c 128,-1,12
 752 -21 752 -21 707 6 c 1,13,14
 717 156 717 156 721 262 c 1,15,16
 453 286 453 286 330.5 286 c 128,-1,17
 208 286 208 286 117 264 c 1,18,19
 99 288 99 288 85.5 342 c 128,-1,20
 72 396 72 396 72 431 c 128,-1,21
 72 466 72 466 76 479 c 1,22,23
 392 930 392 930 700 1450 c 1,24,25
 778 1477 778 1477 848.5 1477 c 128,-1,26
 919 1477 919 1477 979 1466 c 1,27,28
 995 1443 995 1443 995 1368 c 1,0,-1
279 481 m 1,29,30
 328 490 328 490 411 490 c 128,-1,31
 494 490 494 490 723 475 c 1,32,33
 725 668 725 668 725 1176 c 1,34,35
 636 1043 636 1043 490 810 c 128,-1,36
 344 577 344 577 279 481 c 1,29,30
EndSplineSet
EndChar

StartChar: eight
Encoding: 56 56 11
Width: 1253
Flags: HMW
HStem: -41 127<576.5 706.5 576.5 710.5> 1346 129<540 651.5>
VStem: 92 287<293.5 454.5 293.5 465> 170 252<1008 1175.5 1008 1233> 819 240<1044.5 1185.5> 868 293<270.5 450.5>
LayerCount: 2
Fore
SplineSet
92 370 m 0,0,1
 92 440 92 440 118 500.5 c 128,-1,2
 144 561 144 561 186 608.5 c 0,3,4
 270.240733665 703.772258311 270.240733665 703.772258311 369 750 c 1,5,6
 170 857 170 857 170 1094 c 0,7,8
 170 1314.25203252 170 1314.25203252 391.5 1420.5 c 0,9,10
 505.118644068 1475 505.118644068 1475 625 1475 c 0,11,12
 830 1475 830 1475 944.5 1384 c 128,-1,13
 1059 1293 1059 1293 1059 1114 c 0,14,15
 1059 1014 1059 1014 1007.5 919.5 c 128,-1,16
 956 825 956 825 877 762 c 1,17,18
 1086.25336435 678.962950656 1086.25336435 678.962950656 1139 543.5 c 0,19,20
 1161 487 1161 487 1161 412.5 c 128,-1,21
 1161 338 1161 338 1141 272 c 128,-1,22
 1121 206 1121 206 1087.5 159.5 c 128,-1,23
 1054 113 1054 113 1007.5 77 c 128,-1,24
 961 41 961 41 911.5 19.5 c 128,-1,25
 862 -2 862 -2 806.5 -16.5 c 0,26,27
 619.62109375 -65.32421875 619.62109375 -65.32421875 413 -24 c 0,28,29
 234.970509383 11.6058981233 234.970509383 11.6058981233 156.5 130 c 0,30,31
 92 227.315789474 92 227.315789474 92 370 c 0,0,1
868 375 m 0,32,33
 868 483 868 483 808 543 c 128,-1,34
 748 603 748 603 610 653 c 1,35,-1
 522 684 l 1,36,37
 456 639 456 639 417.5 561 c 128,-1,38
 379 483 379 483 379 403 c 128,-1,39
 379 323 379 323 402 261.5 c 128,-1,40
 425 200 425 200 463 163 c 0,41,42
 542.081081081 86 542.081081081 86 637 86 c 0,43,44
 868 86 868 86 868 375 c 0,32,33
422 1094 m 0,45,46
 422 955.573170732 422 955.573170732 546 884.5 c 0,47,48
 606.649769585 849.737327189 606.649769585 849.737327189 711 817 c 1,49,50
 819 921 819 921 819 1071 c 0,51,52
 819 1236.2238806 819 1236.2238806 750.5 1294.5 c 0,53,54
 689.964912281 1346 689.964912281 1346 588 1346 c 0,55,56
 422 1346 422 1346 422 1094 c 0,45,46
EndSplineSet
EndChar

StartChar: nine
Encoding: 57 57 12
Width: 1346
Flags: HMW
HStem: -35 146<584 710 584 775.5> -35 365<292 775.5> 490 164<586.5 660.5> 1350 129<598.5 773.5>
VStem: 134 297<895 1100 895 1147.5> 205 267<135 135 135 203> 938 295
LayerCount: 2
Fore
SplineSet
340 330 m 0,0,1
 438.272727273 330 438.272727273 330 472 277 c 1,2,-1
 472 135 l 1,3,4
 544 111 544 111 619 111 c 0,5,6
 755 111 755 111 832 231 c 128,-1,7
 909 351 909 351 936 598 c 1,8,9
 846 542 846 542 767.5 516 c 128,-1,10
 689 490 689 490 597.5 490 c 128,-1,11
 506 490 506 490 425 518.5 c 128,-1,12
 344 547 344 547 278 602 c 128,-1,13
 212 657 212 657 173 748 c 128,-1,14
 134 839 134 839 134 952 c 128,-1,15
 134 1065 134 1065 172 1156.5 c 128,-1,16
 210 1248 210 1248 269.5 1306.5 c 128,-1,17
 329 1365 329 1365 405 1405 c 0,18,19
 545.6 1479 545.6 1479 695 1479 c 0,20,21
 962 1479 962 1479 1097.5 1310.5 c 128,-1,22
 1233 1142 1233 1142 1233 789 c 0,23,24
 1233 548 1233 548 1152.5 361.5 c 128,-1,25
 1072 175 1072 175 922 70 c 128,-1,26
 772 -35 772 -35 581.5 -35 c 128,-1,27
 391 -35 391 -35 220 39 c 1,28,29
 205 79 205 79 205 144 c 0,30,31
 205 330 205 330 340 330 c 0,0,1
658 654 m 0,32,33
 802 654 802 654 938 758 c 1,34,35
 929.644439521 1119.3779907 929.644439521 1119.3779907 825 1271.5 c 0,36,37
 771 1350 771 1350 697 1350 c 0,38,39
 554 1350 554 1350 492.5 1258 c 128,-1,40
 431 1166 431 1166 431 1005.5 c 128,-1,41
 431 845 431 845 492.5 749.5 c 128,-1,42
 554 654 554 654 658 654 c 0,32,33
EndSplineSet
EndChar

StartChar: six
Encoding: 54 54 13
Width: 1346
Flags: HMW
HStem: -39 129<572.5 747.5 572.5 758.5> 786 164<685.5 759.5> 1110 365<570.5 1054> 1329 146<636 762>
VStem: 113 295 874 267<1237 1305 1305 1305> 915 297<340 545>
LayerCount: 2
Fore
SplineSet
1006 1110 m 0,0,1
 907.727272727 1110 907.727272727 1110 874 1163 c 1,2,-1
 874 1305 l 1,3,4
 802 1329 802 1329 727 1329 c 0,5,6
 591 1329 591 1329 514 1209 c 128,-1,7
 437 1089 437 1089 410 842 c 1,8,9
 500 898 500 898 578.5 924 c 128,-1,10
 657 950 657 950 748.5 950 c 128,-1,11
 840 950 840 950 921 921.5 c 128,-1,12
 1002 893 1002 893 1068 838 c 128,-1,13
 1134 783 1134 783 1173 692 c 128,-1,14
 1212 601 1212 601 1212 488 c 128,-1,15
 1212 375 1212 375 1174 283.5 c 128,-1,16
 1136 192 1136 192 1076.5 133.5 c 128,-1,17
 1017 75 1017 75 941 35 c 0,18,19
 800.4 -39 800.4 -39 651 -39 c 0,20,21
 384 -39 384 -39 248.5 129.5 c 128,-1,22
 113 298 113 298 113 651 c 0,23,24
 113 892 113 892 193.5 1078.5 c 128,-1,25
 274 1265 274 1265 424 1370 c 128,-1,26
 574 1475 574 1475 764.5 1475 c 128,-1,27
 955 1475 955 1475 1126 1401 c 1,28,29
 1141 1361 1141 1361 1141 1296 c 0,30,31
 1141 1110 1141 1110 1006 1110 c 0,0,1
688 786 m 0,32,33
 544 786 544 786 408 682 c 1,34,35
 416.355560479 320.622009304 416.355560479 320.622009304 521 168.5 c 0,36,37
 575 90 575 90 649 90 c 0,38,39
 792 90 792 90 853.5 182 c 128,-1,40
 915 274 915 274 915 434.5 c 128,-1,41
 915 595 915 595 853.5 690.5 c 128,-1,42
 792 786 792 786 688 786 c 0,32,33
EndSplineSet
EndChar

StartChar: two
Encoding: 50 50 14
Width: 1260
Flags: HMW
HStem: 0 158 0 365 973 504<258 767> 1327 150<601 705.5>
VStem: 157 269<1199.5 1237 1024 1239> 842 284<923.5 1160.5>
LayerCount: 2
Fore
SplineSet
792.5 1266.5 m 128,-1,1
 743 1327 743 1327 625.409090909 1327 c 128,-1,2
 507.818181818 1327 507.818181818 1327 426 1237 c 1,3,-1
 426 1024 l 1,4,5
 413.107692308 1004.66153846 413.107692308 1004.66153846 378.053846154 988.830769231 c 128,-1,6
 343 973 343 973 290.5 973 c 128,-1,7
 238 973 238 973 209 1003 c 128,-1,8
 180 1033 180 1033 168.5 1102 c 128,-1,9
 157 1171 157 1171 157 1226 c 128,-1,10
 157 1281 157 1281 177 1304 c 128,-1,11
 197 1327 197 1327 234.5 1354 c 128,-1,12
 272 1381 272 1381 327.5 1410 c 0,13,14
 455.724137931 1477 455.724137931 1477 613.362068966 1477 c 128,-1,15
 771 1477 771 1477 882 1436 c 128,-1,16
 993 1395 993 1395 1059.5 1305 c 128,-1,17
 1126 1215 1126 1215 1126 1083 c 0,18,19
 1126 924.953488372 1126 924.953488372 1039 798.5 c 0,20,21
 950.042570174 669.201410137 950.042570174 669.201410137 838.5 581.5 c 0,22,23
 736.00462963 500.912037037 736.00462963 500.912037037 629.502314815 432.956018519 c 0,24,25
 415 296.088352279 415 296.088352279 415 189 c 0,26,27
 415 170 415 170 420 158 c 1,28,29
 493 164 493 164 662.5 173 c 128,-1,30
 832 182 832 182 905 188 c 1,31,-1
 920 313 l 1,32,33
 932.704 332.056 932.704 332.056 967.352 348.528 c 128,-1,34
 1002 365 1002 365 1055 365 c 128,-1,35
 1108 365 1108 365 1136.5 335 c 0,36,37
 1188 280.789473684 1188 280.789473684 1188 100 c 0,38,39
 1188 22 1188 22 1169 2 c 1,40,41
 1083 0 1083 0 383 0 c 2,42,-1
 240 0 l 2,43,44
 212 0 212 0 197 55 c 128,-1,45
 182 110 182 110 182 162 c 1,46,47
 206.788781976 324.080497536 206.788781976 324.080497536 342 457 c 0,48,49
 401 515 401 515 469.5 570 c 128,-1,50
 538 625 538 625 603.5 678 c 128,-1,51
 669 731 669 731 722.5 786.5 c 0,52,53
 842 910.46728972 842 910.46728972 842 1058.23364486 c 128,-1,0
 842 1206 842 1206 792.5 1266.5 c 128,-1,1
EndSplineSet
EndChar

StartChar: equal
Encoding: 61 61 15
Width: 1128
Flags: HMW
HStem: 481 169<543.5 712.5 543.5 981> 823 169<543.5 712.5 543.5 981>
LayerCount: 2
Fore
SplineSet
981 823 m 1,0,-1
 143 823 l 1,1,2
 133 836 133 836 133 897 c 0,3,4
 133 958 133 958 145 975 c 1,5,6
 290 992 290 992 594 992 c 0,7,8
 898 992 898 992 987 981 c 1,9,10
 993 958 993 958 993 906 c 0,11,12
 993 854 993 854 981 823 c 1,0,-1
981 481 m 1,13,-1
 143 481 l 1,14,15
 133 494 133 494 133 555 c 0,16,17
 133 616 133 616 145 633 c 1,18,19
 290 650 290 650 594 650 c 0,20,21
 898 650 898 650 987 639 c 1,22,23
 993 617 993 617 993 564.5 c 0,24,25
 993 512 993 512 981 481 c 1,13,-1
EndSplineSet
EndChar

StartChar: quoteleft
Encoding: 8216 8216 16
Width: 444
Flags: HMW
HStem: 1038 21G<203 292> 1522 20G
VStem: 92 322<1174.5 1252.5>
LayerCount: 2
Fore
SplineSet
297 1354 m 1,0,1
 327 1354 327 1354 370.5 1317.5 c 128,-1,2
 414 1281 414 1281 414 1214.5 c 0,3,4
 414 1148 414 1148 365 1093 c 128,-1,5
 316 1038 316 1038 248 1038 c 0,6,7
 180 1038 180 1038 136 1077 c 128,-1,8
 92 1116 92 1116 92 1202 c 0,9,10
 92 1288 92 1288 171.5 1399 c 128,-1,11
 251 1510 251 1510 354 1542 c 1,12,13
 388 1524 388 1524 391 1487 c 1,14,15
 354 1458 354 1458 326.5 1415.5 c 128,-1,16
 299 1373 299 1373 297 1354 c 1,0,1
EndSplineSet
EndChar

StartChar: plus
Encoding: 43 43 17
Width: 1128
Flags: HMW
HStem: 307 21G<561 590.5> 657 158<649 649 649 981> 1139 20G<540.5 574>
VStem: 487 162<586.5 657 586.5 657 586.5 657 586.5 1149>
LayerCount: 2
Fore
SplineSet
487 319 m 1,0,-1
 487 657 l 1,1,-1
 143 657 l 1,2,3
 133 670 133 670 133 731 c 0,4,5
 133 792 133 792 145 809 c 1,6,7
 285 813 285 813 487 813 c 1,8,-1
 487 1149 l 1,9,10
 500 1159 500 1159 561 1159 c 0,11,12
 622 1159 622 1159 639 1147 c 1,13,14
 643 1076 643 1076 647 815 c 1,15,-1
 987 815 l 1,16,17
 993 792 993 792 993 740 c 0,18,19
 993 688 993 688 981 657 c 1,20,-1
 649 657 l 1,21,22
 649 445 649 445 645 313 c 1,23,24
 622 307 622 307 570 307 c 0,25,26
 518 307 518 307 487 319 c 1,0,-1
EndSplineSet
EndChar

StartChar: asterisk
Encoding: 42 42 18
Width: 967
Flags: HMW
HStem: 1027 20G<281.5 350 350 362> 1489 20G<458.5 491.5>
VStem: 92 440 352 180
LayerCount: 2
Fore
SplineSet
759 1307 m 0,0,1
 811 1307 811 1307 842 1263.5 c 128,-1,2
 873 1220 873 1220 873 1181.5 c 128,-1,3
 873 1143 873 1143 864 1116 c 1,4,5
 760 1116 760 1116 598 1079 c 1,6,7
 774.964591005 930.290259659 774.964591005 930.290259659 774.964591005 862.569864227 c 0,8,9
 774.964591005 853.645524172 774.964591005 853.645524172 772 846 c 0,10,11
 752.571547568 804.264805886 752.571547568 804.264805886 714.366890857 778.83492079 c 128,-1,12
 676.162234147 753.405035694 676.162234147 753.405035694 628.199834192 753.405035694 c 0,13,14
 621.139571668 753.405035694 621.139571668 753.405035694 614 754 c 1,15,16
 608.2 783 608.2 783 520 930 c 1,17,-1
 487 981 l 1,18,19
 406.659883587 795.295796489 406.659883587 795.295796489 330.638490543 759.182850061 c 0,20,21
 319.657791406 753.966615738 319.657791406 753.966615738 314.688066405 753.966615738 c 0,22,23
 268.404619232 753.966615738 268.404619232 753.966615738 225.702309616 794.983307869 c 128,-1,24
 183 836 183 836 174 889 c 1,25,26
 235 919 235 919 362 1047 c 1,27,-1
 350 1047 l 2,28,29
 246 1047 246 1047 178.5 1064.5 c 128,-1,30
 111 1082 111 1082 100 1112 c 1,31,32
 92 1148 92 1148 92 1176 c 0,33,34
 92 1246 92 1246 143 1288 c 1,35,-1
 164 1284 l 1,36,37
 175 1280 175 1280 208 1264 c 0,38,39
 295.900900901 1221.38138138 295.900900901 1221.38138138 395 1190 c 1,40,41
 352 1325 352 1325 352 1391 c 128,-1,42
 352 1457 352 1457 375 1477 c 1,43,44
 420 1509 420 1509 470.5 1509 c 128,-1,45
 521 1509 521 1509 575 1477 c 1,46,47
 535.924783028 1374.80327869 535.924783028 1374.80327869 532 1208 c 1,48,49
 676 1307 676 1307 759 1307 c 0,0,1
EndSplineSet
EndChar

StartChar: numbersign
Encoding: 35 35 19
Width: 1159
Flags: HMW
HStem: 2 21G<323 356.5 719 752.5> 428 150<487 487 487 694 467 487> 913 150<532 553 553 553 553 758> 1045 20G<741.5 778> 1412 20G<498.5 528 893.5 923>
LayerCount: 2
Fore
SplineSet
883 578 m 1,0,-1
 1034 569 l 1,1,2
 1040 551 1040 551 1040 505 c 128,-1,3
 1040 459 1040 459 1026 428 c 1,4,-1
 862 428 l 1,5,-1
 807 12 l 1,6,7
 793 2 793 2 731.5 2 c 128,-1,8
 670 2 670 2 655 14 c 1,9,10
 655 79 655 79 694 428 c 1,11,-1
 467 428 l 1,12,-1
 412 12 l 1,13,14
 398 2 398 2 336.5 2 c 128,-1,15
 275 2 275 2 260 14 c 1,16,17
 260 94 260 94 299 428 c 1,18,-1
 125 428 l 1,19,20
 114 439 114 439 114 494.5 c 128,-1,21
 114 550 114 550 127 563 c 1,22,23
 204 570 204 570 317 573 c 1,24,25
 348.25 816.75 348.25 816.75 362 913 c 1,26,-1
 193 913 l 1,27,28
 181 925 181 925 181 980 c 128,-1,29
 181 1035 181 1035 195 1049 c 1,30,31
 272 1056 272 1056 383 1059 c 1,32,33
 426 1363 426 1363 442 1425 c 1,34,35
 470 1432 470 1432 519 1432 c 128,-1,36
 568 1432 568 1432 600 1419 c 1,37,-1
 553 1063 l 1,38,39
 629 1065 629 1065 778 1065 c 1,40,41
 821 1363 821 1363 838 1425 c 1,42,43
 866 1432 866 1432 914.5 1432 c 128,-1,44
 963 1432 963 1432 995 1419 c 1,45,-1
 946 1063 l 1,46,47
 980 1062 980 1062 1102 1055 c 1,48,49
 1108 1036 1108 1036 1108 990 c 128,-1,50
 1108 944 1108 944 1094 913 c 1,51,-1
 928 913 l 1,52,-1
 883 578 l 1,0,-1
715 580 m 1,53,54
 727 689 727 689 758 913 c 1,55,-1
 532 913 l 1,56,-1
 487 578 l 1,57,58
 563 580 563 580 715 580 c 1,53,54
EndSplineSet
EndChar

StartChar: underscore
Encoding: 95 95 20
Width: 1225
Flags: HMW
HStem: -463 157<586.5 819 586.5 1159>
LayerCount: 2
Fore
SplineSet
1159 -463 m 1,0,-1
 61 -463 l 1,1,2
 51 -450 51 -450 51 -395.5 c 0,3,4
 51 -341 51 -341 63 -324 c 1,5,6
 205 -306 205 -306 641 -306 c 0,7,8
 1077 -306 1077 -306 1165 -317 c 1,9,10
 1172 -343 1172 -343 1172 -386.5 c 0,11,12
 1172 -430 1172 -430 1159 -463 c 1,0,-1
EndSplineSet
EndChar

StartChar: exclam
Encoding: 33 33 21
Width: 674
Flags: HMW
HStem: -40 315<337.5 347> 1492 20G<335.5 391.5>
VStem: 172 277 172 326<1493 1493>
LayerCount: 2
Fore
SplineSet
232.5 223 m 128,-1,1
 286 275 286 275 351 275 c 128,-1,2
 416 275 416 275 457.5 236 c 128,-1,3
 499 197 499 197 499 128 c 128,-1,4
 499 59 499 59 438 0 c 1,5,6
 392 -40 392 -40 329 -40 c 128,-1,7
 266 -40 266 -40 222.5 -0.5 c 128,-1,8
 179 39 179 39 179 105 c 128,-1,0
 179 171 179 171 232.5 223 c 128,-1,1
449 422 m 1,9,10
 392 397 392 397 337.5 397 c 128,-1,11
 283 397 283 397 231 410 c 1,12,13
 231 413 231 413 226 448.5 c 128,-1,14
 221 484 221 484 217 519 c 128,-1,15
 213 554 213 554 207 617 c 128,-1,16
 201 680 201 680 196 761 c 128,-1,17
 191 842 191 842 186 946.5 c 0,18,19
 176.296108291 1149.31133672 176.296108291 1149.31133672 172 1493 c 1,20,21
 284 1512 284 1512 365.5 1512 c 128,-1,22
 447 1512 447 1512 498 1493 c 1,23,24
 454 924 454 924 449 422 c 1,9,10
EndSplineSet
EndChar

StartChar: backslash
Encoding: 92 92 22
Width: 782
Flags: HMW
HStem: -352 21G<734.5 780.5> 1696 20G<32 74.5>
LayerCount: 2
Fore
SplineSet
662 -342 m 1,0,-1
 -61 1704 l 1,1,2
 -33 1716 -33 1716 45 1716 c 0,3,4
 123 1716 123 1716 147 1710 c 1,5,6
 199 1604 199 1604 514 699.5 c 128,-1,7
 829 -205 829 -205 864 -340 c 1,8,9
 852 -352 852 -352 764 -352 c 0,10,11
 676 -352 676 -352 662 -342 c 1,0,-1
EndSplineSet
EndChar

StartChar: slash
Encoding: 47 47 23
Width: 762
Flags: HMW
HStem: -352 21G<32.5 78.5> 1696 20G<738.5 781>
LayerCount: 2
Fore
SplineSet
874 1704 m 1,0,-1
 152 -342 l 1,1,2
 136 -352 136 -352 48.5 -352 c 0,3,4
 -39 -352 -39 -352 -51 -340 c 1,5,6
 -16 -205 -16 -205 299 699.5 c 128,-1,7
 614 1604 614 1604 666 1710 c 1,8,9
 690 1716 690 1716 768 1716 c 0,10,11
 846 1716 846 1716 874 1704 c 1,0,-1
EndSplineSet
EndChar

StartChar: guillemotright
Encoding: 187 187 24
Width: 1063
Flags: HMW
HStem: 199 21G 1162 20G
VStem: 551 162<644 697.5 637 704.5>
LayerCount: 2
Fore
SplineSet
193 272 m 1,0,1
 166 280 166 280 143.5 301 c 128,-1,2
 121 322 121 322 111 344 c 1,3,-1
 371 664 l 1,4,-1
 92 993 l 1,5,6
 107 1024 107 1024 134 1052 c 128,-1,7
 161 1080 161 1080 186 1087 c 1,8,9
 214 1058 214 1058 277 995.5 c 128,-1,10
 340 933 340 933 378.5 893.5 c 128,-1,11
 417 854 417 854 462 805.5 c 128,-1,12
 507 757 507 757 529 724 c 128,-1,13
 551 691 551 691 551 674 c 128,-1,14
 551 657 551 657 533.5 630 c 128,-1,15
 516 603 516 603 479 563.5 c 128,-1,16
 442 524 442 524 403 485 c 2,17,-1
 302.5 384.5 l 2,18,19
 241 323 241 323 193 272 c 1,0,1
893 760 m 0,20,21
 928 715 928 715 928 675.5 c 128,-1,22
 928 636 928 636 889.5 585 c 128,-1,23
 851 534 851 534 735 418.5 c 128,-1,24
 619 303 619 303 498 199 c 1,25,26
 471 206 471 206 448.5 227 c 128,-1,27
 426 248 426 248 416 270 c 1,28,29
 598.80952381 477.738095238 598.80952381 477.738095238 630.904761905 521.869047619 c 128,-1,30
 663 566 663 566 681 592.5 c 0,31,32
 713 639.611111111 713 639.611111111 713 660.305555556 c 128,-1,33
 713 681 713 681 704.5 699 c 128,-1,34
 696 717 696 717 675.5 744 c 128,-1,35
 655 771 655 771 635.5 795 c 128,-1,36
 616 819 616 819 579 860 c 128,-1,37
 542 901 542 901 517.5 928 c 0,38,39
 468.5 982 468.5 982 371 1087 c 1,40,41
 385 1117 385 1117 412.5 1145.5 c 128,-1,42
 440 1174 440 1174 465 1182 c 1,43,44
 796 885 796 885 893 760 c 0,20,21
EndSplineSet
EndChar

StartChar: guillemotleft
Encoding: 171 171 25
Width: 1063
Flags: HMW
HStem: 199 21G 1162 20G
VStem: 350 162<644 697.5>
LayerCount: 2
Fore
SplineSet
870 272 m 1,0,1
 822 323 822 323 760.5 384.5 c 2,2,-1
 660 485 l 2,3,4
 556.210526316 588.789473684 556.210526316 588.789473684 534.105263158 622.894736842 c 128,-1,5
 512 657 512 657 512 674 c 128,-1,6
 512 691 512 691 534 724 c 128,-1,7
 556 757 556 757 601 805.5 c 128,-1,8
 646 854 646 854 684.5 893.5 c 128,-1,9
 723 933 723 933 786 995.5 c 128,-1,10
 849 1058 849 1058 877 1087 c 1,11,12
 902 1080 902 1080 929 1052 c 128,-1,13
 956 1024 956 1024 971 993 c 1,14,-1
 692 664 l 1,15,-1
 952 344 l 1,16,17
 942 322 942 322 919.5 301 c 128,-1,18
 897 280 897 280 870 272 c 1,0,1
326 419 m 128,-1,20
 210 534 210 534 172.5 585 c 128,-1,21
 135 636 135 636 135 675.5 c 128,-1,22
 135 715 135 715 170 760 c 0,23,24
 267 885 267 885 598 1182 c 1,25,26
 623 1174 623 1174 650.5 1145.5 c 128,-1,27
 678 1117 678 1117 692 1087 c 1,28,29
 474 852.230769231 474 852.230769231 441 811.615384615 c 128,-1,30
 408 771 408 771 387.5 744 c 128,-1,31
 367 717 367 717 358.5 699 c 128,-1,32
 350 681 350 681 350 670 c 128,-1,33
 350 659 350 659 354.5 645.5 c 128,-1,34
 359 632 359 632 370 613.5 c 128,-1,35
 381 595 381 595 391.5 578 c 128,-1,36
 402 561 402 561 422 535.5 c 128,-1,37
 442 510 442 510 457.5 491 c 128,-1,38
 473 472 473 472 500.5 440 c 128,-1,39
 528 408 528 408 545.5 387.5 c 128,-1,40
 563 367 563 367 595.5 329.5 c 128,-1,41
 628 292 628 292 647 270 c 1,42,43
 637 248 637 248 614.5 227 c 128,-1,44
 592 206 592 206 565 199 c 1,45,19
 442 304 442 304 326 419 c 128,-1,20
EndSplineSet
EndChar

StartChar: greater
Encoding: 62 62 26
Width: 1006
Flags: HMW
HStem: 244 21G 1199 20G
LayerCount: 2
Fore
SplineSet
879 807 m 1,0,1
 893 761 893 761 893 722.5 c 0,2,3
 893 684 893 684 879 655 c 1,4,5
 829 613 829 613 570.5 462.5 c 128,-1,6
 312 312 312 312 178 244 c 1,7,8
 137 287 137 287 92 387 c 1,9,10
 193 454 193 454 407.5 579 c 128,-1,11
 622 704 622 704 680 731 c 1,12,13
 622 758 622 758 407.5 883 c 128,-1,14
 193 1008 193 1008 92 1075 c 1,15,16
 138 1177 138 1177 178 1219 c 1,17,18
 311 1152 311 1152 570 1000.5 c 128,-1,19
 829 849 829 849 879 807 c 1,0,1
EndSplineSet
EndChar

StartChar: question
Encoding: 63 63 27
Width: 1096
Flags: HMW
HStem: -40 315<505.5 515> 1343 134<467 600>
VStem: 53 268<1039.5 1189.5> 347 320<114.5 124> 402 221<470 556 412 641.5> 748 317<924 1168>
LayerCount: 2
Fore
SplineSet
623 412 m 1,0,1
 580 393 580 393 529.5 393 c 0,2,3
 447.818181818 393 447.818181818 393 406 416 c 1,4,5
 402 447 402 447 402 496 c 128,-1,6
 402 545 402 545 421 597.5 c 128,-1,7
 440 650 440 650 470.5 685.5 c 128,-1,8
 501 721 501 721 538 752 c 128,-1,9
 575 783 575 783 612 814 c 128,-1,10
 649 845 649 845 679.5 880 c 0,11,12
 748 958.606557377 748 958.606557377 748 1082.80327869 c 128,-1,13
 748 1207 748 1207 690.5 1275 c 128,-1,14
 633 1343 633 1343 534.5 1343 c 128,-1,15
 436 1343 436 1343 378.5 1283 c 128,-1,16
 321 1223 321 1223 321 1137.5 c 128,-1,17
 321 1052 321 1052 371 979 c 1,18,19
 354.818897638 930.456692913 354.818897638 930.456692913 290 907.5 c 0,20,21
 266 899 266 899 238 899 c 0,22,23
 53.8213709047 900.804063393 53.8213709047 900.804063393 52.9887897083 1103.02214617 c 0,24,25
 52.9887897083 1257.82978941 52.9887897083 1257.82978941 160.227640777 1350.68030292 c 0,26,27
 304.566048324 1477 304.566048324 1477 539 1477 c 0,28,29
 1065 1477 1065 1477 1065 1083 c 0,30,31
 1065 902.166666667 1065 902.166666667 977 799.5 c 0,32,33
 913.881578947 725.861842105 913.881578947 725.861842105 831.940789474 674.430921053 c 128,-1,34
 750 623 750 623 711 591.5 c 0,35,36
 623 520.423076923 623 520.423076923 623 412 c 1,0,1
400.5 223 m 128,-1,38
 454 275 454 275 519 275 c 128,-1,39
 584 275 584 275 625.5 236 c 128,-1,40
 667 197 667 197 667 128 c 128,-1,41
 667 59 667 59 606 0 c 1,42,43
 560 -40 560 -40 497 -40 c 128,-1,44
 434 -40 434 -40 390.5 -0.5 c 128,-1,45
 347 39 347 39 347 105 c 128,-1,37
 347 171 347 171 400.5 223 c 128,-1,38
EndSplineSet
EndChar

StartChar: parenleft
Encoding: 40 40 28
Width: 733
Flags: HMW
HStem: -412 21G<522 541.5> 1672 20G<522 543.5>
VStem: 154 262<355 865 355 913.5>
LayerCount: 2
Fore
SplineSet
641 1632 m 1,0,-1
 633 1612 l 2,1,2
 416 1069.5 416 1069.5 416 616 c 0,3,4
 416 250.634920635 416 250.634920635 553.5 -157.5 c 0,5,6
 585 -251 585 -251 607 -299.5 c 2,7,-1
 629 -348 l 1,8,9
 599 -412 599 -412 522 -412 c 1,10,11
 410 -272 410 -272 299.5 -18.5 c 0,12,13
 154 315.294117647 154 315.294117647 154 629 c 0,14,15
 154 788 154 788 192 956.5 c 128,-1,16
 230 1125 230 1125 284 1251 c 0,17,18
 394.83902439 1509.62439024 394.83902439 1509.62439024 484 1637.5 c 2,19,-1
 522 1692 l 1,20,21
 603 1692 603 1692 641 1632 c 1,0,-1
EndSplineSet
EndChar

StartChar: parenright
Encoding: 41 41 29
Width: 733
Flags: HMW
HStem: -412 21G<191.5 211> 1672 20G<189.5 211>
VStem: 317 263<355 865>
LayerCount: 2
Fore
SplineSet
92 1632 m 1,0,1
 130 1692 130 1692 211 1692 c 1,2,3
 318.913746631 1557.10781671 318.913746631 1557.10781671 434.5 1286.5 c 0,4,5
 580 945.858823529 580 945.858823529 580 629 c 0,6,7
 580 327.769230769 580 327.769230769 435 -18 c 0,8,9
 381.183673469 -146.331240188 381.183673469 -146.331240188 316.591836735 -251.665620094 c 128,-1,10
 252 -357 252 -357 231.5 -384.5 c 2,11,-1
 211 -412 l 1,12,13
 134 -412 134 -412 104 -348 c 1,14,15
 128.868852459 -298.262295082 128.868852459 -298.262295082 171.93442623 -176.631147541 c 128,-1,16
 215 -55 215 -55 243 52 c 0,17,18
 317 334.785714286 317 334.785714286 317 616 c 0,19,20
 317 1069.5 317 1069.5 100 1612 c 2,21,-1
 92 1632 l 1,0,1
EndSplineSet
EndChar

StartChar: c
Encoding: 99 99 30
Width: 1165
Flags: HMW
HStem: -35 146 936 135
VStem: 113 295<453 665.5> 857 257<785.5 794.5>
LayerCount: 2
Fore
SplineSet
1114 817 m 0,0,1
 1114 665 1114 665 956 665 c 0,2,3
 901.916666667 665 901.916666667 665 877.958333333 677.5 c 128,-1,4
 854 690 854 690 854 692 c 0,5,6
 857 711 857 711 857 731 c 0,7,8
 857 825 857 825 796.5 880.5 c 128,-1,9
 736 936 736 936 634 936 c 128,-1,10
 532 936 532 936 470 848.5 c 128,-1,11
 408 761 408 761 408 577 c 128,-1,12
 408 393 408 393 514.5 252 c 128,-1,13
 621 111 621 111 752 111 c 0,14,15
 864.682926829 111 864.682926829 111 978.5 202.5 c 0,16,17
 1004 223 1004 223 1030 252 c 1,18,19
 1052 238 1052 238 1075.5 212.5 c 128,-1,20
 1099 187 1099 187 1104 164 c 1,21,22
 1057.30590228 101.000830503 1057.30590228 101.000830503 962.065684428 43.4987060577 c 0,23,24
 832.026113719 -35.0138356687 832.026113719 -35.0138356687 675.256201272 -35.0138356687 c 128,-1,25
 518.486288826 -35.0138356687 518.486288826 -35.0138356687 389.701907833 31.2303441866 c 128,-1,26
 260.917526839 97.4745240419 260.917526839 97.4745240419 186.95876342 220.079558939 c 128,-1,27
 113 342.684593836 113 342.684593836 113 500 c 0,28,29
 113 802.201403684 113 802.201403684 335.812506115 965.743130827 c 0,30,31
 479.250986494 1071.02526794 479.250986494 1071.02526794 683.88728011 1071.02526794 c 0,32,33
 857.384744175 1071.02526794 857.384744175 1071.02526794 984.899773754 995.864612135 c 0,34,35
 1042.93731891 961.655782245 1042.93731891 961.655782245 1078.10400923 914.671081448 c 128,-1,36
 1113.27069956 867.68638065 1113.27069956 867.68638065 1114 817 c 0,0,1
EndSplineSet
EndChar

StartChar: o
Encoding: 111 111 31
Width: 1386
Flags: HMW
HStem: -37 125<653 822.5> 936 135<578.5 755>
VStem: 113 295<404.5 627 404.5 677.5> 985 289<395 622.5>
LayerCount: 2
Fore
SplineSet
1274 543.5 m 0,0,1
 1274 413 1274 413 1227 298 c 128,-1,2
 1180 183 1180 183 1094.5 110.5 c 0,3,4
 920.551724138 -37 920.551724138 -37 637 -37 c 0,5,6
 495 -37 495 -37 375 30 c 128,-1,7
 255 97 255 97 184 217.5 c 128,-1,8
 113 338 113 338 113 505.5 c 128,-1,9
 113 673 113 673 199 807 c 0,10,11
 368.432835821 1071 368.432835821 1071 766 1071 c 0,12,13
 965.643410853 1071 965.643410853 1071 1117 933.5 c 0,14,15
 1274 790.873239437 1274 790.873239437 1274 543.5 c 0,0,1
507 216 m 128,-1,17
 606 88 606 88 739 88 c 0,18,19
 985 88 985 88 985 489 c 0,20,21
 985 688 985 688 894 812 c 128,-1,22
 803 936 803 936 662 936 c 0,23,24
 591 936 591 936 539 900 c 128,-1,25
 487 864 487 864 460 803 c 0,26,27
 408 685.518518519 408 685.518518519 408 514.759259259 c 128,-1,16
 408 344 408 344 507 216 c 128,-1,17
EndSplineSet
EndChar

StartChar: h
Encoding: 104 104 32
Width: 1425
Flags: HMW
HStem: -36 173 -19 21G<304.5 356> 848 219
VStem: 224 295<492 1146.5> 935 292<582 637>
LayerCount: 2
Fore
SplineSet
925 217 m 1,0,-1
 935 598 l 2,1,2
 935 607.444812234 935 607.444812234 935.180853574 626.490030267 c 128,-1,3
 935.361707149 645.535248299 935.361707149 645.535248299 935.117135887 664.006854318 c 128,-1,4
 934.872564626 682.478460337 934.872564626 682.478460337 934.411040693 699.47049506 c 128,-1,5
 933.949516761 716.462529783 933.949516761 716.462529783 932.224175584 731.875849665 c 128,-1,6
 930.498834407 747.289169546 930.498834407 747.289169546 927.821370035 760.925487496 c 128,-1,7
 925.143905663 774.561805446 925.143905663 774.561805446 920.467453522 786.321977918 c 128,-1,8
 915.791001381 798.082150391 915.791001381 798.082150391 909.427255522 807.767890295 c 128,-1,9
 903.063509662 817.4536302 903.063509662 817.4536302 893.965605509 824.965793992 c 128,-1,10
 884.867701357 832.477957784 884.867701357 832.477957784 873.347332961 837.618258372 c 0,11,12
 849.86219797 848.097146639 849.86219797 848.097146639 796.677216363 848.097146639 c 0,13,14
 674.964255332 848.097146639 674.964255332 848.097146639 518 696 c 1,15,16
 518 510 518 510 512 0 c 1,17,18
 400 -19 400 -19 328 -19 c 128,-1,19
 256 -19 256 -19 205 0 c 1,20,21
 224 142 224 142 224 576 c 128,-1,22
 224 1010 224 1010 215 1276 c 1,23,24
 209.013422819 1375.77628635 209.013422819 1375.77628635 90 1389 c 1,25,26
 89.0999071043 1394.85060382 89.0999071043 1394.85060382 86.921738532 1406.56145503 c 0,27,28
 82.6808703799 1429.36234223 82.6808703799 1429.36234223 82.6808703799 1437.64407377 c 0,29,30
 82.6808703799 1450.08522228 82.6808703799 1450.08522228 84 1458 c 1,31,32
 215.55170201 1508.89226428 215.55170201 1508.89226428 305.991097164 1520.50597309 c 128,-1,33
 396.430492318 1532.1196819 396.430492318 1532.1196819 435.316936158 1532.1196819 c 128,-1,34
 474.203379999 1532.1196819 474.203379999 1532.1196819 483 1532 c 1,35,36
 507 1502 507 1502 513 1392 c 128,-1,37
 519 1282 519 1282 519 1104.5 c 128,-1,38
 519 927 519 927 518 846 c 1,39,40
 608 955 608 955 726 1011 c 128,-1,41
 844 1067 844 1067 962 1067 c 128,-1,42
 1080 1067 1080 1067 1146.5 989 c 128,-1,43
 1213 911 1213 911 1223 776 c 0,44,45
 1227 716 1227 716 1227 653 c 128,-1,46
 1227 590.182376007 1227 590.182376007 1215.47874867 446.934006815 c 128,-1,47
 1203.95749733 303.685637623 1203.95749733 303.685637623 1203.95749733 191.350784469 c 0,48,49
 1203.95749733 165.276016688 1203.95749733 165.276016688 1241.22682637 151.138008344 c 128,-1,50
 1278.4961554 137 1278.4961554 137 1313.7480777 137 c 128,-1,51
 1349 137 1349 137 1362 141 c 1,52,53
 1373.5 114.166666667 1373.5 114.166666667 1373.5 91.7083333333 c 128,-1,54
 1373.5 69.25 1373.5 69.25 1372 61 c 1,55,56
 1185 -36 1185 -36 1093 -36 c 128,-1,57
 1001 -36 1001 -36 963 26.5 c 128,-1,58
 925 89 925 89 925 217 c 1,0,-1
EndSplineSet
EndChar

StartChar: i
Encoding: 105 105 33
Width: 653
Flags: HMW
HStem: -21 21G<319 371> 1038 20G<377 444> 1238 344<365.5 377.5>
VStem: 193 333 235 291
LayerCount: 2
Fore
SplineSet
256 1532 m 1,0,1
 315 1582 315 1582 384 1582 c 128,-1,2
 453 1582 453 1582 498 1539.5 c 128,-1,3
 543 1497 543 1497 543 1420 c 128,-1,4
 543 1343 543 1343 485 1290.5 c 128,-1,5
 427 1238 427 1238 352.5 1238 c 128,-1,6
 278 1238 278 1238 235.5 1284 c 128,-1,7
 193 1330 193 1330 193 1402 c 128,-1,8
 193 1474 193 1474 256 1532 c 1,0,1
229 801 m 1,9,10
 229 877 229 877 176 891 c 1,11,12
 142 902 142 902 80 907 c 1,13,14
 73.25 937.375 73.25 937.375 73.25 952.5 c 128,-1,15
 73.25 967.625 73.25 967.625 74 977 c 1,16,17
 218 1058 218 1058 435 1058 c 0,18,19
 470 1058 470 1058 487 1057 c 1,20,21
 515 1013 515 1013 526 885 c 1,22,23
 534 827 534 827 534 710 c 128,-1,24
 534 593 534 593 526 -2 c 1,25,26
 415 -21 415 -21 341.5 -21 c 128,-1,27
 268 -21 268 -21 217 -2 c 1,28,29
 235 239 235 239 235 429.5 c 128,-1,30
 235 620 235 620 229 801 c 1,9,10
EndSplineSet
EndChar

StartChar: e
Encoding: 101 101 34
Width: 1196
Flags: HMW
HStem: -35 137<694 823.5> 940 127<556 698.5>
VStem: 113 297<561 673.5 561 692> 866 269<676 769.5>
LayerCount: 2
Fore
SplineSet
554 193 m 128,-1,1
 652 102 652 102 783.173913043 102 c 128,-1,2
 914.347826087 102 914.347826087 102 1047 215 c 1,3,4
 1097 182 1097 182 1108 137 c 1,5,6
 1015.8814628 29.5283732661 1015.8814628 29.5283732661 835.5 -16.5 c 0,7,8
 763 -35 763 -35 667.5 -35 c 128,-1,9
 572 -35 572 -35 470 -0.5 c 128,-1,10
 368 34 368 34 287.5 100 c 128,-1,11
 207 166 207 166 160 273.5 c 128,-1,12
 113 381 113 381 113 512 c 128,-1,13
 113 643 113 643 161 749.5 c 128,-1,14
 209 856 209 856 287.5 924 c 0,15,16
 452.580882353 1067 452.580882353 1067 666 1067 c 0,17,18
 853.141414141 1067 853.141414141 1067 989.5 965.5 c 0,19,20
 1056 916 1056 916 1095.5 836.5 c 128,-1,21
 1135 757 1135 757 1135 657 c 0,22,23
 1135 486 1135 486 1022 477 c 2,24,-1
 426 432 l 1,25,0
 456 284 456 284 554 193 c 128,-1,1
800 873 m 128,-1,27
 734 940 734 940 627 940 c 128,-1,28
 520 940 520 940 465 839.5 c 128,-1,29
 410 739 410 739 410 561 c 1,30,31
 659 588 659 588 860 618 c 1,32,33
 866 654 866 654 866 687 c 0,34,26
 866 806 866 806 800 873 c 128,-1,27
EndSplineSet
EndChar

StartChar: a
Encoding: 97 97 35
Width: 1305
Flags: HMW
HStem: -35 199<942 1141> 471 117<558 666> 696 365 934 127<555 676.5>
VStem: 114 296<250 339 237.5 378.5> 188 271<777 813 751 903> 789 292<700.5 782 492.5 783.5>
LayerCount: 2
Fore
SplineSet
1081 565 m 1,0,-1
 1075 229 l 2,1,2
 1074.5638459 223.657112319 1074.5638459 223.657112319 1074.5638459 218.743472027 c 0,3,4
 1074.5638459 164 1074.5638459 164 1127 164 c 0,5,6
 1167 164 1167 164 1212 190 c 1,7,8
 1226 178 1226 178 1238.5 156.5 c 128,-1,9
 1251 135 1251 135 1253 123 c 1,10,11
 1129 -35 1129 -35 995.5 -35 c 128,-1,12
 862 -35 862 -35 809 96 c 1,13,14
 717.235099338 31.5165562914 717.235099338 31.5165562914 621.617549669 -1.7417218543 c 128,-1,15
 526 -35 526 -35 457.5 -35 c 128,-1,16
 389 -35 389 -35 330.5 -20 c 128,-1,17
 272 -5 272 -5 222 27.5 c 0,18,19
 114 97.7 114 97.7 114 259 c 0,20,21
 114 345 114 345 161.5 409.5 c 128,-1,22
 209 474 209 474 291 511 c 0,23,24
 448.109614867 581.890923781 448.109614867 581.890923781 666 588 c 1,25,-1
 782 592 l 1,26,27
 789 673 789 673 789 720 c 0,28,29
 789 826 789 826 748.5 880 c 128,-1,30
 708 934 708 934 598 934 c 0,31,32
 532 934 532 934 495.5 888 c 128,-1,33
 459 842 459 842 459 752 c 0,34,35
 459 740.28276224 459 740.28276224 424.54507176 723.40343839 c 0,36,37
 367.69124439 695.550988441 367.69124439 695.550988441 311.482647469 695.550988441 c 128,-1,38
 255.274050548 695.550988441 255.274050548 695.550988441 221.637025274 727.756341515 c 128,-1,39
 188 759.961694588 188 759.961694588 188 817.980847294 c 128,-1,40
 188 876 188 876 230 927 c 128,-1,41
 272 978 272 978 342.5 1006 c 0,42,43
 480.982142857 1061 480.982142857 1061 659 1061 c 0,44,45
 845.2 1061 845.2 1061 931 1002.5 c 0,46,47
 1008.55377574 949.622425629 1008.55377574 949.622425629 1042 853 c 0,48,49
 1081 740.333333333 1081 740.333333333 1081 565 c 1,0,-1
782 201 m 1,50,51
 769 274 769 274 769 327.5 c 128,-1,52
 769 381 769 381 772 477 c 1,53,-1
 633 471 l 1,54,55
 526 471 526 471 468 419 c 128,-1,56
 410 367 410 367 410 289 c 128,-1,57
 410 211 410 211 444 177 c 128,-1,58
 478 143 478 143 581.5 143 c 128,-1,59
 685 143 685 143 782 201 c 1,50,51
EndSplineSet
EndChar

StartChar: l
Encoding: 108 108 36
Width: 594
Flags: HMW
HStem: -19 21G<295 350.5>
VStem: 196 283
LayerCount: 2
Fore
SplineSet
186 1276 m 1,0,1
 169 1373 169 1373 59 1386 c 1,2,3
 51.6808703799 1435.40412494 51.6808703799 1435.40412494 51.6808703799 1441.74467361 c 128,-1,4
 51.6808703799 1448.08522228 51.6808703799 1448.08522228 53 1456 c 1,5,6
 241.693386028 1530.12954451 241.693386028 1530.12954451 436.076417215 1530.12954451 c 0,7,8
 445.413706175 1530.12954451 445.413706175 1530.12954451 455 1530 c 1,9,10
 475.932038835 1503.08737864 475.932038835 1503.08737864 482.966019417 1404.54368932 c 128,-1,11
 490 1306 490 1306 490 946.5 c 128,-1,12
 490 587 490 587 479 0 c 1,13,14
 413 -19 413 -19 321 -19 c 128,-1,15
 229 -19 229 -19 178 2 c 1,16,17
 196 136 196 136 196 513 c 128,-1,18
 196 890 196 890 186 1276 c 1,0,1
EndSplineSet
EndChar

StartChar: p
Encoding: 112 112 37
Width: 1375
Flags: HMW
HStem: -671 21G<322 372> -41 135<681 747 644 847.5> 903 162<786.5 787.5>
VStem: 231 275 989 306<375 539.5>
LayerCount: 2
Fore
SplineSet
211 -649 m 1,0,1
 231 -450 231 -450 231 40.5909090909 c 128,-1,2
 231 531.181818182 231 531.181818182 203 801 c 1,3,4
 197 904 197 904 90 913 c 1,5,6
 89.0990093845 919.081686655 89.0990093845 919.081686655 87.6028075679 927.456921636 c 128,-1,7
 86.1066057513 935.832156618 86.1066057513 935.832156618 85.1473145039 941.220524747 c 0,8,9
 82.6808703799 955.074616447 82.6808703799 955.074616447 82.6808703799 964.915028161 c 128,-1,10
 82.6808703799 974.755439874 82.6808703799 974.755439874 84 983 c 1,11,12
 216.535302184 1034.27278114 216.535302184 1034.27278114 300.941409329 1045.69623152 c 128,-1,13
 385.347516474 1057.1196819 385.347516474 1057.1196819 423.775448236 1057.1196819 c 128,-1,14
 462.203379999 1057.1196819 462.203379999 1057.1196819 471 1057 c 1,15,16
 494 1022 494 1022 502 928 c 1,17,18
 571 991 571 991 663.5 1028 c 128,-1,19
 756 1065 756 1065 836.5 1065 c 128,-1,20
 917 1065 917 1065 976 1052.5 c 128,-1,21
 1035 1040 1035 1040 1092.5 1006.5 c 128,-1,22
 1150 973 1150 973 1191.5 920.5 c 0,23,24
 1295 789.56626506 1295 789.56626506 1295 549 c 0,25,26
 1295 434 1295 434 1259 335 c 128,-1,27
 1223 236 1223 236 1164.5 168 c 128,-1,28
 1106 100 1106 100 1031 52 c 0,29,30
 885.6875 -41 885.6875 -41 741.84375 -41 c 128,-1,31
 598 -41 598 -41 510 -12 c 1,32,33
 510 -201 510 -201 506 -655 c 1,34,35
 415 -671 415 -671 342.5 -671 c 128,-1,36
 270 -671 270 -671 211 -649 c 1,0,1
506 821 m 1,37,38
 510 571 510 571 510 117 c 1,39,40
 572 94 572 94 651.5 94 c 128,-1,41
 731 94 731 94 785 119.5 c 128,-1,42
 839 145 839 145 885.5 195 c 0,43,44
 989 306.290322581 989 306.290322581 989 530 c 0,45,46
 989 761.25 989 761.25 894 842.5 c 0,47,48
 823.261538462 903 823.261538462 903 718.443269231 903 c 128,-1,49
 613.625 903 613.625 903 506 821 c 1,37,38
EndSplineSet
EndChar

StartChar: n
Encoding: 110 110 38
Width: 1436
Flags: HMW
HStem: -36 173 -21 21G<327 379> 848 219 1038 20G<386 453>
VStem: 243 292 945 269
LayerCount: 2
Fore
SplineSet
935 217 m 1,0,-1
 945 598 l 1,1,2
 945 728 945 728 936.520706194 762.165449707 c 128,-1,3
 928.041412389 796.330899413 928.041412389 796.330899413 914.886794453 812.910412656 c 0,4,5
 886.968722602 848.097146639 886.968722602 848.097146639 832.857974302 848.097146639 c 128,-1,6
 778.747226002 848.097146639 778.747226002 848.097146639 740.907427328 835.634157204 c 0,7,8
 662.795292014 809.906992913 662.795292014 809.906992913 541 690 c 1,9,10
 541 560 541 560 535 -2 c 1,11,12
 424 -21 424 -21 350 -21 c 128,-1,13
 276 -21 276 -21 225 -2 c 1,14,15
 243 241 243 241 243 446.5 c 128,-1,16
 243 652 243 652 238 801 c 1,17,18
 238 877 238 877 184 891 c 1,19,20
 150 902 150 902 88 907 c 1,21,22
 82 933 82 933 82 948.5 c 128,-1,23
 82 964 82 964 86 977 c 1,24,25
 230 1058 230 1058 444 1058 c 0,26,27
 479 1058 479 1058 496 1057 c 1,28,29
 535 990 535 990 539 827 c 1,30,31
 726.032335665 1067.02483077 726.032335665 1067.02483077 977.009980832 1067.02483077 c 0,32,33
 1093.09813852 1067.02483077 1093.09813852 1067.02483077 1158.42955692 988.495344299 c 128,-1,34
 1223.76097532 909.965857828 1223.76097532 909.965857828 1233 776 c 0,35,36
 1237 715 1237 715 1237 654.236043696 c 128,-1,37
 1237 593.472087392 1237 593.472087392 1231.23937433 521.501659766 c 0,38,39
 1213.95749733 305.590376887 1213.95749733 305.590376887 1213.95749733 191.350784469 c 0,40,41
 1213.95749733 165.276016688 1213.95749733 165.276016688 1251.22682637 151.138008344 c 128,-1,42
 1288.4961554 137 1288.4961554 137 1323.7480777 137 c 128,-1,43
 1359 137 1359 137 1372 141 c 1,44,45
 1383.5 114.166666667 1383.5 114.166666667 1383.5 91.7083333333 c 128,-1,46
 1383.5 69.25 1383.5 69.25 1382 61 c 1,47,48
 1195 -36 1195 -36 1103 -36 c 128,-1,49
 1011 -36 1011 -36 973 26.5 c 128,-1,50
 935 89 935 89 935 217 c 1,0,-1
EndSplineSet
EndChar

StartChar: u
Encoding: 117 117 39
Width: 1372
Flags: HMW
HStem: -35 207<330 611> 1041 20G<372 465> 1045 20G<1027 1078.5>
VStem: 72 424<721.5 969> 203 268 874 293
LayerCount: 2
Fore
SplineSet
137.5 908 m 0,0,1
 72 908 72 908 72 965 c 0,2,3
 72 981 72 981 74 989 c 1,4,5
 109.01510574 1013.51057402 109.01510574 1013.51057402 245.00755287 1037.25528701 c 128,-1,6
 381 1061 381 1061 465 1061 c 1,7,8
 496 960 496 960 496 834 c 128,-1,9
 496 708 496 708 483.5 546.5 c 128,-1,10
 471 385 471 385 471 319 c 128,-1,11
 471 253 471 253 491 212.5 c 128,-1,12
 511 172 511 172 573.5 172 c 128,-1,13
 636 172 636 172 702.5 202.5 c 128,-1,14
 769 233 769 233 872 315 c 1,15,16
 872 623 872 623 874 1047 c 1,17,18
 989 1065 989 1065 1059.5 1065 c 128,-1,19
 1130 1065 1130 1065 1182 1047 c 1,20,21
 1167 828 1167 828 1167 626.5 c 128,-1,22
 1167 425 1167 425 1178 207 c 0,23,24
 1180 174 1180 174 1191 156 c 128,-1,25
 1202 138 1202 138 1248.5 135 c 128,-1,26
 1295 132 1295 132 1313 125 c 1,27,28
 1317 104 1317 104 1317 57 c 1,29,30
 1230 8 1230 8 1142 -13.5 c 128,-1,31
 1054 -35 1054 -35 993 -35 c 128,-1,32
 932 -35 932 -35 909.5 10 c 128,-1,33
 887 55 887 55 874 190 c 1,34,35
 630 -35 630 -35 408 -35 c 128,-1,36
 186 -35 186 -35 186 317 c 1,37,-1
 203 846 l 1,38,39
 203 880 203 880 182.5 894 c 128,-1,40
 162 908 162 908 137.5 908 c 0,0,1
EndSplineSet
EndChar

StartChar: q
Encoding: 113 113 40
Width: 1296
Flags: HMW
HStem: -671 21G<1016 1066> -41 156<611 638.5> 936 129<646.5 769.5>
VStem: 80 307<506 656 506 677> 882 269 882 295
LayerCount: 2
Fore
SplineSet
312.5 31.5 m 0,0,1
 80 167.555555556 80 167.555555556 80 492 c 0,2,3
 80 803.890243902 80 803.890243902 360 969.5 c 0,4,5
 521.463917526 1065 521.463917526 1065 725 1065 c 0,6,7
 961 1065 961 1065 1160.5 998.5 c 2,8,-1
 1183 991 l 1,9,-1
 1179 989 l 1,10,-1
 1181 989 l 1,11,12
 1151 763 1151 763 1151 287.5 c 128,-1,13
 1151 -188 1151 -188 1177 -649 c 1,14,15
 1118 -671 1118 -671 1045.5 -671 c 128,-1,16
 973 -671 973 -671 882 -655 c 1,17,18
 876 -253 876 -253 876 59 c 1,19,20
 749 -41 749 -41 592.696202532 -41 c 128,-1,21
 436.392405063 -41 436.392405063 -41 312.5 31.5 c 0,0,1
876 182 m 1,22,23
 876 725 876 725 880 803 c 1,24,-1
 884 922 l 1,25,26
 816 936 816 936 742.5 936 c 128,-1,27
 669 936 669 936 606 909.5 c 128,-1,28
 543 883 543 883 493.5 832 c 0,29,30
 387 722.272727273 387 722.272727273 387 515 c 0,31,32
 387 387.172413793 387 387.172413793 420 308.086206897 c 128,-1,33
 453 229 453 229 494 191 c 0,34,35
 576 115 576 115 680.157894737 115 c 128,-1,36
 784.315789474 115 784.315789474 115 876 182 c 1,22,23
EndSplineSet
EndChar

StartChar: m
Encoding: 109 109 41
Width: 2097
Flags: HMW
HStem: -41 21G<1715 1807.5> -21 158 -14 21G<1024 1074> 854 213 1039 20G<385.5 452.5>
VStem: 249 296 943 280 1613 261 1613 289<552 866>
LayerCount: 2
Fore
SplineSet
942 516 m 1,0,-1
 943 577 l 1,1,2
 943 742 943 742 913.5 798 c 128,-1,3
 884 854 884 854 803 854 c 0,4,5
 754 854 754 854 696 818.5 c 128,-1,6
 638 783 638 783 545 705 c 1,7,8
 546 644 546 644 546 418.5 c 128,-1,9
 546 193 546 193 545 0 c 1,10,11
 440 -21 440 -21 363 -21 c 128,-1,12
 286 -21 286 -21 236 -2 c 1,13,14
 249 225 249 225 249 410.5 c 128,-1,15
 249 596 249 596 242 799 c 1,16,17
 242 875 242 875 186 887 c 1,18,19
 152 898 152 898 90 903 c 1,20,21
 89.0990093845 909.081686655 89.0990093845 909.081686655 87.6028075679 917.456921636 c 128,-1,22
 86.1066057513 925.832156618 86.1066057513 925.832156618 85.1473145039 931.220524747 c 0,23,24
 82.6808703799 945.074616447 82.6808703799 945.074616447 82.6808703799 954.915028161 c 128,-1,25
 82.6808703799 964.755439874 82.6808703799 964.755439874 84 973 c 1,26,27
 233 1059 233 1059 443 1059 c 0,28,29
 462 1059 462 1059 498 1057 c 1,30,31
 521 1021 521 1021 529 951.5 c 128,-1,32
 537 882 537 882 541 854 c 1,33,34
 714.41412312 1011.93071927 714.41412312 1011.93071927 840.305769465 1049.85017667 c 0,35,36
 898.010815268 1067.23134603 898.010815268 1067.23134603 953.040374253 1067.23134603 c 128,-1,37
 1008.06993324 1067.23134603 1008.06993324 1067.23134603 1051.43353455 1056.6063251 c 128,-1,38
 1094.79713587 1045.98130417 1094.79713587 1045.98130417 1132.61805931 1022.86887424 c 0,39,40
 1213.34392292 973.537163227 1213.34392292 973.537163227 1221 858 c 1,41,42
 1405 1067 1405 1067 1628 1067 c 0,43,44
 1753.27777778 1067 1753.27777778 1067 1823.5 1003 c 0,45,46
 1902 931.455696203 1902 931.455696203 1902 722 c 0,47,48
 1902 636.355062812 1902 636.355062812 1887.97874867 477.590100342 c 128,-1,49
 1873.95749733 318.825137872 1873.95749733 318.825137872 1873.95749733 191.350784469 c 0,50,51
 1873.95749733 165.276016688 1873.95749733 165.276016688 1911.22682637 151.138008344 c 128,-1,52
 1948.4961554 137 1948.4961554 137 1983.7480777 137 c 128,-1,53
 2019 137 2019 137 2032 141 c 1,54,55
 2045.3137085 109.934680169 2045.3137085 109.934680169 2045.3137085 90.0236892706 c 128,-1,56
 2045.3137085 70.1126983722 2045.3137085 70.1126983722 2042 61 c 1,57,58
 1879 -41 1879 -41 1773 -41 c 0,59,60
 1600 -41 1600 -41 1600 235 c 1,61,-1
 1613 590 l 1,62,63
 1613 742 1613 742 1587 797 c 128,-1,64
 1561 852 1561 852 1493 852 c 0,65,66
 1364 852 1364 852 1223 731 c 1,67,68
 1229 104 1229 104 1241 16 c 1,69,70
 1134 -14 1134 -14 1067.5 -14 c 128,-1,71
 1001 -14 1001 -14 930 2 c 1,72,73
 929 22 929 22 929 65 c 1,74,-1
 942 516 l 1,0,-1
EndSplineSet
EndChar

StartChar: k
Encoding: 107 107 42
Width: 1354
Flags: HMW
HStem: -41 199<924.5 1206.5> -19 21G<312.5 363.5> 650 409<1027 1079.5 897 1090> 836 223<897 945>
VStem: 232 285
LayerCount: 2
Fore
SplineSet
1184 158 m 0,0,1
 1224 158 1224 158 1262 184 c 1,2,-1
 1303 117 l 1,3,4
 1235.8241206 16.2361809045 1235.8241206 16.2361809045 1130.5 -24 c 0,5,6
 1086 -41 1086 -41 1039 -41 c 128,-1,7
 992 -41 992 -41 947.5 -16.5 c 128,-1,8
 903 8 903 8 869 46 c 128,-1,9
 835 84 835 84 802.5 141 c 128,-1,10
 770 198 770 198 748 250.5 c 128,-1,11
 726 303 726 303 703.5 370.5 c 0,12,13
 677.461538462 448.615384615 677.461538462 448.615384615 643 584 c 1,14,15
 574 477 574 477 514 410 c 1,16,17
 514 294 514 294 510 0 c 1,18,19
 412 -19 412 -19 335.5 -19 c 128,-1,20
 259 -19 259 -19 207 2 c 1,21,22
 232 153 232 153 232 566 c 128,-1,23
 232 979 232 979 217 1276 c 1,24,25
 209 1372 209 1372 90 1386 c 1,26,27
 89.05246032 1392.39589284 89.05246032 1392.39589284 86.909876836 1404.18770919 c 0,28,29
 82.6808703799 1427.46225968 82.6808703799 1427.46225968 82.6808703799 1437.77374098 c 128,-1,30
 82.6808703799 1448.08522228 82.6808703799 1448.08522228 84 1456 c 1,31,32
 271.345576128 1530.12954451 271.345576128 1530.12954451 466.194729907 1530.12954451 c 0,33,34
 475.47847843 1530.12954451 475.47847843 1530.12954451 485 1530 c 1,35,36
 507.019417476 1501.68932039 507.019417476 1501.68932039 512.009708738 1416.84466019 c 128,-1,37
 517 1332 517 1332 517 1072 c 128,-1,38
 517 812 517 812 516 594 c 1,39,40
 626.917853231 800.536692223 626.917853231 800.536692223 712 892 c 0,41,42
 815.714379299 1003.49295775 815.714379299 1003.49295775 887.35718965 1031.24647887 c 128,-1,43
 959 1059 959 1059 1016 1059 c 0,44,45
 1115.753997 1059 1115.753997 1059 1178.43615027 1003.60465276 c 128,-1,46
 1241.11830355 948.209305519 1241.11830355 948.209305519 1241.11830355 854.54967472 c 128,-1,47
 1241.11830355 760.89004392 1241.11830355 760.89004392 1179.70194295 705.44502196 c 128,-1,48
 1118.28558235 650 1118.28558235 650 1033 650 c 0,49,50
 1015 650 1015 650 997 653 c 1,51,52
 997 767.2 997 767.2 953 814.5 c 0,53,54
 933 836 933 836 893.5 836 c 128,-1,55
 854 836 854 836 815 804.5 c 128,-1,56
 776 773 776 773 725 705 c 1,57,58
 863 458 863 458 989 308 c 128,-1,59
 1115 158 1115 158 1184 158 c 0,0,1
EndSplineSet
EndChar

StartChar: b
Encoding: 98 98 43
Width: 1331
Flags: HMW
HStem: -41 127<577.5 679 577.5 765> 909 156<736.5 791.5>
VStem: 190 285<636.5 809 482.5 873> 945 304
LayerCount: 2
Fore
SplineSet
475 809 m 1,0,-1
 475 552 l 2,1,2
 475 260 475 260 479 94 c 1,3,4
 528 86 528 86 598 86 c 0,5,6
 729 86 729 86 832 194.5 c 0,7,8
 945 313.533980583 945 313.533980583 945 550 c 0,9,10
 945 909 945 909 731 909 c 0,11,12
 674 909 674 909 616 885 c 128,-1,13
 558 861 558 861 475 809 c 1,0,-1
481 1376 m 1,14,-1
 482 1342 l 2,15,16
 482 1314 482 1314 481 1260 c 128,-1,17
 480 1206 480 1206 479 1119 c 128,-1,18
 478 1032 478 1032 477 954 c 1,19,20
 622 1065 622 1065 791 1065 c 0,21,22
 1022 1065 1022 1065 1136.5 938 c 128,-1,23
 1251 811 1251 811 1251 576 c 0,24,25
 1251 359.451612903 1251 359.451612903 1152 223.725806452 c 0,26,27
 958.905882353 -41 958.905882353 -41 598 -41 c 0,28,29
 346 -41 346 -41 174 10 c 1,30,31
 190 275 190 275 190 689 c 128,-1,32
 190 1103 190 1103 184 1292 c 1,33,34
 181 1342 181 1342 147 1371 c 128,-1,35
 113 1400 113 1400 59 1405 c 1,36,37
 51.6808703799 1454.40412494 51.6808703799 1454.40412494 51.6808703799 1460.57978241 c 128,-1,38
 51.6808703799 1466.75543987 51.6808703799 1466.75543987 53 1475 c 1,39,40
 242.019929295 1548.12449819 242.019929295 1548.12449819 430.796993139 1548.12449819 c 0,41,42
 439.787133624 1548.12449819 439.787133624 1548.12449819 449 1548 c 1,43,44
 471.595482546 1518.9486653 471.595482546 1518.9486653 481 1376 c 1,14,-1
EndSplineSet
EndChar

StartChar: d
Encoding: 100 100 44
Width: 1351
Flags: HMW
HStem: -35 154<594.5 631.5> 907 146<635.5 707 523.5 750.5>
VStem: 80 313 865 286
LayerCount: 2
Fore
SplineSet
1160 1347 m 2,0,-1
 1151 731 l 1,1,2
 1151 518 1151 518 1157 213 c 1,3,4
 1157 146 1157 146 1212 141 c 0,5,6
 1224 140 1224 140 1249 140 c 128,-1,7
 1274 140 1274 140 1288 139 c 1,8,9
 1299 120 1299 120 1299 99 c 128,-1,10
 1299 78 1299 78 1296 63 c 1,11,12
 1122 -35 1122 -35 1003 -35 c 1,13,14
 920 -22 920 -22 870 94 c 1,15,16
 799 26 799 26 730 -4.5 c 128,-1,17
 661 -35 661 -35 580 -35 c 128,-1,18
 499 -35 499 -35 432.5 -18.5 c 128,-1,19
 366 -2 366 -2 301 38 c 128,-1,20
 236 78 236 78 188 138 c 0,21,22
 80 273 80 273 80 502 c 0,23,24
 80 635 80 635 130 742 c 128,-1,25
 180 849 180 849 264 916 c 0,26,27
 435.76119403 1053 435.76119403 1053 677 1053 c 0,28,29
 746 1053 746 1053 868 1034 c 1,30,-1
 862 1298 l 1,31,32
 859 1348 859 1348 824.5 1377 c 128,-1,33
 790 1406 790 1406 737 1411 c 1,34,35
 729.68087038 1460.40412494 729.68087038 1460.40412494 729.68087038 1466.57978241 c 128,-1,36
 729.68087038 1472.75543987 729.68087038 1472.75543987 731 1481 c 1,37,38
 920.019929295 1554.12449819 920.019929295 1554.12449819 1107.80199704 1554.12449819 c 0,39,40
 1116.78713362 1554.12449819 1116.78713362 1554.12449819 1126 1554 c 1,41,42
 1140 1535 1140 1535 1150 1475 c 128,-1,43
 1160 1415 1160 1415 1160 1347 c 2,0,-1
727 907 m 0,44,45
 579 907 579 907 484.5 813 c 128,-1,46
 390 719 390 719 390 528 c 0,47,48
 390 397.058823529 390 397.058823529 420.5 314.529411765 c 128,-1,49
 451 232 451 232 488 194 c 0,50,51
 561.026315789 119 561.026315789 119 641.013157895 119 c 128,-1,52
 721 119 721 119 763 143 c 128,-1,53
 805 167 805 167 868 238 c 1,54,55
 875 370 875 370 875 559.5 c 128,-1,56
 875 749 875 749 872 895 c 1,57,58
 798 907 798 907 727 907 c 0,44,45
EndSplineSet
EndChar

StartChar: F
Encoding: 70 70 45
Width: 1194
Flags: HMW
HStem: -26 21G<308 379> 621 191 1092 362 1280 174
VStem: 227 304
LayerCount: 2
Fore
SplineSet
510 1280 m 1,0,1
 535.234546317 1163.29022328 535.234546317 1163.29022328 535.234546317 1008.16391225 c 0,2,3
 535.234546317 997.08549165 535.234546317 997.08549165 535 987 c 2,4,-1
 532 801 l 1,5,-1
 924 823 l 1,6,7
 940 804 940 804 940 745 c 128,-1,8
 940 686 940 686 930 629 c 1,9,10
 875 621 875 621 787 621 c 128,-1,11
 699 621 699 621 532 641 c 1,12,-1
 530 356 l 1,13,14
 530 159 530 159 557 0 c 1,15,16
 472 -26 472 -26 350.5 -26 c 128,-1,17
 229 -26 229 -26 197 0 c 1,18,19
 227 267 227 267 227 629 c 2,20,-1
 227 1176 l 2,21,22
 227 1244 227 1244 208.5 1267.5 c 128,-1,23
 190 1291 190 1291 139 1307 c 1,24,25
 124 1327 124 1327 124 1371.5 c 128,-1,26
 124 1416 124 1416 127 1434 c 1,27,28
 212 1435 212 1435 368 1436 c 128,-1,29
 524 1437 524 1437 601.5 1438 c 0,30,31
 819.067842605 1440.807327 819.067842605 1440.807327 1147 1454 c 1,32,33
 1163 1439.6 1163 1439.6 1163 1324.8 c 128,-1,34
 1163 1210 1163 1210 1132 1151 c 128,-1,35
 1101 1092 1101 1092 1015.86363636 1092 c 128,-1,36
 930.727272727 1092 930.727272727 1092 897 1145 c 1,37,-1
 897 1266 l 1,38,39
 605 1280 605 1280 510 1280 c 1,0,1
EndSplineSet
EndChar

StartChar: H
Encoding: 72 72 46
Width: 1563
Flags: HMW
HStem: -26 21G<338 385 1184.5 1233.5> 661 174 1424 20G<249.5 321.5> 1432 20G<1378 1378>
VStem: 229 308 1077 307<322 401 401 649 649 649 809 1022>
LayerCount: 2
Fore
SplineSet
1378 1452 m 1,0,1
 1399.88537537 1428.6555996 1399.88537537 1428.6555996 1399.88537537 1399.20991653 c 128,-1,2
 1399.88537537 1369.76423345 1399.88537537 1369.76423345 1395.91403153 1313.71537321 c 0,3,4
 1384 1145.56879249 1384 1145.56879249 1384 1022 c 2,5,-1
 1384 401 l 2,6,7
 1384 171 1384 171 1409 0 c 1,8,9
 1331 -26 1331 -26 1217.5 -26 c 128,-1,10
 1104 -26 1104 -26 1061 0 c 1,11,12
 1077 244 1077 244 1077 322 c 2,13,-1
 1077 649 l 1,14,-1
 524 674 l 1,15,16
 525.67032967 491.934065934 525.67032967 491.934065934 553 0 c 1,17,18
 475 -26 475 -26 361.5 -26 c 128,-1,19
 248 -26 248 -26 205 0 c 1,20,21
 229 211 229 211 229 322 c 2,22,-1
 229 1124 l 2,23,24
 229 1258.24137931 229 1258.24137931 195.5 1282.5 c 0,25,26
 181 1293 181 1293 161.5 1298.5 c 128,-1,27
 142 1304 142 1304 139 1305 c 1,28,29
 124 1325 124 1325 124 1370.5 c 128,-1,30
 124 1416 124 1416 127 1434 c 1,31,32
 177 1444 177 1444 288.5 1444 c 128,-1,33
 400 1444 400 1444 537 1434 c 1,34,35
 524 1079 524 1079 524 827 c 1,36,37
 587 835 587 835 725 835 c 128,-1,38
 863 835 863 835 1077 809 c 1,39,-1
 1077 1133 l 2,40,41
 1077 1258 1077 1258 1066.5 1391.5 c 2,42,-1
 1063 1436 l 1,43,-1
 1378 1452 l 1,0,1
EndSplineSet
EndChar

StartChar: I
Encoding: 73 73 47
Width: 743
Flags: HMW
HStem: -26 21G<345 414> 1424 20G<263 343.5>
VStem: 264 307<322 1124 1124 1205>
LayerCount: 2
Fore
SplineSet
264 322 m 2,0,-1
 264 1124 l 2,1,2
 264 1250 264 1250 191 1286.5 c 0,3,4
 182 1291 182 1291 162.5 1297 c 128,-1,5
 143 1303 143 1303 139 1305 c 1,6,7
 124 1325 124 1325 124 1370.5 c 128,-1,8
 124 1416 124 1416 127 1434 c 1,9,10
 177 1444 177 1444 306 1444 c 128,-1,11
 435 1444 435 1444 571 1434 c 1,12,-1
 571 319 l 2,13,14
 571 223.125 571 223.125 584 52.5 c 2,15,-1
 588 0 l 1,16,17
 503 -26 503 -26 385.5 -26 c 128,-1,18
 268 -26 268 -26 236 0 c 1,19,20
 264 211 264 211 264 322 c 2,0,-1
EndSplineSet
EndChar

StartChar: A
Encoding: 65 65 48
Width: 1427
Flags: HMW
HStem: -21 21G<1138.5 1199> 486 161 1434 20G
LayerCount: 2
Fore
SplineSet
1190.5 1295 m 128,-1,1
 1203 1253 1203 1253 1223.5 1081.5 c 128,-1,2
 1244 910 1244 910 1266 671 c 128,-1,3
 1288 432 1288 432 1302 301 c 128,-1,4
 1316 170 1316 170 1346 2 c 1,5,6
 1274 -21 1274 -21 1172.5 -21 c 128,-1,7
 1071 -21 1071 -21 1030 2 c 1,8,9
 988 122 988 122 967 477 c 1,10,-1
 559 496 l 1,11,12
 466 -4 466 -4 236 -33 c 0,13,14
 226.473546756 -34.002784552 226.473546756 -34.002784552 216.62383075 -34.002784552 c 0,15,16
 146.525640223 -34.002784552 146.525640223 -34.002784552 88.7628201115 8.69630382894 c 128,-1,17
 31 51.3953922099 31 51.3953922099 31 111 c 1,18,19
 113.978122929 166.877523858 113.978122929 166.877523858 184.526197458 266.894194856 c 128,-1,20
 255.074271988 366.910865853 255.074271988 366.910865853 301.786920599 481.622456839 c 128,-1,21
 348.499569211 596.334047825 348.499569211 596.334047825 381.603682913 723.733539748 c 0,22,23
 444.281839452 964.947226052 444.281839452 964.947226052 444.281839452 1171.65813276 c 0,24,25
 444.281839452 1243.24681095 444.281839452 1243.24681095 427.073296977 1277.16276176 c 128,-1,26
 409.864754502 1311.07871257 409.864754502 1311.07871257 356 1319 c 1,27,28
 340 1339 340 1339 340 1390 c 128,-1,29
 340 1441 340 1441 344 1454 c 1,30,31
 623 1439 623 1439 1069 1434 c 1,32,33
 1115 1420 1115 1420 1146.5 1378.5 c 128,-1,0
 1178 1337 1178 1337 1190.5 1295 c 128,-1,1
956 629 m 1,34,35
 951 735 951 735 945 896 c 128,-1,36
 939 1057 939 1057 937 1095.5 c 128,-1,37
 935 1134 935 1134 931 1168.5 c 128,-1,38
 927 1203 927 1203 923 1218 c 128,-1,39
 919 1233 919 1233 910.5 1245 c 0,40,41
 898.308571429 1262.21142857 898.308571429 1262.21142857 849.654285714 1268.10571429 c 128,-1,42
 801 1274 801 1274 625 1274 c 1,43,44
 625 1142.52941176 625 1142.52941176 610.5 949.764705882 c 128,-1,45
 596 757 596 757 582 647 c 1,46,-1
 620 647 l 2,47,48
 792 647 792 647 956 629 c 1,34,35
EndSplineSet
EndChar

StartChar: B
Encoding: 66 66 49
Width: 1454
Flags: HMW
HStem: -43 155<665.5 774 665.5 865.5> 648 155<752 801> 1321 155<665 690.5 498.5 780> 1455 20G<738 750>
VStem: 235 291 979 276<1040.5 1140> 1047 315<277 480.5>
LayerCount: 2
Fore
SplineSet
679 1476 m 1,0,-1
 750 1475 l 1,1,2
 1042.46010212 1468.42786287 1042.46010212 1468.42786287 1156 1366.5 c 0,3,4
 1255 1277.625 1255 1277.625 1255 1102 c 0,5,6
 1255 1013 1255 1013 1200.5 921 c 128,-1,7
 1146 829 1146 829 1063 768 c 1,8,9
 1188 748 1188 748 1275 650.5 c 128,-1,10
 1362 553 1362 553 1362 406 c 0,11,12
 1362 -43 1362 -43 698 -43 c 0,13,14
 520 -43 520 -43 283 -10 c 0,15,16
 240.103453201 -3.72245656593 240.103453201 -3.72245656593 226.81211162 101.980684239 c 0,17,18
 222.869317594 133.336865217 222.869317594 133.336865217 222.869317594 169.004644813 c 2,19,-1
 235 829 l 1,20,21
 235 1218.78378378 235 1218.78378378 195.5 1277.5 c 0,22,23
 177 1305 177 1305 129 1309 c 1,24,25
 114.933256084 1342.7601854 114.933256084 1342.7601854 114.933256084 1380.40214755 c 128,-1,26
 114.933256084 1418.0441097 114.933256084 1418.0441097 117 1427 c 1,27,-1
 117 1434 l 1,28,29
 192.192307692 1450.34615385 192.192307692 1450.34615385 355.596153846 1463.17307692 c 128,-1,30
 519 1476 519 1476 679 1476 c 1,0,-1
528 332 m 1,31,-1
 526 262 l 1,32,33
 526 145 526 145 567 119 c 1,34,35
 634 112 634 112 688.5 112 c 128,-1,36
 743 112 743 112 791.5 119 c 128,-1,37
 840 126 840 126 888.5 145 c 128,-1,38
 937 164 937 164 971 194.5 c 0,39,40
 1047 262.676470588 1047 262.676470588 1047 392.838235294 c 0,41,42
 1047 648 1047 648 685 648 c 0,43,44
 616 648 616 648 535 639 c 1,45,46
 535 521 535 521 528 332 c 1,31,-1
887 801 m 1,47,48
 979 937 979 937 979 1060 c 128,-1,49
 979 1183 979 1183 903 1252 c 128,-1,50
 827 1321 827 1321 666 1321 c 0,51,52
 588 1321 588 1321 504 1305 c 1,53,54
 527.17539267 1198.03664921 527.17539267 1198.03664921 530.087696335 1099.01832461 c 128,-1,55
 533 1000 533 1000 533.5 917 c 128,-1,56
 534 834 534 834 535 791 c 1,57,58
 675 803 675 803 753 803 c 128,-1,59
 831 803 831 803 887 801 c 1,47,48
EndSplineSet
EndChar

StartChar: C
Encoding: 67 67 50
Width: 1399
Flags: HMW
HStem: -35 180<795 904.5> 1036 439<665.5 1194> 1319 156<742.5 872.5>
VStem: 123 336<556 936> 1022 263
LayerCount: 2
Fore
SplineSet
1307 172 m 1,0,1
 1107.81132075 -35 1107.81132075 -35 799 -35 c 0,2,3
 507.525423729 -35 507.525423729 -35 321 142.5 c 0,4,5
 228 231 228 231 175.5 375.5 c 128,-1,6
 123 520 123 520 123 726.5 c 128,-1,7
 123 933 123 933 220 1108 c 128,-1,8
 317 1283 317 1283 492.5 1379 c 128,-1,9
 668 1475 668 1475 883.5 1475 c 128,-1,10
 1099 1475 1099 1475 1274 1393 c 1,11,12
 1292.375 1370.6875 1292.375 1370.6875 1292.375 1337.40625 c 128,-1,13
 1292.375 1304.125 1292.375 1304.125 1292 1294 c 2,14,-1
 1278 1073 l 1,15,16
 1223 1036 1223 1036 1171.5 1036 c 128,-1,17
 1120 1036 1120 1036 1090 1051.5 c 128,-1,18
 1060 1067 1060 1067 1046 1095 c 0,19,20
 1022 1143 1022 1143 1022 1191.5 c 128,-1,21
 1022 1240 1022 1240 1024 1278 c 1,22,23
 968 1319 968 1319 875.5 1319 c 128,-1,24
 783 1319 783 1319 726.5 1300.5 c 128,-1,25
 670 1282 670 1282 620 1240 c 128,-1,26
 570 1198 570 1198 535 1135 c 0,27,28
 459 998.2 459 998.2 459 762 c 0,29,30
 459 464 459 464 589.5 304.5 c 128,-1,31
 720 145 720 145 928 145 c 0,32,33
 1079 145 1079 145 1227 272 c 1,34,35
 1285 244 1285 244 1307 172 c 1,0,1
EndSplineSet
EndChar

StartChar: L
Encoding: 76 76 51
Width: 1348
Flags: HMW
HStem: 0 158 0 365 1439 20G<366.5 460.5>
VStem: 265 308
LayerCount: 2
Fore
SplineSet
266 287 m 1,0,-1
 264 1124 l 2,1,2
 264 1250 264 1250 191 1286.5 c 0,3,4
 182 1291 182 1291 162.5 1297 c 128,-1,5
 143 1303 143 1303 139 1305 c 1,6,7
 124 1325 124 1325 124 1370.5 c 128,-1,8
 124 1416 124 1416 127 1434 c 1,9,10
 249 1459 249 1459 372.5 1459 c 128,-1,11
 496 1459 496 1459 534.5 1456.5 c 128,-1,12
 573 1454 573 1454 576 1452.5 c 0,13,14
 589.918918919 1445.54054054 589.918918919 1445.54054054 588 1411 c 2,15,-1
 573 1022 l 1,16,-1
 573 309 l 2,17,18
 573 242 573 242 578 209 c 128,-1,19
 583 176 583 176 600 158 c 1,20,21
 667 163 667 163 802 172 c 128,-1,22
 937 181 937 181 1014 188 c 1,23,-1
 1028 313 l 1,24,25
 1040.765625 332.1484375 1040.765625 332.1484375 1075.8828125 348.57421875 c 128,-1,26
 1111 365 1111 365 1163.5 365 c 128,-1,27
 1216 365 1216 365 1245 335 c 0,28,29
 1296 282.24137931 1296 282.24137931 1296 100 c 0,30,31
 1296 23 1296 23 1278 2 c 1,32,33
 1192 0 1192 0 512 0 c 2,34,-1
 317 0 l 1,35,36
 297 7 297 7 281.5 49.5 c 128,-1,37
 266 92 266 92 266 168 c 2,38,-1
 266 287 l 1,0,-1
EndSplineSet
EndChar

StartChar: O
Encoding: 79 79 52
Width: 1737
Flags: HMW
HStem: -34 146<775.5 920> 1327 148<839 971>
VStem: 123 323<547 850 547 892> 1303 311<568.5 872>
LayerCount: 2
Fore
SplineSet
1486 268.5 m 128,-1,1
 1358 72 1358 72 1118 0 c 0,2,3
 1003 -34 1003 -34 868.5 -34 c 128,-1,4
 734 -34 734 -34 599 14.5 c 128,-1,5
 464 63 464 63 357.5 151.5 c 128,-1,6
 251 240 251 240 187 378 c 128,-1,7
 123 516 123 516 123 682 c 0,8,9
 123 992 123 992 266 1185 c 128,-1,10
 409 1378 409 1378 678 1450 c 0,11,12
 771 1475 771 1475 876.5 1475 c 128,-1,13
 982 1475 982 1475 1089 1446 c 128,-1,14
 1196 1417 1196 1417 1290.5 1357 c 128,-1,15
 1385 1297 1385 1297 1457.5 1214.5 c 0,16,17
 1614 1036.4137931 1614 1036.4137931 1614 750.706896552 c 128,-1,0
 1614 465 1614 465 1486 268.5 c 128,-1,1
724 155 m 128,-1,19
 806 112 806 112 897 112 c 128,-1,20
 988 112 988 112 1058.5 145 c 128,-1,21
 1129 178 1129 178 1174 232.5 c 128,-1,22
 1219 287 1219 287 1249 362 c 0,23,24
 1303 497 1303 497 1303 682 c 0,25,26
 1303 963 1303 963 1170 1145 c 128,-1,27
 1037 1327 1037 1327 844 1327 c 0,28,29
 768 1327 768 1327 696.5 1299 c 128,-1,30
 625 1271 625 1271 573.5 1209.5 c 128,-1,31
 522 1148 522 1148 495.5 1068.5 c 0,32,33
 446 920 446 920 446 761 c 128,-1,34
 446 602 446 602 482 480 c 128,-1,35
 518 358 518 358 580 278 c 128,-1,18
 642 198 642 198 724 155 c 128,-1,19
EndSplineSet
EndChar

StartChar: P
Encoding: 80 80 53
Width: 1393
Flags: HMW
HStem: -26 21G<326 395> 539 155<553 553> 1321 154<722 780 722 804>
VStem: 246 307<322 539 694 1012> 1004 296<919.5 1109>
LayerCount: 2
Fore
SplineSet
553 539 m 1,0,-1
 553 319 l 2,1,2
 553 238 553 238 565 59.5 c 2,3,-1
 569 0 l 1,4,5
 484 -26 484 -26 366.5 -26 c 128,-1,6
 249 -26 249 -26 217 0 c 1,7,8
 246 211 246 211 246 322 c 2,9,-1
 246 1124 l 2,10,11
 246 1213.22222222 246 1213.22222222 230 1238.11111111 c 128,-1,12
 214 1263 214 1263 209 1270.5 c 128,-1,13
 204 1278 204 1278 191.5 1285.5 c 128,-1,14
 179 1293 179 1293 174 1295.5 c 0,15,16
 163 1301 163 1301 139 1309 c 1,17,18
 118.614906832 1363.36024845 118.614906832 1363.36024845 125 1432 c 1,19,20
 406 1475 406 1475 722 1475 c 2,21,-1
 780 1475 l 1,22,23
 993.057939914 1470.94175353 993.057939914 1470.94175353 1141.5 1374 c 0,24,25
 1215 1326 1215 1326 1257.5 1247 c 128,-1,26
 1300 1168 1300 1168 1300 1071.5 c 128,-1,27
 1300 975 1300 975 1278 899 c 128,-1,28
 1256 823 1256 823 1202.5 755.5 c 128,-1,29
 1149 688 1149 688 1065.5 642 c 0,30,31
 885.679177074 542.937031681 885.679177074 542.937031681 553 539 c 1,0,-1
1004 1014 m 0,32,33
 1004 1321 1004 1321 690 1321 c 0,34,35
 603 1321 603 1321 528 1311 c 1,36,37
 553 1201 553 1201 553 1012 c 2,38,-1
 553 694 l 1,39,40
 879.798698528 705.172605078 879.798698528 705.172605078 959.5 824 c 0,41,42
 1004 890.345454545 1004 890.345454545 1004 1014 c 0,32,33
EndSplineSet
EndChar

StartChar: T
Encoding: 84 84 54
Width: 1415
Flags: HMW
HStem: -26 21G<670.5 719.5> 1083 351 1426 20G
VStem: 563 307<322 401 401 1264>
LayerCount: 2
Fore
SplineSet
1353.5 1113 m 128,-1,1
 1325 1083 1325 1083 1254 1083 c 128,-1,2
 1183 1083 1183 1083 1137 1135 c 1,3,-1
 1137 1276 l 1,4,5
 1020 1267 1020 1267 870 1264 c 1,6,-1
 870 401 l 2,7,8
 870 171 870 171 895 0 c 1,9,10
 817 -26 817 -26 698.5 -26 c 128,-1,11
 580 -26 580 -26 537 0 c 1,12,-1
 563 322 l 1,13,-1
 563 1264 l 1,14,-1
 279 1274 l 1,15,-1
 279 1135 l 1,16,17
 266.234375 1115.8515625 266.234375 1115.8515625 231.1171875 1099.42578125 c 128,-1,18
 196 1083 196 1083 143 1083 c 128,-1,19
 90 1083 90 1083 61.5 1113 c 128,-1,20
 33 1143 33 1143 21.5 1211 c 128,-1,21
 10 1279 10 1279 10 1352.5 c 128,-1,22
 10 1426 10 1426 29 1446 c 1,23,24
 282 1434 282 1434 671 1434 c 128,-1,25
 1060 1434 1060 1434 1386 1446 c 1,26,27
 1405 1426 1405 1426 1405 1354 c 128,-1,28
 1405 1282 1405 1282 1393.5 1212.5 c 128,-1,0
 1382 1143 1382 1143 1353.5 1113 c 128,-1,1
EndSplineSet
EndChar

StartChar: f
Encoding: 102 102 55
Width: 819
Flags: HMW
HStem: -19 21G<351 407> 791 149 1169 398<506 814> 1430 137<520 578.5>
VStem: 217 236 217 287 640 271<1299 1332>
LayerCount: 2
Fore
SplineSet
504 936 m 1,0,-1
 730 927 l 1,1,2
 759 927 759 927 772 928 c 0,3,4
 776 928 776 928 776 866.5 c 128,-1,5
 776 805 776 805 772 805 c 0,6,7
 655 791 655 791 504 791 c 1,8,9
 504 151 504 151 524 2 c 1,10,11
 473 -19 473 -19 381 -19 c 128,-1,12
 289 -19 289 -19 223 0 c 1,13,14
 213 476 213 476 213 803 c 1,15,16
 125 813 125 813 57 813 c 1,17,18
 52 821 52 821 52 872 c 128,-1,19
 52 923 52 923 57 928 c 1,20,21
 125 937 125 937 213 940 c 1,22,23
 217 1133 217 1133 219 1181 c 128,-1,24
 221 1229 221 1229 245 1303.5 c 128,-1,25
 269 1378 269 1378 305.5 1426.5 c 128,-1,26
 342 1475 342 1475 390 1507.5 c 0,27,28
 477.876923077 1567 477.876923077 1567 582.438461538 1567 c 128,-1,29
 687 1567 687 1567 756 1546 c 128,-1,30
 825 1525 825 1525 868 1473.5 c 128,-1,31
 911 1422 911 1422 911 1345.5 c 128,-1,32
 911 1269 911 1269 874 1219 c 128,-1,33
 837 1169 837 1169 756 1169 c 0,34,35
 719 1169 719 1169 688.5 1183 c 128,-1,36
 658 1197 658 1197 645.5 1209.5 c 128,-1,37
 633 1222 633 1222 633 1225 c 0,38,39
 640 1257 640 1257 640 1305 c 128,-1,40
 640 1353 640 1353 616 1391.5 c 128,-1,41
 592 1430 592 1430 548 1430 c 128,-1,42
 504 1430 504 1430 478.5 1398.5 c 128,-1,43
 453 1367 453 1367 453 1316 c 128,-1,44
 453 1265 453 1265 478.5 1161 c 128,-1,45
 504 1057 504 1057 504 1020 c 2,46,-1
 504 936 l 1,0,-1
EndSplineSet
EndChar

StartChar: r
Encoding: 114 114 56
Width: 1067
Flags: HMW
HStem: -21 21G<296.5 347.5> 656 409<835 886.5 754.5 898> 842 223<754.5 769> 1038 20G<351.5 418>
VStem: 209 291
LayerCount: 2
Fore
SplineSet
805.09375 671.169921875 m 1,0,1
 805.09375 842 805.09375 842 727 842 c 0,2,3
 670 842 670 842 618 809.5 c 128,-1,4
 566 777 566 777 506 719 c 1,5,6
 506 619 506 619 500 -2 c 1,7,8
 389 -21 389 -21 318.5 -21 c 128,-1,9
 248 -21 248 -21 197 -2 c 1,10,11
 209 164 209 164 209 567 c 2,12,-1
 209 801 l 2,13,14
 209 877 209 877 156 891 c 1,15,16
 120 902 120 902 59 907 c 1,17,18
 52.25 937.375 52.25 937.375 52.25 952.5 c 128,-1,19
 52.25 967.625 52.25 967.625 53 977 c 1,20,21
 197 1058 197 1058 409 1058 c 0,22,23
 444 1058 444 1058 461 1057 c 1,24,25
 490.368575624 1007.44052863 490.368575624 1007.44052863 495.684287812 953.220264317 c 128,-1,26
 501 899 501 899 504 850 c 1,27,28
 637.558573298 1012.8763089 637.558573298 1012.8763089 729.5 1048 c 0,29,30
 774 1065 774 1065 823 1065 c 0,31,32
 922.837230568 1065 922.837230568 1065 983.513958145 1009.32139915 c 128,-1,33
 1044.19068572 953.642798293 1044.19068572 953.642798293 1044.19068572 847.25777698 c 0,34,35
 1044.19068572 764.677204314 1044.19068572 764.677204314 984.332459653 710.030684016 c 0,36,37
 925.148802928 656 925.148802928 656 841 656 c 0,38,39
 823 656 823 656 805 659 c 1,40,-1
 805.09375 671.169921875 l 1,0,1
EndSplineSet
EndChar

StartChar: y
Encoding: 121 121 57
Width: 1282
Flags: HMW
HStem: -688 299<322.5 396 322.5 497> 1043 20G<202 270.5> 1045 20G<1063 1140>
LayerCount: 2
Fore
SplineSet
246 -283 m 1,0,1
 257 -324 257 -324 284.5 -356.5 c 128,-1,2
 312 -389 312 -389 352 -389 c 0,3,4
 417 -389 417 -389 473 -303.5 c 128,-1,5
 529 -218 529 -218 569 -63 c 1,6,7
 549 -6 549 -6 457.5 194 c 128,-1,8
 366 394 366 394 241.5 620.5 c 0,9,10
 103.091891892 872.302702703 103.091891892 872.302702703 38 894 c 0,11,12
 23.2142857143 898.928571429 23.2142857143 898.928571429 5.60714285714 899.964285714 c 128,-1,13
 -12 901 -12 901 -25.5 902 c 128,-1,14
 -39 903 -39 903 -43 903 c 1,15,16
 -50.3191296201 952.404124936 -50.3191296201 952.404124936 -50.3191296201 958.579782405 c 128,-1,17
 -50.3191296201 964.755439874 -50.3191296201 964.755439874 -49 973 c 1,18,19
 112 1063 112 1063 251 1063 c 0,20,21
 310 1063 310 1063 365 1040 c 128,-1,22
 420 1017 420 1017 508.5 806.5 c 128,-1,23
 597 596 597 596 709 186 c 1,24,25
 840 628 840 628 913 903 c 0,26,27
 934 983 934 983 987.5 1024 c 128,-1,28
 1041 1065 1041 1065 1092 1065 c 0,29,30
 1240 1065 1240 1065 1280 950 c 1,31,32
 1267.52238806 950 1267.52238806 950 1232.26119403 912.5 c 128,-1,33
 1197 875 1197 875 1155 810.5 c 128,-1,34
 1113 746 1113 746 1062.5 636 c 128,-1,35
 1012 526 1012 526 969.5 410 c 128,-1,36
 927 294 927 294 877 162.5 c 128,-1,37
 827 31 827 31 780.5 -88.5 c 128,-1,38
 734 -208 734 -208 677 -319 c 128,-1,39
 620 -430 620 -430 563 -510.5 c 128,-1,40
 506 -591 506 -591 435 -639.5 c 128,-1,41
 364 -688 364 -688 297.5 -688 c 128,-1,42
 231 -688 231 -688 187.5 -669.5 c 128,-1,43
 144 -651 144 -651 120.5 -619.5 c 0,44,45
 74 -557.170212766 74 -557.170212766 74 -483.585106383 c 128,-1,46
 74 -410 74 -410 123.5 -355 c 128,-1,47
 173 -300 173 -300 246 -283 c 1,0,1
EndSplineSet
EndChar

StartChar: x
Encoding: 120 120 58
Width: 1214
Flags: HMW
HStem: -20 21G<176.5 223.5> 1027 20G<292.5 355> 1034 20G<987.5 1034.5>
LayerCount: 2
Fore
SplineSet
82 930 m 1,0,1
 74.6808703799 977.574342531 74.6808703799 977.574342531 74.6808703799 982.250073921 c 0,2,3
 74.6808703799 991.085222279 74.6808703799 991.085222279 76 999 c 1,4,5
 203 1047 203 1047 335 1047 c 0,6,7
 381 1047 381 1047 457 1038 c 1,8,9
 480 1028 480 1028 500 1007 c 128,-1,10
 520 986 520 986 548.5 938.5 c 128,-1,11
 577 891 577 891 690 686 c 1,12,13
 810 910 810 910 862 1034 c 1,14,15
 939 1054 939 1054 1010 1054 c 128,-1,16
 1081 1054 1081 1054 1141 1036 c 1,17,18
 994 798 994 798 772 545 c 1,19,20
 948 245 948 245 1147 111 c 1,21,22
 1147 50.336081898 1147 50.336081898 1100.31200931 9.1532956168 c 128,-1,23
 1053.62401861 -32.0294906644 1053.62401861 -32.0294906644 988.341965744 -32.0294906644 c 0,24,25
 978.677212245 -32.0294906644 978.677212245 -32.0294906644 950.338606123 -30.5147453322 c 128,-1,26
 922 -29 922 -29 874.5 -2.5 c 128,-1,27
 827 24 827 24 788 61.5 c 128,-1,28
 749 99 749 99 704 162 c 0,29,30
 636.142857143 257 636.142857143 257 551 406 c 1,31,32
 529 368 529 368 461.5 227.5 c 128,-1,33
 394 87 394 87 348 0 c 1,34,35
 271 -20 271 -20 200.5 -20 c 128,-1,36
 130 -20 130 -20 70 -2 c 1,37,38
 128 104 128 104 267.5 286 c 128,-1,39
 407 468 407 468 473 543 c 1,40,41
 326.349932341 799.121244926 326.349932341 799.121244926 227 885 c 1,42,43
 171.285714286 930 171.285714286 930 82 930 c 1,0,1
EndSplineSet
EndChar

StartChar: s
Encoding: 115 115 59
Width: 1075
Flags: HMW
HStem: -35 119 -35 357 715 356<450.5 850> 950 121<494 591>
VStem: 147 252<778 865 778 873.5> 717 254<751 897> 717 287
LayerCount: 2
Fore
SplineSet
180.476878235 317.51403957 m 0,0,1
 203.039008646 322.076889394 203.039008646 322.076889394 246.470010317 322.076889394 c 128,-1,2
 289.901011988 322.076889394 289.901011988 322.076889394 362 287 c 1,3,4
 361.462850931 278.763714272 361.462850931 278.763714272 361.462850931 256.741248083 c 128,-1,5
 361.462850931 234.718781894 361.462850931 234.718781894 371.861574048 203.070011867 c 128,-1,6
 382.260297164 171.421241839 382.260297164 171.421241839 404.330519187 143.831901805 c 0,7,8
 452.235607074 83.9471504109 452.235607074 83.9471504109 562.01704803 83.9471504109 c 128,-1,9
 671.798488986 83.9471504109 671.798488986 83.9471504109 705.757959778 158.191657975 c 1,10,11
 735.275076552 225.597467921 735.275076552 225.597467921 696.107304268 298.723309066 c 0,12,13
 667.209965746 352.674352564 667.209965746 352.674352564 541.372929009 402.007769766 c 0,14,15
 520.204842839 410.306550899 520.204842839 410.306550899 483 424 c 0,16,17
 151 543 151 543 147 768 c 1,18,19
 147 870 147 870 204 939.5 c 0,20,21
 311.848920863 1071 311.848920863 1071 569 1071 c 0,22,23
 738 1071 738 1071 854.5 1001 c 128,-1,24
 971 931 971 931 971 829 c 0,25,26
 971 714.794578616 971 714.794578616 859.659767353 714.794578616 c 0,27,28
 781.198121348 714.794578616 781.198121348 714.794578616 749.099060674 732.397289308 c 128,-1,29
 717 750 717 750 717 752 c 0,30,31
 717.154871157 757.768950601 717.154871157 757.768950601 717.154527213 763.338902631 c 0,32,33
 717.154527213 950 717.154527213 950 535 950 c 0,34,35
 472 950 472 950 435.5 917.5 c 128,-1,36
 399 885 399 885 399 822.5 c 128,-1,37
 399 760 399 760 443.5 719 c 128,-1,38
 488 678 488 678 615.680526776 626.82778929 c 128,-1,39
 743.361053551 575.65557858 743.361053551 575.65557858 779.248160945 558.241581846 c 0,40,41
 1004 449.182143084 1004 449.182143084 1004 276 c 0,42,43
 1004 126 1004 126 877.5 45.5 c 128,-1,44
 751 -35 751 -35 541 -35 c 0,45,46
 402.467571952 -35 402.467571952 -35 331.347453901 -11.1515542609 c 128,-1,47
 260.22733585 12.6968914781 260.22733585 12.6968914781 223.78339842 32.9273566368 c 128,-1,48
 187.339460991 53.1578217956 187.339460991 53.1578217956 163.633303507 75.1985812966 c 128,-1,49
 139.927146023 97.2393407977 139.927146023 97.2393407977 123.842208995 120.977420848 c 0,50,51
 81.2282135662 183.866969806 81.2282135662 183.866969806 99.0192098076 248.569046349 c 0,52,53
 114.296718615 304.130102672 114.296718615 304.130102672 180.476878235 317.51403957 c 0,0,1
EndSplineSet
EndChar

StartChar: t
Encoding: 116 116 60
Width: 786
Flags: HMW
HStem: -35 202<336 601.5> 872 150 1309 20G<498 539>
VStem: 213 293<535 885>
LayerCount: 2
Fore
SplineSet
694 201 m 1,0,1
 729.628205128 167.916666667 729.628205128 167.916666667 735 133 c 1,2,3
 603 -35 603 -35 430 -35 c 0,4,5
 317 -35 317 -35 270.5 55 c 0,6,7
 229.731511254 133.906752412 229.731511254 133.906752412 221 326 c 1,8,9
 213 626 213 626 213 885 c 1,10,11
 111 889 111 889 88 895 c 1,12,13
 83 903 83 903 83 954 c 128,-1,14
 83 1005 83 1005 88 1010 c 1,15,-1
 215 1022 l 1,16,17
 215 1043 215 1043 221 1223 c 1,18,19
 271 1274 271 1274 367.5 1301.5 c 128,-1,20
 464 1329 464 1329 539 1329 c 1,21,22
 525 1202 525 1202 516 1022 c 1,23,24
 549 1021 549 1021 715 1010 c 1,25,26
 720 993 720 993 720 945 c 128,-1,27
 720 897 720 897 715 887 c 1,28,29
 623 875 623 875 510 872 c 1,30,31
 506 753 506 753 506 571.5 c 128,-1,32
 506 390 506 390 514 229 c 0,33,34
 517 167 517 167 576.5 167 c 128,-1,35
 636 167 636 167 694 201 c 1,0,1
EndSplineSet
EndChar

StartChar: j
Encoding: 106 106 61
Width: 758
Flags: HMW
HStem: -432 137<234 295 234 322> -432 391 1238 344<449.5 461.5>
VStem: -113 287<-185.5 -167> 277 350<1405 1416> 305 287<109 396 350 465.5> 356 236<-170 -137>
LayerCount: 2
Fore
SplineSet
-38.7286183133 -67.7537869753 m 0,0,1
 -1.23647087042 -40.7419687503 -1.23647087042 -40.7419687503 40.0211167112 -40.7419687503 c 128,-1,2
 81.2787042928 -40.7419687503 81.2787042928 -40.7419687503 114.154297202 -54.7592743191 c 128,-1,3
 147.029890111 -68.776579888 147.029890111 -68.776579888 161.514945056 -81.2126069857 c 128,-1,4
 176 -93.6486340833 176 -93.6486340833 176 -96 c 0,5,6
 174 -126 174 -126 174 -168.5 c 128,-1,7
 174 -211 174 -211 197 -253 c 128,-1,8
 220 -295 220 -295 264 -295 c 0,9,10
 356 -295 356 -295 356 -180 c 0,11,12
 356 -136 356 -136 330.5 -32 c 128,-1,13
 305 72 305 72 305 109 c 2,14,-1
 305 396 l 2,15,16
 305 666 305 666 301 793 c 1,17,18
 298 843 298 843 258.5 875.5 c 128,-1,19
 219 908 219 908 166 913 c 1,20,21
 158.68087038 962.404124936 158.68087038 962.404124936 158.68087038 968.579782405 c 128,-1,22
 158.68087038 974.755439874 158.68087038 974.755439874 160 983 c 1,23,24
 351.592385301 1057.1196819 351.592385301 1057.1196819 541.578969435 1057.1196819 c 0,25,26
 550.203379999 1057.1196819 550.203379999 1057.1196819 559 1057 c 1,27,28
 586 1022 586 1022 592 885 c 1,29,-1
 592 -8 l 2,30,31
 592 -272.446808511 592 -272.446808511 435 -376 c 0,32,33
 350.096774194 -432 350.096774194 -432 218.548387097 -432 c 128,-1,34
 87 -432 87 -432 -13 -373 c 128,-1,35
 -113 -314 -113 -314 -113 -199 c 0,36,37
 -113 -121.263793691 -113 -121.263793691 -38.7286183133 -67.7537869753 c 0,0,1
340 1532 m 1,38,39
 399 1582 399 1582 468 1582 c 128,-1,40
 537 1582 537 1582 582 1539.5 c 128,-1,41
 627 1497 627 1497 627 1420 c 128,-1,42
 627 1343 627 1343 569 1290.5 c 128,-1,43
 511 1238 511 1238 436.5 1238 c 128,-1,44
 362 1238 362 1238 319.5 1284 c 128,-1,45
 277 1330 277 1330 277 1402 c 128,-1,46
 277 1474 277 1474 340 1532 c 1,38,39
EndSplineSet
EndChar

StartChar: v
Encoding: 118 118 62
Width: 1178
Flags: HMW
HStem: -37 21G<623 668.5> 1030 20G<252.5 315> 1067 20G<945 1044.5>
VStem: 910 257<796.5 1018.5>
LayerCount: 2
Fore
SplineSet
979 1087 m 0,0,1
 1167 1087 1167 1087 1167 907 c 0,2,3
 1167 767.771186441 1167 767.771186441 1021 526.5 c 0,4,5
 832.781609195 215.46113384 832.781609195 215.46113384 733 -23 c 1,6,7
 697 -37 697 -37 653 -37 c 128,-1,8
 609 -37 609 -37 567 -20 c 128,-1,9
 525 -3 525 -3 509.5 18 c 128,-1,10
 494 39 494 39 441.5 170 c 128,-1,11
 389 301 389 301 331.5 444 c 128,-1,12
 274 587 274 587 203 720 c 128,-1,13
 132 853 132 853 84 883 c 0,14,15
 68 893 68 893 -12 899 c 1,16,17
 -13.1597507246 906.828317391 -13.1597507246 906.828317391 -15.0706904827 916.578180547 c 128,-1,18
 -16.9816302409 926.328043704 -16.9816302409 926.328043704 -17.861835398 931.454314413 c 0,19,20
 -21.3944190719 952.027904641 -21.3944190719 952.027904641 -18 969 c 1,21,22
 127 1050 127 1050 307 1050 c 0,23,24
 340 1050 340 1050 356 1049 c 1,25,26
 397 1006 397 1006 479 806.5 c 128,-1,27
 561 607 561 607 682 219 c 1,28,29
 897 844 897 844 907 944 c 0,30,31
 910 969 910 969 910 1000.75 c 128,-1,32
 910 1032.5 910 1032.5 891 1061 c 1,33,34
 891 1069.86363636 891 1069.86363636 920 1078.43181818 c 128,-1,35
 949 1087 949 1087 979 1087 c 0,0,1
EndSplineSet
EndChar

StartChar: w
Encoding: 119 119 63
Width: 1808
Flags: HMW
HStem: -41 21G<613 659 1249.5 1294.5> 1026 20G<256 321.5> 1043 20G<1580 1679.5>
VStem: 1544 244<772.5 993>
LayerCount: 2
Fore
SplineSet
1542 920 m 0,0,1
 1544 936 1544 936 1544 972.5 c 128,-1,2
 1544 1009 1544 1009 1526 1036 c 1,3,4
 1526 1045.86363636 1526 1045.86363636 1555 1054.43181818 c 128,-1,5
 1584 1063 1584 1063 1614 1063 c 0,6,7
 1703 1063 1703 1063 1745.5 1007 c 128,-1,8
 1788 951 1788 951 1788 886 c 128,-1,9
 1788 821 1788 821 1763 751 c 128,-1,10
 1738 681 1738 681 1692.5 600 c 128,-1,11
 1647 519 1647 519 1596 434.5 c 0,12,13
 1457.82207959 205.558151476 1457.82207959 205.558151476 1360 -27 c 1,14,15
 1324 -41 1324 -41 1280 -41 c 128,-1,16
 1236 -41 1236 -41 1196.5 -24 c 128,-1,17
 1157 -7 1157 -7 1139 16 c 1,18,19
 1093 82 1093 82 963 461 c 1,20,21
 908.451586656 363.835638731 908.451586656 363.835638731 830.225793328 196.417819365 c 128,-1,22
 752 29 752 29 725 -27 c 1,23,24
 689 -41 689 -41 644 -41 c 128,-1,25
 599 -41 599 -41 557 -24 c 128,-1,26
 515 -7 515 -7 499.5 14 c 128,-1,27
 484 35 484 35 431.5 166 c 128,-1,28
 379 297 379 297 321.5 440 c 128,-1,29
 264 583 264 583 193 716 c 128,-1,30
 122 849 122 849 74 879 c 0,31,32
 58 889 58 889 -23 895 c 1,33,34
 -30.3191296201 944.404124936 -30.3191296201 944.404124936 -30.3191296201 950.579782405 c 128,-1,35
 -30.3191296201 956.755439874 -30.3191296201 956.755439874 -29 965 c 1,36,37
 116 1046 116 1046 312 1046 c 0,38,39
 331 1046 331 1046 367 1044 c 1,40,41
 458.134360374 950.528861154 458.134360374 950.528861154 686 209 c 1,42,43
 815 475 815 475 887 680 c 1,44,45
 814 882 814 882 782 956 c 1,46,47
 879 1024 879 1024 956 1024 c 0,48,49
 1036.79032258 1024 1036.79032258 1024 1072.5 970 c 0,50,51
 1104.9711483 920.89728794 1104.9711483 920.89728794 1131.98557415 819.94864397 c 128,-1,52
 1159 719 1159 719 1178 643.5 c 0,53,54
 1225.0939314 456.363588391 1225.0939314 456.363588391 1313 209 c 1,55,56
 1532 819 1532 819 1542 920 c 0,0,1
EndSplineSet
EndChar

StartChar: D
Encoding: 68 68 64
Width: 1626
Flags: HMW
HStem: -25 138 1335 142 1460 20G<556.5 659>
VStem: 221 295 1174 329<536 954>
LayerCount: 2
Fore
SplineSet
219 629 m 1,0,-1
 225 953 l 1,1,2
 225 1051 225 1051 221.5 1128.5 c 128,-1,3
 218 1206 218 1206 203.5 1233.5 c 128,-1,4
 189 1261 189 1261 175 1269.5 c 128,-1,5
 161 1278 161 1278 147 1283 c 128,-1,6
 133 1288 133 1288 131 1288.5 c 0,7,8
 115 1292.5 115 1292.5 115 1341.75 c 128,-1,9
 115 1391 115 1391 119 1403 c 1,10,11
 466.925925926 1480 466.925925926 1480 645 1480 c 0,12,13
 1069.62962963 1480 1069.62962963 1480 1305 1275 c 0,14,15
 1503 1102.5483871 1503 1102.5483871 1503 791 c 0,16,17
 1503 541 1503 541 1384 354.5 c 128,-1,18
 1265 168 1265 168 1056.5 71.5 c 128,-1,19
 848 -25 848 -25 578 -25 c 0,20,21
 430 -25 430 -25 301 0 c 1,22,23
 235.021126761 27.4911971831 235.021126761 27.4911971831 226 138 c 0,24,25
 219 223.75 219 223.75 219 397 c 2,26,-1
 219 629 l 1,0,-1
526 1012 m 1,27,-1
 516 404 l 1,28,-1
 516 336 l 2,29,30
 516 145 516 145 551 117 c 1,31,32
 587 111 587 111 628 111 c 128,-1,33
 669 111 669 111 738 114.5 c 128,-1,34
 807 118 807 118 885.5 157 c 128,-1,35
 964 196 964 196 1030 269 c 128,-1,36
 1096 342 1096 342 1135 463.5 c 128,-1,37
 1174 585 1174 585 1174 724.5 c 128,-1,38
 1174 864 1174 864 1142.5 966 c 128,-1,39
 1111 1068 1111 1068 1060.5 1135 c 128,-1,40
 1010 1202 1010 1202 943.5 1248 c 0,41,42
 817.72826087 1335 817.72826087 1335 684.864130435 1335 c 128,-1,43
 552 1335 552 1335 502 1321 c 1,44,45
 526 1216 526 1216 526 1072 c 2,46,-1
 526 1012 l 1,27,-1
EndSplineSet
EndChar

StartChar: G
Encoding: 71 71 65
Width: 1513
Flags: HMW
HStem: -35 172<840.5 1005.5 840.5 1027> 1065 412<761.5 1251.5> 1325 152<799.5 929.5>
VStem: 123 326<543 940> 1079 271 1118 301<343 431>
LayerCount: 2
Fore
SplineSet
1119 290 m 1,0,-1
 1118 356 l 1,1,2
 1118 486.882352941 1118 486.882352941 1061.5 503.5 c 0,3,4
 1053 506 1053 506 1038 509.5 c 128,-1,5
 1023 513 1023 513 1016 516 c 1,6,7
 998 540 998 540 998 584 c 128,-1,8
 998 628 998 628 1001 643 c 1,9,10
 1068 650 1068 650 1168 650 c 128,-1,11
 1268 650 1268 650 1384 643 c 1,12,13
 1415 610 1415 610 1415 543 c 1,14,15
 1419 484 1419 484 1419 393 c 128,-1,16
 1419 302 1419 302 1411 180 c 1,17,18
 1372 88 1372 88 1229.5 26.5 c 128,-1,19
 1087 -35 1087 -35 897 -35 c 0,20,21
 671.563636364 -35 671.563636364 -35 481.5 66 c 0,22,23
 378 121 378 121 299.5 201.5 c 128,-1,24
 221 282 221 282 172 408 c 128,-1,25
 123 534 123 534 123 685 c 128,-1,26
 123 836 123 836 167.5 963 c 128,-1,27
 212 1090 212 1090 292 1184 c 128,-1,28
 372 1278 372 1278 482.5 1344 c 0,29,30
 705.174242424 1477 705.174242424 1477 1011 1477 c 0,31,32
 1171 1477 1171 1477 1339 1438 c 1,33,34
 1358.37306941 1416.04385467 1358.37306941 1416.04385467 1358.37306941 1382.55836439 c 128,-1,35
 1358.37306941 1349.07287412 1358.37306941 1349.07287412 1358 1339 c 2,36,-1
 1343 1102 l 1,37,38
 1280 1065 1280 1065 1229 1065 c 128,-1,39
 1178 1065 1178 1065 1147.5 1080 c 128,-1,40
 1117 1095 1117 1095 1103 1123 c 0,41,42
 1079 1171 1079 1171 1079 1219 c 128,-1,43
 1079 1267 1079 1267 1081 1305 c 1,44,45
 1027 1325 1027 1325 932.5 1325 c 128,-1,46
 838 1325 838 1325 776 1308 c 128,-1,47
 714 1291 714 1291 653.5 1249 c 128,-1,48
 593 1207 593 1207 548.5 1144 c 0,49,50
 449 1003.13483146 449 1003.13483146 449 756 c 0,51,52
 449 406.484848485 449 406.484848485 678 233 c 0,53,54
 804.72 137 804.72 137 956 137 c 0,55,56
 1028 137 1028 137 1059 147 c 128,-1,57
 1090 157 1090 157 1110 184 c 0,58,59
 1119 197 1119 197 1119 290 c 1,0,-1
EndSplineSet
EndChar

StartChar: Q
Encoding: 81 81 66
Width: 1737
Flags: HMW
HStem: -383 209 -268 94 -34 146<775.5 920> 1327 148<839 971>
VStem: 123 323<547 850 547 892> 1303 311<568.5 872>
LayerCount: 2
Fore
SplineSet
1310.54441141 -174.074997659 m 0,0,1
 1482.85169087 -174.074997659 1482.85169087 -174.074997659 1571 -51 c 1,2,3
 1596 -65 1596 -65 1611.5 -77 c 0,4,5
 1653 -109.129032258 1653 -109.129032258 1653 -168 c 0,6,7
 1653 -262 1653 -262 1578 -322.5 c 128,-1,8
 1503 -383 1503 -383 1404.5 -383 c 128,-1,9
 1306 -383 1306 -383 1226.5 -365 c 128,-1,10
 1147 -347 1147 -347 1096 -325.5 c 0,11,12
 959.604651163 -268 959.604651163 -268 745 -268 c 1,13,14
 721 -221 721 -221 721 -170 c 128,-1,15
 721 -119 721 -119 731 -100 c 1,16,17
 792 -89 792 -89 838.631367298 -89 c 128,-1,18
 885.262734596 -89 885.262734596 -89 922.517593292 -95.3018516785 c 128,-1,19
 959.772451988 -101.603703357 959.772451988 -101.603703357 988.102034016 -111.056480875 c 128,-1,20
 1016.43161604 -120.509258392 1016.43161604 -120.509258392 1051.62503472 -131.53749883 c 128,-1,21
 1086.81845339 -142.565739267 1086.81845339 -142.565739267 1120.77046971 -152.018516785 c 0,22,23
 1199.99184113 -174.074997659 1199.99184113 -174.074997659 1310.54441141 -174.074997659 c 0,0,1
1486 268.5 m 128,-1,25
 1358 72 1358 72 1118 0 c 0,26,27
 1003 -34 1003 -34 868.5 -34 c 128,-1,28
 734 -34 734 -34 599 14.5 c 128,-1,29
 464 63 464 63 357.5 151.5 c 128,-1,30
 251 240 251 240 187 378 c 128,-1,31
 123 516 123 516 123 682 c 0,32,33
 123 992 123 992 266 1185 c 128,-1,34
 409 1378 409 1378 678 1450 c 0,35,36
 771 1475 771 1475 876.5 1475 c 128,-1,37
 982 1475 982 1475 1089 1446 c 128,-1,38
 1196 1417 1196 1417 1290.5 1357 c 128,-1,39
 1385 1297 1385 1297 1457.5 1214.5 c 0,40,41
 1614 1036.4137931 1614 1036.4137931 1614 750.706896552 c 128,-1,24
 1614 465 1614 465 1486 268.5 c 128,-1,25
724 155 m 128,-1,43
 806 112 806 112 897 112 c 128,-1,44
 988 112 988 112 1058.5 145 c 128,-1,45
 1129 178 1129 178 1174 232.5 c 128,-1,46
 1219 287 1219 287 1249 362 c 0,47,48
 1303 497 1303 497 1303 682 c 0,49,50
 1303 963 1303 963 1170 1145 c 128,-1,51
 1037 1327 1037 1327 844 1327 c 0,52,53
 768 1327 768 1327 696.5 1299 c 128,-1,54
 625 1271 625 1271 573.5 1209.5 c 128,-1,55
 522 1148 522 1148 495.5 1068.5 c 0,56,57
 446 920 446 920 446 761 c 128,-1,58
 446 602 446 602 482 480 c 128,-1,59
 518 358 518 358 580 278 c 128,-1,42
 642 198 642 198 724 155 c 128,-1,43
EndSplineSet
EndChar

StartChar: J
Encoding: 74 74 67
Width: 850
Flags: HMW
HStem: -432 137<327 389 327 416> -432 397<80 416> 1424 20G<390 469>
VStem: -41 296<-177 -160> 399 287<-170 109> 451 235<-170 -137>
LayerCount: 2
Fore
SplineSet
399 109 m 0,0,1
 399 936.5 399 936.5 396 1049.75 c 128,-1,2
 393 1163 393 1163 386 1192.5 c 128,-1,3
 379 1222 379 1222 370.5 1239 c 128,-1,4
 362 1256 362 1256 345.5 1269 c 128,-1,5
 329 1282 329 1282 320 1286.5 c 128,-1,6
 311 1291 311 1291 291.5 1297 c 128,-1,7
 272 1303 272 1303 268 1305 c 1,8,9
 253 1325 253 1325 253 1370.5 c 128,-1,10
 253 1416 253 1416 256 1434 c 1,11,12
 306 1444 306 1444 432 1444 c 128,-1,13
 558 1444 558 1444 694 1434 c 1,14,-1
 684 946 l 1,15,16
 691 512 691 512 691 277 c 128,-1,17
 691 42 691 42 686 -8 c 1,18,19
 686 -272.446808511 686 -272.446808511 529 -376 c 0,20,21
 444.096774194 -432 444.096774194 -432 330 -432 c 0,22,23
 195.555555556 -432 195.555555556 -432 82.5 -377 c 0,24,25
 27 -350 27 -350 -7 -303.5 c 128,-1,26
 -41 -257 -41 -257 -41 -197 c 128,-1,27
 -41 -137 -41 -137 8 -86 c 128,-1,28
 57 -35 57 -35 133 -35 c 0,29,30
 208.052631579 -35 208.052631579 -35 242.5 -73.5 c 0,31,32
 256 -88.5882352941 256 -88.5882352941 255.5 -97.7941176471 c 128,-1,33
 255 -107 255 -107 255 -154.5 c 128,-1,34
 255 -202 255 -202 283.5 -248.5 c 128,-1,35
 312 -295 312 -295 358 -295 c 0,36,37
 451 -295 451 -295 451 -180 c 0,38,39
 451 -136 451 -136 425 -32 c 128,-1,40
 399 72 399 72 399 109 c 0,0,1
EndSplineSet
EndChar

StartChar: Z
Encoding: 90 90 68
Width: 1333
Flags: HMW
HStem: -19 21G<874.5 967> -18 21G<1000.5 1008> 0 139 1022 438<195.5 477> 1294 142
VStem: 72 277<1131 1177.5 1131 1292>
LayerCount: 2
Fore
SplineSet
1008 -18 m 1,0,-1
 958 -19 l 1,1,2
 894 -19 894 -19 626 -9.5 c 128,-1,3
 358 0 358 0 176 0 c 1,4,5
 156 33 156 33 156 96.5 c 0,6,7
 156 200 156 200 172 236 c 1,8,9
 670.927311221 892.920959774 670.927311221 892.920959774 926 1307 c 1,10,-1
 442 1282 l 1,11,12
 349 1282 349 1282 349 1142 c 0,13,14
 349 1110 349 1110 354 1077 c 0,15,16
 354 1074 354 1074 341 1062 c 0,17,18
 297.666666667 1022 297.666666667 1022 231 1022 c 0,19,20
 172.513513514 1022 172.513513514 1022 136.756756757 1049 c 0,21,22
 72 1097.89795918 72 1097.89795918 72 1198 c 0,23,24
 72 1460 72 1460 385 1460 c 0,25,26
 440 1460 440 1460 687.5 1448 c 128,-1,27
 935 1436 935 1436 1210 1436 c 0,28,29
 1218.14285714 1436 1218.14285714 1436 1225.57142857 1408 c 128,-1,30
 1233 1380 1233 1380 1233 1340.5 c 0,31,32
 1233 1265 1233 1265 1212 1223 c 1,33,34
 740 622 740 622 457 139 c 1,35,36
 752 144 752 144 912 194 c 128,-1,37
 1072 244 1072 244 1171 365 c 1,38,39
 1237 352 1237 352 1282 307 c 1,40,41
 1274 173 1274 173 1204.5 80.5 c 128,-1,42
 1135 -12 1135 -12 1008 -18 c 1,0,-1
EndSplineSet
EndChar

StartChar: R
Encoding: 82 82 69
Width: 1493
Flags: HMW
HStem: -53 21G<1210.5 1288.5> -26 21G<326 395> 1321 154<717 774 717 804>
VStem: 246 307<322 539 694 1124 1124 1205> 1004 296<961.5 1139>
LayerCount: 2
Fore
SplineSet
1312 143.5 m 128,-1,1
 1331 133 1331 133 1342.128 131.7664 c 128,-1,2
 1353.256 130.5328 1353.256 130.5328 1373.74450844 130.5328 c 128,-1,3
 1394.23301689 130.5328 1394.23301689 130.5328 1430 150 c 1,4,-1
 1462 78 l 1,5,6
 1395.23489933 -5.45637583893 1395.23489933 -5.45637583893 1297 -39 c 0,7,8
 1256 -53 1256 -53 1231 -53 c 0,9,10
 1135.81818182 -53 1135.81818182 -53 1070.90909091 -5 c 128,-1,11
 1006 43 1006 43 959 106 c 128,-1,12
 912 169 912 169 870 249.5 c 0,13,14
 792.475247525 398.089108911 792.475247525 398.089108911 750 551 c 1,15,16
 660 539 660 539 553 539 c 1,17,-1
 553 319 l 2,18,19
 553 238 553 238 565 59.5 c 2,20,-1
 569 0 l 1,21,22
 484 -26 484 -26 366.5 -26 c 128,-1,23
 249 -26 249 -26 217 0 c 1,24,25
 246 211 246 211 246 322 c 2,26,-1
 246 1124 l 2,27,28
 246 1213.22222222 246 1213.22222222 230 1238.11111111 c 128,-1,29
 214 1263 214 1263 209 1270.5 c 128,-1,30
 204 1278 204 1278 191.5 1285.5 c 128,-1,31
 179 1293 179 1293 174 1295.5 c 0,32,33
 163 1301 163 1301 139 1309 c 1,34,35
 124.200293906 1348.46588292 124.200293906 1348.46588292 124.200293906 1386.9345212 c 128,-1,36
 124.200293906 1425.40315949 124.200293906 1425.40315949 125 1434 c 1,37,38
 393 1475 393 1475 717 1475 c 2,39,-1
 774 1475 l 1,40,41
 987.157790537 1470.90081172 987.157790537 1470.90081172 1137.5 1370 c 0,42,43
 1212 1320 1212 1320 1256 1240 c 128,-1,44
 1300 1160 1300 1160 1300 1059 c 0,45,46
 1300 891 1300 891 1219.5 772.5 c 128,-1,47
 1139 654 1139 654 954 594 c 1,48,49
 1032.1509434 489.113207547 1032.1509434 489.113207547 1085.0754717 414.056603774 c 128,-1,50
 1138 339 1138 339 1171 295 c 128,-1,51
 1204 251 1204 251 1225.5 226 c 128,-1,52
 1247 201 1247 201 1270 177.5 c 128,-1,0
 1293 154 1293 154 1312 143.5 c 128,-1,1
1004 1057 m 0,53,54
 1004 1321 1004 1321 690 1321 c 0,55,56
 631 1321 631 1321 553 1313 c 1,57,-1
 553 694 l 1,58,59
 907.383982036 708.613772455 907.383982036 708.613772455 975.5 882 c 0,60,61
 1004 954.545454545 1004 954.545454545 1004 1057 c 0,53,54
EndSplineSet
EndChar

StartChar: U
Encoding: 85 85 70
Width: 1481
Flags: HMW
HStem: -35 156<741 948 741 999.5> 1424 20G<201.5 275.5> 1430 20G<1341 1341>
VStem: 179 312 1087 277
LayerCount: 2
Fore
SplineSet
1366 1354 m 2,0,1
 1367 1045 l 2,2,3
 1367 749.956521739 1367 749.956521739 1351.5 612.47826087 c 128,-1,4
 1336 475 1336 475 1315.5 384.5 c 128,-1,5
 1295 294 1295 294 1264 229 c 128,-1,6
 1233 164 1233 164 1188.5 112 c 128,-1,7
 1144 60 1144 60 1084 28.5 c 0,8,9
 963.047619048 -35 963.047619048 -35 805.902364008 -35 c 128,-1,10
 648.757108969 -35 648.757108969 -35 541.132757821 10.47559751 c 128,-1,11
 433.508406674 55.95119502 433.508406674 55.95119502 352.160954799 142.065050024 c 128,-1,12
 270.813502924 228.178905028 270.813502924 228.178905028 224.401149189 363.135343299 c 128,-1,13
 177.988795454 498.09178157 177.988795454 498.09178157 177.988795454 666.796777511 c 0,14,15
 177.988795454 669.393717402 177.988795454 669.393717402 178 672 c 2,16,-1
 180 1124 l 2,17,18
 180 1254.34482759 180 1254.34482759 144.5 1282.5 c 0,19,20
 126.482248521 1296.78994083 126.482248521 1296.78994083 92 1305 c 1,21,22
 73 1329.42857143 73 1329.42857143 73 1374.21428571 c 128,-1,23
 73 1419 73 1419 76 1434 c 1,24,25
 126 1444 126 1444 241.5 1444 c 128,-1,26
 357 1444 357 1444 494 1434 c 1,27,-1
 494 1260 l 1,28,-1
 492 750 l 2,29,30
 491 729 491 729 491 627 c 128,-1,31
 491 525 491 525 515.5 413 c 128,-1,32
 540 301 540 301 588.5 238 c 0,33,34
 678.571428571 121 678.571428571 121 854 121 c 0,35,36
 963.028985507 121 963.028985507 121 1017 187.5 c 0,37,38
 1087 273.75 1087 273.75 1087 647 c 2,39,-1
 1087 719 l 1,40,41
 1083.00953895 1211.82193959 1083.00953895 1211.82193959 1074 1380 c 2,42,-1
 1071 1436 l 1,43,-1
 1341 1450 l 1,44,45
 1366 1423 1366 1423 1366 1354 c 2,0,1
EndSplineSet
EndChar

StartChar: M
Encoding: 77 77 71
Width: 2120
Flags: HMW
HStem: -21 21G<1864 1923.5> 1419 20G<1601.5 1633.5> 1424 20G<469.5 528>
VStem: 469 160
LayerCount: 2
Fore
SplineSet
1831 1202 m 0,0,1
 1904.72727273 708.594405594 1904.72727273 708.594405594 1940.86363636 548.297202797 c 128,-1,2
 1977 388 1977 388 2012 243 c 128,-1,3
 2047 98 2047 98 2068 2 c 1,4,5
 1997 -21 1997 -21 1897.5 -21 c 128,-1,6
 1798 -21 1798 -21 1757 2 c 1,7,8
 1679.26865672 150.059701493 1679.26865672 150.059701493 1571 932 c 0,9,10
 1553 1062 1553 1062 1550 1081 c 1,11,12
 1364.91327119 642.636694926 1364.91327119 642.636694926 1299.65818783 297.730869992 c 0,13,14
 1275.7919162 171.5856614 1275.7919162 171.5856614 1275.7919162 120.55854858 c 128,-1,15
 1275.7919162 69.5314357591 1275.7919162 69.5314357591 1276 61 c 1,16,17
 1214 17 1214 17 1113 17 c 0,18,19
 1002.14285714 17 1002.14285714 17 977 61 c 1,20,21
 962 104 962 104 905 282.5 c 0,22,23
 751.971270718 761.721546961 751.971270718 761.721546961 633 1092 c 1,24,-1
 629 1034 l 1,25,26
 613.909589041 713.328767123 613.909589041 713.328767123 589.954794521 581.164383562 c 128,-1,27
 566 449 566 449 546 364.5 c 128,-1,28
 526 280 526 280 498.5 214.5 c 128,-1,29
 471 149 471 149 436.5 94 c 0,30,31
 356.207344236 -34.002784552 356.207344236 -34.002784552 236.799700587 -34.002784552 c 0,32,33
 137.569031193 -34.002784552 137.569031193 -34.002784552 78.8834894351 37.5182018701 c 0,34,35
 51 71.5002459911 51 71.5002459911 51 111 c 1,36,37
 136 168 136 168 207 267 c 128,-1,38
 278 366 278 366 323 475 c 128,-1,39
 368 584 368 584 401 707.5 c 0,40,41
 470 965.727272727 470 965.727272727 470 1155 c 0,42,43
 470 1216.71428571 470 1216.71428571 461 1235.35714286 c 128,-1,44
 452 1254 452 1254 448 1263.5 c 128,-1,45
 444 1273 444 1273 432 1281 c 128,-1,46
 420 1289 420 1289 416.5 1291 c 128,-1,47
 413 1293 413 1293 398 1298.5 c 128,-1,48
 383 1304 383 1304 381 1305 c 0,49,50
 365 1325 365 1325 365 1371.5 c 128,-1,51
 365 1418 365 1418 369 1434 c 1,52,53
 419 1444 419 1444 503.5 1444 c 128,-1,54
 588 1444 588 1444 725 1434 c 1,55,56
 773.39375 1423.9875 773.39375 1423.9875 1032 759 c 0,57,58
 1130 507 1130 507 1155 459 c 1,59,60
 1209 643 1209 643 1501 1432 c 1,61,62
 1601 1439 1601 1439 1632.5 1439 c 128,-1,63
 1664 1439 1664 1439 1702.5 1426.5 c 128,-1,64
 1741 1414 1741 1414 1779 1353 c 128,-1,65
 1817 1292 1817 1292 1831 1202 c 0,0,1
EndSplineSet
EndChar

StartChar: V
Encoding: 86 86 72
Width: 1397
Flags: HMW
HStem: -33 21G<753 802.5> 1417 20G<293.5 357> 1455 20G<1152 1251.5>
VStem: 1116 250<1183.5 1404.5>
LayerCount: 2
Fore
SplineSet
1114 1331 m 0,0,1
 1116 1347 1116 1347 1116 1384 c 128,-1,2
 1116 1421 1116 1421 1098 1448 c 1,3,4
 1098 1457.86363636 1098 1457.86363636 1127 1466.43181818 c 128,-1,5
 1156 1475 1156 1475 1186 1475 c 0,6,7
 1275 1475 1275 1475 1320.5 1418.5 c 128,-1,8
 1366 1362 1366 1362 1366 1279.5 c 128,-1,9
 1366 1197 1366 1197 1299.5 1025.5 c 128,-1,10
 1233 854 1233 854 1098.5 543.5 c 128,-1,11
 964 233 964 233 870 -29 c 1,12,13
 833 -33 833 -33 790 -33 c 0,14,15
 667 -33 667 -33 635 10 c 0,16,17
 617.339321357 35.2295409182 617.339321357 35.2295409182 477.169660679 436.114770459 c 0,18,19
 212.727069351 1192.42058166 212.727069351 1192.42058166 119 1251 c 0,20,21
 97.4716981132 1263.30188679 97.4716981132 1263.30188679 77.2358490566 1264.6509434 c 128,-1,22
 57 1266 57 1266 43.5 1267 c 128,-1,23
 30 1268 30 1268 27 1268 c 1,24,25
 6.55591054313 1317.97444089 6.55591054313 1317.97444089 12 1352 c 1,26,27
 164 1437 164 1437 350 1437 c 0,28,29
 379 1437 379 1437 393 1436 c 1,30,31
 426 1402 426 1402 552.5 1044.5 c 128,-1,32
 679 687 679 687 817 246 c 1,33,34
 1104 1231 1104 1231 1114 1331 c 0,0,1
EndSplineSet
EndChar

StartChar: W
Encoding: 87 87 73
Width: 2058
Flags: HMW
HStem: -34 21G<711 759.5 1430 1480> 1415 20G<296.5 361.5> 1455 20G<1791 1890.5>
VStem: 1755 273<1183.5 1404.5>
LayerCount: 2
Fore
SplineSet
872 1352 m 1,0,1
 967.453398306 1419.11567068 967.453398306 1419.11567068 1062.31540694 1419.11567068 c 0,2,3
 1171.9114056 1419.11567068 1171.9114056 1419.11567068 1225.02182985 1297.22848598 c 0,4,5
 1268.09173722 1198.38405331 1268.09173722 1198.38405331 1298.32391293 1033.94611875 c 128,-1,6
 1328.55608864 869.508184187 1328.55608864 869.508184187 1348.62905614 762.335473152 c 0,7,8
 1399.28462125 491.877493105 1399.28462125 491.877493105 1483 258 c 1,9,10
 1743 1231 1743 1231 1753 1331 c 0,11,12
 1755 1347 1755 1347 1755 1384 c 128,-1,13
 1755 1421 1755 1421 1737 1448 c 1,14,15
 1737 1457.86363636 1737 1457.86363636 1766 1466.43181818 c 128,-1,16
 1795 1475 1795 1475 1825 1475 c 0,17,18
 1916 1475 1916 1475 1972 1417 c 128,-1,19
 2028 1359 2028 1359 2028 1295 c 128,-1,20
 2028 1231 2028 1231 2001 1128 c 128,-1,21
 1974 1025 1974 1025 1910 858 c 128,-1,22
 1846 691 1846 691 1804 588 c 128,-1,23
 1762 485 1762 485 1665.5 258.5 c 128,-1,24
 1569 32 1569 32 1544 -27 c 1,25,26
 1509 -34 1509 -34 1459.5 -34 c 128,-1,27
 1410 -34 1410 -34 1363.5 -20.5 c 128,-1,28
 1317 -7 1317 -7 1300 16 c 0,29,30
 1277.18888606 48.7909762937 1277.18888606 48.7909762937 1182.09444303 403.395488147 c 128,-1,31
 1087 758 1087 758 1061 834 c 1,32,33
 1035 782 1035 782 994 606 c 128,-1,34
 953 430 953 430 907 241 c 128,-1,35
 861 52 861 52 823 -27 c 1,36,37
 788 -34 788 -34 740 -34 c 128,-1,38
 692 -34 692 -34 648 -20.5 c 128,-1,39
 604 -7 604 -7 589 14.5 c 128,-1,40
 574 36 574 36 514 224.5 c 128,-1,41
 454 413 454 413 387 626.5 c 128,-1,42
 320 840 320 840 241.5 1031.5 c 128,-1,43
 163 1223 163 1223 115 1253 c 0,44,45
 97.1463414634 1264.15853659 97.1463414634 1264.15853659 80.5731707317 1265.07926829 c 128,-1,46
 64 1266 64 1266 48 1267 c 128,-1,47
 32 1268 32 1268 27 1268 c 1,48,49
 11.0931651965 1306.88337396 11.0931651965 1306.88337396 11.0931651965 1327.60782822 c 128,-1,50
 11.0931651965 1348.33228248 11.0931651965 1348.33228248 12 1354 c 1,51,52
 157 1435 157 1435 353 1435 c 0,53,54
 387 1435 387 1435 403 1434 c 1,55,56
 423 1413 423 1413 472 1249.5 c 128,-1,57
 521 1086 521 1086 608.5 774 c 128,-1,58
 696 462 696 462 760 252 c 1,59,60
 899 897 899 897 971 1102 c 1,61,62
 929 1219 929 1219 872 1352 c 1,0,1
EndSplineSet
EndChar

StartChar: Y
Encoding: 89 89 74
Width: 1272
Flags: HMW
HStem: -26 21G<676.5 725.5> 1455 20G<1027 1126.5>
VStem: 553 305 991 250<1195 1404.5>
LayerCount: 2
Fore
SplineSet
858 401 m 1,0,1
 858 272.333333333 858 272.333333333 901 0 c 1,2,3
 825 -26 825 -26 705.5 -26 c 128,-1,4
 586 -26 586 -26 543 0 c 1,5,-1
 563 322 l 1,6,-1
 569 608 l 1,7,8
 364.798319328 975.56302521 364.798319328 975.56302521 304.899159664 1061.78151261 c 0,9,10
 195.557172557 1219.16770617 195.557172557 1219.16770617 145 1251 c 0,11,12
 126 1264 126 1264 47 1270 c 1,13,14
 29.7634408602 1318.01612903 29.7634408602 1318.01612903 33 1352 c 1,15,16
 115 1398 115 1398 179 1415.5 c 128,-1,17
 243 1433 243 1433 297 1433 c 128,-1,18
 351 1433 351 1433 367 1432 c 1,19,20
 371 1428 371 1428 397 1403.5 c 128,-1,21
 423 1379 423 1379 443 1357.5 c 128,-1,22
 463 1336 463 1336 502 1282 c 128,-1,23
 541 1228 541 1228 577 1163.5 c 0,24,25
 665.504615385 1004.92923077 665.504615385 1004.92923077 764 750 c 1,26,27
 980.457142857 1237.02857143 980.457142857 1237.02857143 989 1331 c 0,28,29
 991 1347 991 1347 991 1384 c 128,-1,30
 991 1421 991 1421 973 1448 c 1,31,32
 973 1457.86363636 973 1457.86363636 1002 1466.43181818 c 128,-1,33
 1031 1475 1031 1475 1061 1475 c 0,34,35
 1150 1475 1150 1475 1195.5 1418.5 c 128,-1,36
 1241 1362 1241 1362 1241 1300 c 128,-1,37
 1241 1238 1241 1238 1217.5 1180 c 128,-1,38
 1194 1122 1194 1122 1151.5 1060.5 c 128,-1,39
 1109 999 1109 999 1062 934.5 c 0,40,41
 931.893667861 755.949820789 931.893667861 755.949820789 854 586 c 1,42,-1
 858 401 l 1,0,1
EndSplineSet
EndChar

StartChar: N
Encoding: 78 78 75
Width: 1501
Flags: HMW
HStem: -17 21G<295 349> -10 21G<1276.5 1306> 1424 20G<226.5 283.5> 1426 20G<1249.5 1294>
VStem: 233 179 1156 222
LayerCount: 2
Fore
SplineSet
1378 4 m 1,0,1
 1316 -10 1316 -10 1288.5 -10 c 128,-1,2
 1261 -10 1261 -10 1153 2 c 1,3,4
 946 146 946 146 412 1147 c 1,5,6
 457.830508475 413.711864407 457.830508475 413.711864407 488 109 c 2,7,-1
 498 8 l 1,8,9
 409 -17 409 -17 323.5 -17 c 128,-1,10
 238 -17 238 -17 207 8 c 1,11,12
 233 166 233 166 233 825 c 0,13,14
 233 1167.45454545 233 1167.45454545 226.5 1208.22727273 c 128,-1,15
 220 1249 220 1249 207.5 1266 c 0,16,17
 189.579348615 1290.37208588 189.579348615 1290.37208588 165.789674308 1297.18604294 c 128,-1,18
 142 1304 142 1304 139 1305 c 1,19,20
 124 1325 124 1325 124 1370.5 c 128,-1,21
 124 1416 124 1416 127 1434 c 1,22,23
 177 1444 177 1444 259 1444 c 128,-1,24
 341 1444 341 1444 477 1434 c 1,25,26
 533 1409 533 1409 622 1288.5 c 128,-1,27
 711 1168 711 1168 790.5 1032 c 128,-1,28
 870 896 870 896 989.5 689.5 c 128,-1,29
 1109 483 1109 483 1182 367 c 1,30,-1
 1130 1423 l 1,31,32
 1206 1446 1206 1446 1274.5 1446 c 128,-1,33
 1343 1446 1343 1446 1378 1417 c 1,34,35
 1370 1317 1370 1317 1370 925 c 128,-1,36
 1370 533 1370 533 1378 4 c 1,0,1
EndSplineSet
EndChar

StartChar: X
Encoding: 88 88 76
Width: 1352
Flags: HMW
HStem: -33 21G<1105.5 1178.5> -28 21G<183.5 244> 1420 20G<283.5 351> 1436 20G<1067 1127.5>
LayerCount: 2
Fore
SplineSet
87 1274 m 1,0,-1
 49 1276 l 1,1,2
 45.5323502384 1279.46764976 45.5323502384 1279.46764976 39.6006940218 1301.37343002 c 128,-1,3
 33.6690378052 1323.27921028 33.6690378052 1323.27921028 33.6690378052 1337.20128613 c 128,-1,4
 33.6690378052 1351.12336199 33.6690378052 1351.12336199 35 1358 c 1,5,6
 178 1440 178 1440 337 1440 c 0,7,8
 380 1440 380 1440 424 1434 c 1,9,10
 530 1206 530 1206 729 883 c 1,11,12
 794 999 794 999 821 1049.5 c 128,-1,13
 848 1100 848 1100 900 1216.5 c 128,-1,14
 952 1333 952 1333 985 1442 c 1,15,16
 1041 1456 1041 1456 1081 1456 c 0,17,18
 1227 1456 1227 1456 1227 1290 c 0,19,20
 1227 1176.75342466 1227 1176.75342466 960.5 892 c 0,21,22
 924 853 924 853 877 804 c 128,-1,23
 830 755 830 755 817 741 c 1,24,25
 951 531 951 531 1321 -2 c 1,26,27
 1266 -33 1266 -33 1175 -33 c 0,28,29
 1001.8 -33 1001.8 -33 971 0 c 0,30,31
 921 54 921 54 598 565 c 1,32,33
 445.686746988 311.144578313 445.686746988 311.144578313 398.843373494 192.572289157 c 128,-1,34
 352 74 352 74 326 -14 c 1,35,36
 270 -28 270 -28 230 -28 c 0,37,38
 84 -28 84 -28 84 137 c 0,39,40
 84 221.208333333 84 221.208333333 215 379.5 c 0,41,42
 347 539 347 539 510 702 c 1,43,44
 283 1067 283 1067 257.5 1114.5 c 128,-1,45
 232 1162 232 1162 221 1179 c 128,-1,46
 210 1196 210 1196 200.5 1209 c 128,-1,47
 191 1222 191 1222 179.5 1232 c 128,-1,48
 168 1242 168 1242 160.5 1248.5 c 128,-1,49
 153 1255 153 1255 141 1260 c 0,50,51
 107.4 1274 107.4 1274 87 1274 c 1,0,-1
EndSplineSet
EndChar

StartChar: S
Encoding: 83 83 77
Width: 1239
Flags: HMW
HStem: -35 133<526 701.5 526 776.5> -35 430 1063 412<533.5 1054> 1358 117<591.5 727>
VStem: 115 268 166 217 166 272<984 1210> 866 277 866 301<246 486.5>
LayerCount: 2
Fore
SplineSet
114.933311369 278.447685106 m 0,0,1
 114.933311369 395.076906227 114.933311369 395.076906227 248.580845096 395.076906227 c 0,2,3
 317.161038846 395.076906227 317.161038846 395.076906227 383 360 c 1,4,5
 383 233 383 233 436 165.5 c 128,-1,6
 489 98 489 98 617.5 98 c 128,-1,7
 746 98 746 98 806 147 c 128,-1,8
 866 196 866 196 866 303 c 0,9,10
 866 416.555555556 866 416.555555556 777.5 498.5 c 0,11,12
 705.95 564.75 705.95 564.75 610.975 613.875 c 128,-1,13
 516 663 516 663 458 694.5 c 128,-1,14
 400 726 400 726 347.5 764 c 128,-1,15
 295 802 295 802 254.5 845.5 c 0,16,17
 166 940.555555556 166 940.555555556 166 1073.27777778 c 128,-1,18
 166 1206 166 1206 235 1297 c 0,19,20
 369.967032967 1475 369.967032967 1475 674 1475 c 0,21,22
 907.724137931 1475 907.724137931 1475 1031 1377.5 c 0,23,24
 1143 1288.91818182 1143 1288.91818182 1143 1180 c 0,25,26
 1143 1129 1143 1129 1108.5 1096 c 128,-1,27
 1074 1063 1074 1063 1002 1063 c 128,-1,28
 930 1063 930 1063 854 1100 c 1,29,30
 854.178945203 1106.6657088 854.178945203 1106.6657088 854.178945203 1113.2170253 c 0,31,32
 854.178945203 1224.25425635 854.178945203 1224.25425635 804.433098703 1291.12712817 c 128,-1,33
 754.687252204 1358 754.687252204 1358 654.843626102 1358 c 128,-1,34
 555 1358 555 1358 496.5 1302 c 128,-1,35
 438 1246 438 1246 438 1137 c 0,36,37
 438 1042.69047619 438 1042.69047619 530 971.5 c 0,38,39
 593.913043478 922.043478261 593.913043478 922.043478261 697.956521739 870.02173913 c 128,-1,40
 802 818 802 818 862.5 785.5 c 128,-1,41
 923 753 923 753 978 712.5 c 128,-1,42
 1033 672 1033 672 1075 624.5 c 0,43,44
 1167 520.452380952 1167 520.452380952 1167 384.726190476 c 128,-1,45
 1167 249 1167 249 1094 155.5 c 128,-1,46
 1021 62 1021 62 899 13.5 c 128,-1,47
 777 -35 777 -35 653.455151643 -35 c 128,-1,48
 529.910303286 -35 529.910303286 -35 445.116235509 -15.4226579442 c 128,-1,49
 360.322167731 4.15468411166 360.322167731 4.15468411166 301.025544952 36.3336935806 c 128,-1,50
 241.728922174 68.5127030495 241.728922174 68.5127030495 198.829110955 109.574412578 c 0,51,52
 114.933311369 189.875580705 114.933311369 189.875580705 114.933311369 278.447685106 c 0,0,1
EndSplineSet
EndChar

StartChar: E
Encoding: 69 69 78
Width: 1286
Flags: HMW
HStem: -20 174 -20 362 621 191 1092 362 1280 174
VStem: 201 307<528 641 801 987> 948 266<168 176 43 289 43 289 1257.5 1266 1266 1266>
LayerCount: 2
Fore
SplineSet
1183 283 m 128,-1,1
 1214 224 1214 224 1214 109.2 c 128,-1,2
 1214 -5.6 1214 -5.6 1198 -20 c 1,3,4
 844.288913774 -4.90257558791 844.288913774 -4.90257558791 549.644456887 -2.95128779395 c 128,-1,5
 255 -1 255 -1 172 0 c 1,6,7
 201 239 201 239 201 528 c 2,8,-1
 201 1176 l 2,9,10
 201 1263.25 201 1263.25 174 1288 c 0,11,12
 162 1299 162 1299 139 1307 c 1,13,14
 124 1327 124 1327 124 1371.5 c 128,-1,15
 124 1416 124 1416 127 1434 c 1,16,17
 216 1435 216 1435 377 1436 c 128,-1,18
 538 1437 538 1437 626.5 1438 c 0,19,20
 873.410055866 1440.78994413 873.410055866 1440.78994413 1198 1454 c 1,21,22
 1214 1439.6 1214 1439.6 1214 1324.8 c 128,-1,23
 1214 1210 1214 1210 1183 1151 c 128,-1,24
 1152 1092 1152 1092 1066.86363636 1092 c 128,-1,25
 981.727272727 1092 981.727272727 1092 948 1145 c 1,26,-1
 948 1266 l 1,27,28
 656 1280 656 1280 483 1280 c 1,29,30
 508.252971598 1170.0753001 508.252971598 1170.0753001 508.252971598 1009.83681921 c 0,31,32
 508.252971598 997.87777871 508.252971598 997.87777871 508 987 c 2,33,-1
 508 801 l 1,34,-1
 938 823 l 1,35,36
 954 804 954 804 954 746.5 c 128,-1,37
 954 689 954 689 944 629 c 1,38,39
 889 621 889 621 787.5 621 c 128,-1,40
 686 621 686 621 508 641 c 1,41,-1
 508 446 l 2,42,43
 508.252971598 435.12222129 508.252971598 435.12222129 508.252971598 423.163791291 c 0,44,45
 508.252971598 262.439230979 508.252971598 262.439230979 483 154 c 1,46,47
 656 154 656 154 948 168 c 1,48,-1
 948 289 l 1,49,50
 964.729411765 322.458823529 964.729411765 322.458823529 1026 336.5 c 0,51,52
 1050 342 1050 342 1079 342 c 0,53,0
 1152 342 1152 342 1183 283 c 128,-1,1
EndSplineSet
EndChar

StartChar: acute
Encoding: 180 180 79
Width: 561
Flags: HMW
HStem: 1169 21G 1598 20G
LayerCount: 2
Fore
SplineSet
129 1219 m 1,0,1
 181.577689243 1413.73218238 181.577689243 1413.73218238 218.788844622 1482.36609119 c 128,-1,2
 256 1551 256 1551 280 1576.5 c 0,3,4
 317.029315961 1615.84364821 317.029315961 1615.84364821 358 1618 c 1,5,6
 419 1616 419 1616 464.5 1587.5 c 128,-1,7
 510 1559 510 1559 526 1509 c 1,8,9
 449 1450 449 1450 227 1169 c 1,10,11
 165 1185 165 1185 129 1219 c 1,0,1
EndSplineSet
EndChar

StartChar: acute.case
Encoding: 65537 -1 80
Width: 721
Flags: HMW
HStem: 1546 21G 1877 20G<463.5 506>
LayerCount: 2
Fore
SplineSet
115 1634 m 1,0,1
 362 1897 362 1897 497 1897 c 0,2,3
 544.520689059 1897 544.520689059 1897 591.355597717 1847.68269129 c 0,4,5
 637.153148243 1799.45772401 637.153148243 1799.45772401 637.153148243 1739.07996893 c 0,6,7
 637.153148243 1726.56003142 637.153148243 1726.56003142 635 1714 c 1,8,9
 600.7208413 1710.19120459 600.7208413 1710.19120459 472.86042065 1664.09560229 c 128,-1,10
 345 1618 345 1618 178 1546 c 1,11,12
 129 1590 129 1590 115 1634 c 1,0,1
EndSplineSet
EndChar

StartChar: grave
Encoding: 96 96 81
Width: 856
Flags: HMW
HStem: 1169 21G 1598 20G
LayerCount: 2
Fore
SplineSet
621 1219 m 1,0,1
 585 1185 585 1185 522 1169 c 1,2,3
 303 1448 303 1448 223 1509 c 1,4,5
 240 1559 240 1559 285 1587.5 c 128,-1,6
 330 1616 330 1616 391 1618 c 1,7,8
 479.719883183 1614.45120467 479.719883183 1614.45120467 554 1426.5 c 0,9,10
 587 1343 587 1343 621 1219 c 1,0,1
EndSplineSet
EndChar

StartChar: grave.case
Encoding: 65538 -1 82
Width: 926
Flags: HMW
HStem: 1548 21G 1878 20G<319 361.5>
LayerCount: 2
Fore
SplineSet
709 1636 m 1,0,1
 693 1589 693 1589 645 1548 c 1,2,3
 310.300723258 1692.30148458 310.300723258 1692.30148458 219 1708.5 c 2,4,-1
 188 1714 l 1,5,6
 185.848604442 1726.54980742 185.848604442 1726.54980742 185.848604442 1755.20264918 c 128,-1,7
 185.848604442 1783.85549094 185.848604442 1783.85549094 212.137374147 1822.95359983 c 128,-1,8
 238.426143852 1862.05170872 238.426143852 1862.05170872 270.713071926 1880.02585436 c 128,-1,9
 303 1898 303 1898 328 1898 c 0,10,11
 465 1898 465 1898 709 1636 c 1,0,1
EndSplineSet
EndChar

StartChar: circumflex
Encoding: 710 710 83
Width: 776
Flags: HMW
HStem: 1174 21G<612 612> 1582 20G<365.5 426>
LayerCount: 2
Fore
SplineSet
45 1239 m 1,0,1
 121 1372 121 1372 235 1487 c 128,-1,2
 349 1602 349 1602 395 1602 c 128,-1,3
 441 1602 441 1602 554.5 1479 c 128,-1,4
 668 1356 668 1356 721 1251 c 1,5,6
 710 1227 710 1227 675.5 1203.5 c 128,-1,7
 641 1180 641 1180 612 1174 c 1,8,-1
 389 1399 l 1,9,-1
 154 1180 l 1,10,11
 127 1185 127 1185 89.5 1204 c 128,-1,12
 52 1223 52 1223 45 1239 c 1,0,1
EndSplineSet
EndChar

StartChar: dieresis
Encoding: 168 168 84
Width: 924
Flags: HMW
HStem: 1225 292<257 265.5> 1517 20G
VStem: 110 299<1368 1376.5> 524 299<1388.5 1397.5>
LayerCount: 2
Fore
SplineSet
370.5 1482 m 128,-1,1
 409 1447 409 1447 409 1385.5 c 128,-1,2
 409 1324 409 1324 362 1274.5 c 128,-1,3
 315 1225 315 1225 252.5 1225 c 128,-1,4
 190 1225 190 1225 150 1261 c 128,-1,5
 110 1297 110 1297 110 1361.5 c 128,-1,6
 110 1426 110 1426 164 1477 c 1,7,8
 213 1517 213 1517 272.5 1517 c 128,-1,0
 332 1517 332 1517 370.5 1482 c 128,-1,1
784 1502 m 128,-1,10
 823 1467 823 1467 823 1406 c 128,-1,11
 823 1345 823 1345 776 1295 c 128,-1,12
 729 1245 729 1245 662 1245 c 128,-1,13
 595 1245 595 1245 559.5 1285 c 128,-1,14
 524 1325 524 1325 524 1386.5 c 128,-1,15
 524 1448 524 1448 578 1497 c 1,16,17
 627 1537 627 1537 686 1537 c 128,-1,9
 745 1537 745 1537 784 1502 c 128,-1,10
EndSplineSet
EndChar

StartChar: tilde
Encoding: 732 732 85
Width: 1081
Flags: HMW
HStem: 1233 188<648.5 755 648.5 758.5> 1321 100 1321 170<381 401.5> 1481 20G
LayerCount: 2
Fore
SplineSet
887 1501 m 1,0,1
 923.765957447 1487.21276596 923.765957447 1487.21276596 944 1440 c 1,2,3
 911 1336 911 1336 850.5 1284.5 c 128,-1,4
 790 1233 790 1233 710.5 1233 c 128,-1,5
 631 1233 631 1233 516 1277 c 128,-1,6
 401 1321 401 1321 352.5 1321 c 128,-1,7
 304 1321 304 1321 254.5 1296 c 128,-1,8
 205 1271 205 1271 182 1233 c 1,9,10
 157 1244 157 1244 125 1294 c 1,11,12
 157 1395 157 1395 219 1442 c 128,-1,13
 281 1489 281 1489 369.5 1490 c 128,-1,14
 458 1491 458 1491 554 1456 c 128,-1,15
 650 1421 650 1421 719 1421 c 0,16,17
 825 1421 825 1421 887 1501 c 1,0,1
EndSplineSet
EndChar

StartChar: caron
Encoding: 711 711 86
Width: 772
Flags: HMW
HStem: 1176 21G<365.5 426> 1582 20G<152 152>
LayerCount: 2
Fore
SplineSet
47 1546 m 1,0,1
 54 1562 54 1562 88.5 1579 c 128,-1,2
 123 1596 123 1596 152 1602 c 1,3,-1
 389 1380 l 1,4,-1
 616 1595 l 1,5,6
 644 1589 644 1589 672 1568 c 128,-1,7
 700 1547 700 1547 713 1522 c 1,8,9
 659 1416 659 1416 550 1296 c 128,-1,10
 441 1176 441 1176 395 1176 c 128,-1,11
 349 1176 349 1176 236.5 1294 c 128,-1,12
 124 1412 124 1412 47 1546 c 1,0,1
EndSplineSet
EndChar

StartChar: ring
Encoding: 730 730 87
Width: 711
Flags: HMW
HStem: 1159 123<328.5 376.5 328.5 391> 1464 125<309.5 365.5>
VStem: 106 148<1337.5 1395.5 1337.5 1436.5> 432 146<1349.5 1398.5>
LayerCount: 2
Fore
SplineSet
513.5 1533 m 128,-1,1
 578 1477 578 1477 578 1377.5 c 128,-1,2
 578 1278 578 1278 505.5 1218.5 c 128,-1,3
 433 1159 433 1159 334 1159 c 128,-1,4
 235 1159 235 1159 170.5 1217 c 128,-1,5
 106 1275 106 1275 106 1372.5 c 128,-1,6
 106 1470 106 1470 180.5 1529.5 c 128,-1,7
 255 1589 255 1589 352 1589 c 128,-1,0
 449 1589 449 1589 513.5 1533 c 128,-1,1
275.5 1437.5 m 128,-1,9
 254 1411 254 1411 254 1368 c 128,-1,10
 254 1325 254 1325 283 1303.5 c 128,-1,11
 312 1282 312 1282 349.5 1282 c 128,-1,12
 387 1282 387 1282 409.5 1309 c 128,-1,13
 432 1336 432 1336 432 1374 c 128,-1,14
 432 1412 432 1412 405.5 1438 c 128,-1,15
 379 1464 379 1464 338 1464 c 128,-1,8
 297 1464 297 1464 275.5 1437.5 c 128,-1,9
EndSplineSet
EndChar

StartChar: cedilla
Encoding: 184 184 88
Width: 637
Flags: HMW
HStem: -477 110<180 247.5 166 272> -367 148<171.5 226.5 171.5 247.5> -10 20G<193 295 295 295>
VStem: 346 174<-323.5 -263>
LayerCount: 2
Fore
SplineSet
221 -367 m 0,0,1
 346 -367 346 -367 346 -293 c 0,2,3
 346 -265 346 -265 320.5 -247.5 c 0,4,5
 278.971428571 -219 278.971428571 -219 193 -219 c 0,6,7
 140 -219 140 -219 113 -166 c 1,8,-1
 193 10 l 1,9,-1
 295 10 l 1,10,-1
 219 -131 l 1,11,12
 224.994704601 -130.744906187 224.994704601 -130.744906187 239.762880304 -130.744906187 c 128,-1,13
 254.531056007 -130.744906187 254.531056007 -130.744906187 278.807236547 -132.763026951 c 128,-1,14
 303.083417088 -134.781147715 303.083417088 -134.781147715 337.924374268 -140.059174632 c 128,-1,15
 372.765331448 -145.337201548 372.765331448 -145.337201548 403.037615179 -156.929756706 c 128,-1,16
 433.309898909 -168.522311864 433.309898909 -168.522311864 460.654353718 -185.153529552 c 0,17,18
 520 -221.248246711 520 -221.248246711 520 -281.124123356 c 128,-1,19
 520 -341 520 -341 487.5 -379 c 128,-1,20
 455 -417 455 -417 406.5 -437 c 0,21,22
 309.5 -477 309.5 -477 242.75 -477 c 128,-1,23
 176 -477 176 -477 127 -466 c 128,-1,24
 78 -455 78 -455 41 -427.5 c 128,-1,25
 4 -400 4 -400 4 -363.5 c 128,-1,26
 4 -327 4 -327 28.5 -310 c 128,-1,27
 53 -293 53 -293 84 -293 c 0,28,29
 85 -293 85 -293 89 -300.5 c 128,-1,30
 93 -308 93 -308 102.5 -319 c 128,-1,31
 112 -330 112 -330 126 -341 c 0,32,33
 159.090909091 -367 159.090909091 -367 221 -367 c 0,0,1
EndSplineSet
EndChar

StartChar: circumflex.case
Encoding: 65539 -1 89
Width: 961
Flags: HMW
HStem: 1565 21G<758 758> 1913 20G<451.5 512>
LayerCount: 2
Fore
SplineSet
115 1665 m 1,0,1
 396.118881119 1933 396.118881119 1933 481 1933 c 0,2,3
 526 1933 526 1933 631 1855.5 c 128,-1,4
 736 1778 736 1778 852 1665 c 1,5,6
 845 1639 845 1639 816 1609 c 128,-1,7
 787 1579 787 1579 758 1565 c 1,8,-1
 473 1743 l 1,9,-1
 201 1569 l 1,10,11
 178 1579 178 1579 150 1608.5 c 128,-1,12
 122 1638 122 1638 115 1665 c 1,0,1
EndSplineSet
EndChar

StartChar: dieresis.case
Encoding: 65540 -1 90
Width: 993
Flags: HMW
HStem: 1604 292<288 297> 1896 20G
VStem: 141 299<1747 1755.5> 586 298<1767 1775.5>
LayerCount: 2
Fore
SplineSet
401 1860.5 m 128,-1,1
 440 1825 440 1825 440 1764 c 128,-1,2
 440 1703 440 1703 393.5 1653.5 c 128,-1,3
 347 1604 347 1604 284 1604 c 128,-1,4
 221 1604 221 1604 181 1640 c 128,-1,5
 141 1676 141 1676 141 1741 c 128,-1,6
 141 1806 141 1806 195 1855 c 1,7,8
 245 1896 245 1896 303.5 1896 c 128,-1,0
 362 1896 362 1896 401 1860.5 c 128,-1,1
845.5 1881 m 128,-1,10
 884 1846 884 1846 884 1784.5 c 128,-1,11
 884 1723 884 1723 837 1673.5 c 128,-1,12
 790 1624 790 1624 723 1624 c 128,-1,13
 656 1624 656 1624 621 1662.5 c 128,-1,14
 586 1701 586 1701 586 1764.5 c 128,-1,15
 586 1828 586 1828 639 1876 c 1,16,17
 688 1916 688 1916 747.5 1916 c 128,-1,9
 807 1916 807 1916 845.5 1881 c 128,-1,10
EndSplineSet
EndChar

StartChar: tilde.case
Encoding: 65541 -1 91
Width: 1049
Flags: HMW
HStem: 1618 188<638 744.5 638 748.5> 1706 100 1706 170<371 391.5> 1866 20G
LayerCount: 2
Fore
SplineSet
877 1886 m 1,0,1
 913.765957447 1872.21276596 913.765957447 1872.21276596 934 1825 c 1,2,3
 901 1721 901 1721 840.5 1669.5 c 128,-1,4
 780 1618 780 1618 700.5 1618 c 128,-1,5
 621 1618 621 1618 506 1662 c 128,-1,6
 391 1706 391 1706 342.5 1706 c 128,-1,7
 294 1706 294 1706 244.5 1681 c 128,-1,8
 195 1656 195 1656 172 1618 c 1,9,10
 147 1629 147 1629 115 1679 c 1,11,12
 147 1780 147 1780 209 1827 c 128,-1,13
 271 1874 271 1874 359.5 1875 c 128,-1,14
 448 1876 448 1876 543.5 1841 c 128,-1,15
 639 1806 639 1806 709 1806 c 0,16,17
 815 1806 815 1806 877 1886 c 1,0,1
EndSplineSet
EndChar

StartChar: caron.case
Encoding: 65542 -1 92
Width: 907
Flags: HMW
HStem: 1571 21G<408.5 469> 1913 20G<715 715>
LayerCount: 2
Fore
SplineSet
72 1847 m 1,0,1
 79 1874 79 1874 100 1896.5 c 128,-1,2
 121 1919 121 1919 143 1929 c 1,3,-1
 428 1751 l 1,4,-1
 715 1933 l 1,5,6
 746 1919 746 1919 774 1891.5 c 128,-1,7
 802 1864 802 1864 809 1839 c 1,8,9
 693 1726 693 1726 588 1648.5 c 128,-1,10
 483 1571 483 1571 439 1571 c 0,11,12
 395 1571 395 1571 312 1634.5 c 128,-1,13
 229 1698 229 1698 72 1847 c 1,0,1
EndSplineSet
EndChar

StartChar: Ccedilla
Encoding: 199 199 93
Width: 1432
Flags: HMW
HStem: -461 111<840 907.5 825.5 932> -203 342<830.5 886> -41 180<821 1019> 1038 439<700.5 1226.5> 1321 156<775.5 905.5>
VStem: 123 336<549 953.5> 1006 174<-307 -246.5> 1055 263
LayerCount: 2
Fore
SplineSet
961 139 m 0,0,1
 1113.15625 139 1113.15625 139 1260 266 c 1,2,3
 1319 236 1319 236 1339 166 c 1,4,5
 1168 -13 1168 -13 920 -36 c 1,6,-1
 879 -115 l 1,7,8
 885.004662015 -114.744482467 885.004662015 -114.744482467 899.784901252 -114.744482467 c 128,-1,9
 914.565140489 -114.744482467 914.565140489 -114.744482467 938.850844005 -116.753289539 c 128,-1,10
 963.136547522 -118.762096611 963.136547522 -118.762096611 997.967098104 -124.011499985 c 128,-1,11
 1032.79764869 -129.260903359 1032.79764869 -129.260903359 1063.06763921 -140.784074052 c 128,-1,12
 1093.33762973 -152.307244744 1093.33762973 -152.307244744 1120.67237625 -168.835341227 c 0,13,14
 1180 -204.708097126 1180 -204.708097126 1180 -264.354048563 c 128,-1,15
 1180 -324 1180 -324 1147.5 -362.5 c 128,-1,16
 1115 -401 1115 -401 1066.5 -421 c 0,17,18
 969.5 -461 969.5 -461 902.75 -461 c 128,-1,19
 836 -461 836 -461 787 -450 c 128,-1,20
 738 -439 738 -439 701 -411.5 c 128,-1,21
 664 -384 664 -384 664 -347.5 c 128,-1,22
 664 -311 664 -311 688.5 -293.5 c 128,-1,23
 713 -276 713 -276 743 -276 c 0,24,25
 744 -276 744 -276 748.5 -283.5 c 128,-1,26
 753 -291 753 -291 762 -302 c 128,-1,27
 771 -313 771 -313 785.5 -324 c 0,28,29
 819.772727273 -350 819.772727273 -350 881 -350 c 0,30,31
 1006 -350 1006 -350 1006 -276 c 0,32,33
 1006 -203 1006 -203 852 -203 c 0,34,35
 798 -203 798 -203 772 -150 c 1,36,-1
 821 -41 l 1,37,38
 585.134917593 -38.9310080491 585.134917593 -38.9310080491 415.5 71 c 0,39,40
 123 260.553072626 123 260.553072626 123 707 c 0,41,42
 123 889 123 889 183 1035 c 128,-1,43
 243 1181 243 1181 351.5 1277.5 c 0,44,45
 575.808290155 1477 575.808290155 1477 942 1477 c 0,46,47
 1060 1477 1060 1477 1136.5 1458 c 128,-1,48
 1213 1439 1213 1439 1307 1395 c 1,49,50
 1325.375 1372.6875 1325.375 1372.6875 1325.375 1339.40625 c 128,-1,51
 1325.375 1306.125 1325.375 1306.125 1325 1296 c 2,52,-1
 1311 1075 l 1,53,54
 1255 1038 1255 1038 1208.5 1038 c 128,-1,55
 1162 1038 1162 1038 1135.5 1048.5 c 128,-1,56
 1109 1059 1109 1059 1093.5 1075.5 c 128,-1,57
 1078 1092 1078 1092 1069 1117 c 0,58,59
 1055 1155.88888889 1055 1155.88888889 1055 1198.94444444 c 128,-1,60
 1055 1242 1055 1242 1057 1280 c 1,61,62
 1018 1321 1018 1321 881 1321 c 0,63,64
 564.258883249 1321 564.258883249 1321 483 987.5 c 0,65,66
 459 889 459 889 459 748 c 128,-1,67
 459 607 459 607 499.5 485.5 c 128,-1,68
 540 364 540 364 610 290 c 0,69,70
 752.837837838 139 752.837837838 139 961 139 c 0,0,1
EndSplineSet
EndChar

StartChar: ccedilla
Encoding: 231 231 94
Width: 1165
Flags: HMW
HStem: -477 110<633 700.5 619 725> -219 330<666 679.5> -33 144<626 833.5 724 724> 665 406 936 135
VStem: 113 295<453 665.5> 799 174<-323.5 -263> 857 257<785.5 794.5>
LayerCount: 2
Fore
SplineSet
674 -367 m 0,0,1
 799 -367 799 -367 799 -293 c 0,2,3
 799 -265 799 -265 773.5 -247.5 c 0,4,5
 731.971428571 -219 731.971428571 -219 646 -219 c 0,6,7
 592 -219 592 -219 566 -166 c 1,8,-1
 626 -33 l 1,9,10
 400 -16 400 -16 256.5 130 c 128,-1,11
 113 276 113 276 113 500 c 0,12,13
 113 802.201403684 113 802.201403684 335.812506115 965.743130827 c 0,14,15
 479.250986494 1071.02526794 479.250986494 1071.02526794 683.88728011 1071.02526794 c 0,16,17
 857.384744175 1071.02526794 857.384744175 1071.02526794 984.899773754 995.864612135 c 0,18,19
 1042.93731891 961.655782245 1042.93731891 961.655782245 1078.10400923 914.671081448 c 128,-1,20
 1113.27069956 867.68638065 1113.27069956 867.68638065 1114 817 c 0,21,22
 1114 665 1114 665 956 665 c 0,23,24
 901.916666667 665 901.916666667 665 877.958333333 677.5 c 128,-1,25
 854 690 854 690 854 692 c 0,26,27
 857 711 857 711 857 731 c 0,28,29
 857 825 857 825 796.5 880.5 c 128,-1,30
 736 936 736 936 634 936 c 128,-1,31
 532 936 532 936 470 848.5 c 128,-1,32
 408 761 408 761 408 577 c 128,-1,33
 408 393 408 393 514.5 252 c 128,-1,34
 621 111 621 111 752 111 c 0,35,36
 864.682926829 111 864.682926829 111 978.5 202.5 c 0,37,38
 1004 223 1004 223 1030 252 c 1,39,40
 1052 238 1052 238 1075.5 212.5 c 128,-1,41
 1099 187 1099 187 1104 164 c 1,42,43
 1088.56521739 142.391304348 1088.56521739 142.391304348 1047.2826087 105.695652174 c 128,-1,44
 1006 69 1006 69 965 44 c 0,45,46
 854.192105263 -23.5657894737 854.192105263 -23.5657894737 724 -33 c 1,47,-1
 672 -131 l 1,48,49
 677.994704602 -130.744906187 677.994704602 -130.744906187 689.624711806 -130.744906187 c 128,-1,50
 701.25471901 -130.744906187 701.25471901 -130.744906187 718.423459724 -131.780006464 c 128,-1,51
 735.592200437 -132.815106742 735.592200437 -132.815106742 760.029635479 -135.425832668 c 128,-1,52
 784.467070521 -138.036558594 784.467070521 -138.036558594 807.56697195 -143.471625676 c 128,-1,53
 830.66687338 -148.906692759 830.66687338 -148.906692759 855.454568504 -156.694433794 c 128,-1,54
 880.242263628 -164.48217483 880.242263628 -164.48217483 900.722851368 -176.950977407 c 128,-1,55
 921.203439108 -189.419779984 921.203439108 -189.419779984 937.790919909 -205.018304818 c 0,56,57
 973 -238.128197563 973 -238.128197563 973 -289.564098782 c 128,-1,58
 973 -341 973 -341 940.5 -379 c 128,-1,59
 908 -417 908 -417 859.5 -437 c 0,60,61
 762.5 -477 762.5 -477 695.75 -477 c 128,-1,62
 629 -477 629 -477 580 -466 c 128,-1,63
 531 -455 531 -455 494 -427.5 c 128,-1,64
 457 -400 457 -400 457 -363.5 c 128,-1,65
 457 -327 457 -327 481.5 -310 c 128,-1,66
 506 -293 506 -293 537 -293 c 0,67,68
 538 -293 538 -293 542 -300.5 c 128,-1,69
 546 -308 546 -308 555.5 -319 c 128,-1,70
 565 -330 565 -330 579 -341 c 0,71,72
 612.090909091 -367 612.090909091 -367 674 -367 c 0,0,1
EndSplineSet
EndChar

StartChar: ntilde
Encoding: 241 241 95
Width: 1432
Flags: HMW
HStem: -36 173 -21 21G<331 383> 848 219 1038 20G<390 457> 1233 188<910.5 1017 910.5 1020.5> 1321 100 1321 170<643 663.5> 1481 20G
VStem: 247 292 949 269
LayerCount: 2
Fore
SplineSet
939 217 m 1,0,-1
 949 598 l 1,1,2
 949 728 949 728 940.520706194 762.165449707 c 128,-1,3
 932.041412389 796.330899413 932.041412389 796.330899413 918.886794453 812.910412656 c 0,4,5
 890.968722602 848.097146639 890.968722602 848.097146639 836.857974302 848.097146639 c 128,-1,6
 782.747226002 848.097146639 782.747226002 848.097146639 744.907427328 835.634157204 c 0,7,8
 666.795292014 809.906992913 666.795292014 809.906992913 545 690 c 1,9,10
 545 560 545 560 539 -2 c 1,11,12
 428 -21 428 -21 354 -21 c 128,-1,13
 280 -21 280 -21 229 -2 c 1,14,15
 247 241 247 241 247 446.5 c 128,-1,16
 247 652 247 652 242 801 c 1,17,18
 242 877 242 877 188 891 c 1,19,20
 154 902 154 902 92 907 c 1,21,22
 86 933 86 933 86 948.5 c 128,-1,23
 86 964 86 964 90 977 c 1,24,25
 234 1058 234 1058 448 1058 c 0,26,27
 483 1058 483 1058 500 1057 c 1,28,29
 539 990 539 990 543 827 c 1,30,31
 730.032335665 1067.02483077 730.032335665 1067.02483077 981.009980832 1067.02483077 c 0,32,33
 1097.09813852 1067.02483077 1097.09813852 1067.02483077 1162.42955692 988.495344299 c 128,-1,34
 1227.76097532 909.965857828 1227.76097532 909.965857828 1237 776 c 0,35,36
 1241 715 1241 715 1241 654.236043696 c 128,-1,37
 1241 593.472087392 1241 593.472087392 1235.23937433 521.501659766 c 0,38,39
 1217.95749733 305.590376887 1217.95749733 305.590376887 1217.95749733 191.350784469 c 0,40,41
 1217.95749733 165.276016688 1217.95749733 165.276016688 1255.22682637 151.138008344 c 128,-1,42
 1292.4961554 137 1292.4961554 137 1327.7480777 137 c 128,-1,43
 1363 137 1363 137 1376 141 c 1,44,45
 1387.5 114.166666667 1387.5 114.166666667 1387.5 91.7083333333 c 128,-1,46
 1387.5 69.25 1387.5 69.25 1386 61 c 1,47,48
 1199 -36 1199 -36 1107 -36 c 128,-1,49
 1015 -36 1015 -36 977 26.5 c 128,-1,50
 939 89 939 89 939 217 c 1,0,-1
1149 1501 m 1,51,52
 1185.76595745 1487.21276596 1185.76595745 1487.21276596 1206 1440 c 1,53,54
 1173 1336 1173 1336 1112.5 1284.5 c 128,-1,55
 1052 1233 1052 1233 972.5 1233 c 128,-1,56
 893 1233 893 1233 778 1277 c 128,-1,57
 663 1321 663 1321 614.5 1321 c 128,-1,58
 566 1321 566 1321 516.5 1296 c 128,-1,59
 467 1271 467 1271 444 1233 c 1,60,61
 419 1244 419 1244 387 1294 c 1,62,63
 419 1395 419 1395 481 1442 c 128,-1,64
 543 1489 543 1489 631.5 1490 c 128,-1,65
 720 1491 720 1491 816 1456 c 128,-1,66
 912 1421 912 1421 981 1421 c 0,67,68
 1087 1421 1087 1421 1149 1501 c 1,51,52
EndSplineSet
EndChar

StartChar: bracketleft
Encoding: 91 91 96
Width: 717
Flags: HMW
HStem: -375 144<426 431.5> 1526 141<426 433.5 361 618 426 426>
VStem: 153 259<473.5 777.5 468.5 828.5> 182 230 182 443
LayerCount: 2
Fore
SplineSet
182 -365 m 1,0,1
 153 110 153 110 153 658.5 c 0,2,3
 153 1207 153 1207 182 1659 c 1,4,5
 294 1667 294 1667 404.5 1667 c 0,6,7
 515 1667 515 1667 618 1659 c 1,8,9
 625 1619 625 1619 625 1591.5 c 0,10,11
 625 1564 625 1564 618 1526 c 1,12,-1
 426 1526 l 1,13,14
 412 1108 412 1108 412 613.5 c 0,15,16
 412 119 412 119 426 -231 c 1,17,-1
 618 -231 l 1,18,19
 625 -273 625 -273 625 -300.5 c 0,20,21
 625 -328 625 -328 618 -365 c 1,22,23
 495 -375 495 -375 389 -375 c 0,24,25
 283 -375 283 -375 182 -365 c 1,0,1
EndSplineSet
EndChar

StartChar: bracketright
Encoding: 93 93 97
Width: 717
Flags: HMW
HStem: -375 144<285 291 98 358> 1526 141<282.5 291>
VStem: 92 443 305 230 305 258<474.5 777.5>
LayerCount: 2
Fore
SplineSet
535 -365 m 1,0,1
 434 -375 434 -375 328.5 -375 c 0,2,3
 223 -375 223 -375 98 -365 c 1,4,5
 92 -334 92 -334 92 -300.5 c 0,6,7
 92 -267 92 -267 98 -231 c 1,8,-1
 291 -231 l 1,9,10
 305 119 305 119 305 613.5 c 0,11,12
 305 1108 305 1108 291 1526 c 1,13,-1
 98 1526 l 1,14,15
 92 1559 92 1559 92 1591.5 c 0,16,17
 92 1624 92 1624 98 1659 c 1,18,19
 201 1667 201 1667 312 1667 c 0,20,21
 423 1667 423 1667 535 1659 c 1,22,23
 563 1201 563 1201 563 647.5 c 0,24,25
 563 94 563 94 535 -365 c 1,0,1
EndSplineSet
EndChar

StartChar: period
Encoding: 46 46 98
Width: 549
Flags: HMW
HStem: -4 316<272.5 281.5>
VStem: 113 322<149 159>
LayerCount: 2
Fore
SplineSet
172 266 m 1,0,1
 228 312 228 312 290 312 c 128,-1,2
 352 312 352 312 393.5 272.5 c 128,-1,3
 435 233 435 233 435 162.5 c 128,-1,4
 435 92 435 92 381.5 44 c 128,-1,5
 328 -4 328 -4 264 -4 c 128,-1,6
 200 -4 200 -4 156.5 35.5 c 128,-1,7
 113 75 113 75 113 143.5 c 128,-1,8
 113 212 113 212 172 266 c 1,0,1
EndSplineSet
EndChar

StartChar: quotesinglbase
Encoding: 8218 8218 99
Width: 444
Flags: HMW
HStem: -213 21G -25 21G<134 147> 271 20G<152.5 242>
VStem: 31 321<76.5 154.5>
LayerCount: 2
Fore
SplineSet
147 -25 m 1,0,1
 118 -25 118 -25 74.5 11.5 c 128,-1,2
 31 48 31 48 31 114.5 c 0,3,4
 31 181 31 181 80 236 c 128,-1,5
 129 291 129 291 197 291 c 0,6,7
 265 291 265 291 308.5 252 c 128,-1,8
 352 213 352 213 352 127 c 0,9,10
 352 41 352 41 272.5 -70 c 128,-1,11
 193 -181 193 -181 90 -213 c 1,12,13
 56 -194 56 -194 53 -158 c 1,14,15
 91 -129 91 -129 118 -86.5 c 128,-1,16
 145 -44 145 -44 147 -25 c 1,0,1
EndSplineSet
EndChar

StartChar: periodcentered
Encoding: 183 183 100
Width: 631
Flags: HMW
HStem: 481 316<313.5 322.5>
VStem: 154 322<635 644>
LayerCount: 2
Fore
SplineSet
213 752 m 1,0,1
 267 797 267 797 330 797 c 128,-1,2
 393 797 393 797 434.5 758 c 128,-1,3
 476 719 476 719 476 649 c 128,-1,4
 476 579 476 579 416 522 c 1,5,6
 369 481 369 481 305 481 c 128,-1,7
 241 481 241 481 197.5 520.5 c 128,-1,8
 154 560 154 560 154 629 c 128,-1,9
 154 698 154 698 213 752 c 1,0,1
EndSplineSet
EndChar

StartChar: colon
Encoding: 58 58 101
Width: 631
Flags: HMW
HStem: 0 316<313.5 322.5> 649 316<313.5 322.5>
VStem: 154 322<153 163 803 812>
LayerCount: 2
Fore
SplineSet
213 920 m 1,0,1
 267 965 267 965 330 965 c 128,-1,2
 393 965 393 965 434.5 926 c 128,-1,3
 476 887 476 887 476 817 c 128,-1,4
 476 747 476 747 416 690 c 1,5,6
 369 649 369 649 305 649 c 128,-1,7
 241 649 241 649 197.5 688.5 c 128,-1,8
 154 728 154 728 154 797 c 128,-1,9
 154 866 154 866 213 920 c 1,0,1
213 270 m 1,10,11
 269 316 269 316 331 316 c 128,-1,12
 393 316 393 316 434.5 276.5 c 128,-1,13
 476 237 476 237 476 166.5 c 128,-1,14
 476 96 476 96 422.5 48 c 128,-1,15
 369 0 369 0 305 0 c 128,-1,16
 241 0 241 0 197.5 39.5 c 128,-1,17
 154 79 154 79 154 147.5 c 128,-1,18
 154 216 154 216 213 270 c 1,10,11
EndSplineSet
EndChar

StartChar: comma
Encoding: 44 44 102
Width: 629
Flags: HMW
HStem: -213 21G -25 21G<257 270> 271 20G<275.5 364.5>
VStem: 154 321<76.5 154.5>
LayerCount: 2
Fore
SplineSet
270 -25 m 1,0,1
 241 -25 241 -25 197.5 11.5 c 128,-1,2
 154 48 154 48 154 114.5 c 0,3,4
 154 181 154 181 203 236 c 128,-1,5
 252 291 252 291 320 291 c 0,6,7
 388 291 388 291 431.5 252 c 128,-1,8
 475 213 475 213 475 127 c 0,9,10
 475 41 475 41 395.5 -70 c 128,-1,11
 316 -181 316 -181 213 -213 c 1,12,13
 179 -195 179 -195 176 -158 c 1,14,15
 213 -129 213 -129 240.5 -86.5 c 128,-1,16
 268 -44 268 -44 270 -25 c 1,0,1
EndSplineSet
EndChar

StartChar: less
Encoding: 60 60 103
Width: 1006
Flags: HMW
HStem: 244 21G 1199 20G
LayerCount: 2
Fore
SplineSet
127 655 m 1,0,1
 113 701 113 701 113 739.5 c 0,2,3
 113 778 113 778 127 807 c 1,4,5
 177 849 177 849 435.5 1000 c 128,-1,6
 694 1151 694 1151 827 1219 c 1,7,8
 871 1173 871 1173 913 1075 c 1,9,10
 814 1008 814 1008 599.5 883.5 c 128,-1,11
 385 759 385 759 326 731 c 1,12,13
 385 703 385 703 599.5 578.5 c 128,-1,14
 814 454 814 454 913 387 c 1,15,16
 871 291 871 291 827 244 c 1,17,18
 693 312 693 312 435 462.5 c 128,-1,19
 177 613 177 613 127 655 c 1,0,1
EndSplineSet
EndChar

StartChar: multiply
Encoding: 215 215 104
Width: 1128
Flags: HMW
HStem: 326 21G<279 279> 1104 20G<281 281>
LayerCount: 2
Fore
SplineSet
565 612 m 1,0,-1
 279 326 l 1,1,2
 261 329 261 329 218 373 c 128,-1,3
 175 417 175 417 172 434 c 1,4,5
 235 506 235 506 451 725 c 1,6,7
 226 950 226 950 166 1018 c 1,8,9
 179 1042 179 1042 215.5 1076.5 c 128,-1,10
 252 1111 252 1111 281 1124 c 1,11,-1
 563 842 l 1,12,13
 775 1054 775 1054 852 1122 c 1,14,15
 877 1106 877 1106 911.5 1071 c 128,-1,16
 946 1036 946 1036 958 1006 c 1,17,-1
 680 727 l 1,18,-1
 963 444 l 1,19,20
 958 426 958 426 914.5 383.5 c 128,-1,21
 871 341 871 341 854 338 c 1,22,23
 766 413 766 413 565 612 c 1,0,-1
EndSplineSet
EndChar

StartChar: AE
Encoding: 198 198 105
Width: 2007
Flags: HMW
HStem: -20 174 -20 362 0 21G<951 999> 487 160 621 191 1092 362 1280 174
VStem: 444 181 901 279<479 615 635 641 801 863 538 1176> 1649 266<168 176 43 289 43 289 1257.5 1266 1266 1266>
LayerCount: 2
Fore
SplineSet
1884 1151 m 128,-1,1
 1853 1092 1853 1092 1767.86363636 1092 c 128,-1,2
 1682.72727273 1092 1682.72727273 1092 1649 1145 c 1,3,-1
 1649 1266 l 1,4,5
 1357 1280 1357 1280 1155 1280 c 1,6,7
 1180 1167 1180 1167 1180 863 c 2,8,-1
 1180 801 l 1,9,-1
 1638 823 l 1,10,11
 1655 805 1655 805 1655 745.5 c 128,-1,12
 1655 686 1655 686 1645 629 c 1,13,14
 1590 621 1590 621 1474 621 c 128,-1,15
 1358 621 1358 621 1180 641 c 1,16,-1
 1180 610 l 1,17,-1
 1173 268 l 1,18,19
 1173 162 1173 162 1196 154 c 1,20,21
 1357 154 1357 154 1649 168 c 1,22,-1
 1649 289 l 1,23,24
 1665.72941176 322.458823529 1665.72941176 322.458823529 1727 336.5 c 0,25,26
 1751 342 1751 342 1780 342 c 0,27,28
 1853 342 1853 342 1884 282.5 c 128,-1,29
 1915 223 1915 223 1915 78 c 0,30,31
 1915 24 1915 24 1912 6.5 c 128,-1,32
 1909 -11 1909 -11 1898 -20 c 1,33,34
 1513 -4 1513 -4 999 0 c 0,35,36
 945.552631579 0 945.552631579 0 924 91 c 0,37,38
 904.605922551 172.886104784 904.605922551 172.886104784 903.5 231.5 c 2,39,-1
 903 258 l 1,40,-1
 901 479 l 1,41,-1
 559 496 l 1,42,43
 466 -4 466 -4 236 -33 c 0,44,45
 226.473546756 -34.002784552 226.473546756 -34.002784552 216.62383075 -34.002784552 c 0,46,47
 146.525640223 -34.002784552 146.525640223 -34.002784552 88.7628201115 8.69630382894 c 128,-1,48
 31 51.3953922099 31 51.3953922099 31 111 c 1,49,50
 113.978122929 166.877523858 113.978122929 166.877523858 184.526197458 266.894194856 c 128,-1,51
 255.074271988 366.910865853 255.074271988 366.910865853 301.786920599 481.622456839 c 128,-1,52
 348.499569211 596.334047825 348.499569211 596.334047825 381.603682913 723.733539748 c 0,53,54
 444.281839452 964.947226052 444.281839452 964.947226052 444.281839452 1171.65813276 c 0,55,56
 444.281839452 1243.24681095 444.281839452 1243.24681095 427.073296977 1277.16276176 c 128,-1,57
 409.864754502 1311.07871257 409.864754502 1311.07871257 356 1319 c 1,58,59
 340 1339 340 1339 340 1390 c 128,-1,60
 340 1441 340 1441 344 1454 c 1,61,62
 619 1438 619 1438 802.5 1436.5 c 128,-1,63
 986 1435 986 1435 1130 1436 c 128,-1,64
 1274 1437 1274 1437 1360 1438 c 0,65,66
 1597.22799097 1440.75846501 1597.22799097 1440.75846501 1898 1454 c 1,67,68
 1909 1445 1909 1445 1912 1427 c 128,-1,69
 1915 1409 1915 1409 1915 1356 c 0,70,0
 1915 1210 1915 1210 1884 1151 c 128,-1,1
891 1260 m 1,71,-1
 868 1266 l 1,72,73
 801 1274 801 1274 625 1274 c 1,74,75
 625 1142.52941176 625 1142.52941176 610.5 949.764705882 c 128,-1,76
 596 757 596 757 582 647 c 1,77,-1
 623 647 l 2,78,79
 748 647 748 647 901 635 c 1,80,-1
 901 1176 l 2,81,82
 901 1228 901 1228 891 1260 c 1,71,-1
EndSplineSet
EndChar

StartChar: ae
Encoding: 230 230 106
Width: 1874
Flags: HMW
HStem: -41 137<1362 1491> -41 178<505 583> 463 119 696 365 934 127<555 676.5 1271.5 1366.5>
VStem: 114 296<244 333 231.5 372.5> 188 271<777 813 751 903> 789 288<584 779.5> 1534 268<670 763.5>
LayerCount: 2
Fore
SplineSet
1224 199.5 m 128,-1,1
 1323 96 1323 96 1452.17391304 96 c 128,-1,2
 1581.34782609 96 1581.34782609 96 1714 209 c 1,3,4
 1763 177 1763 177 1776 131 c 1,5,6
 1683.8814628 23.5283732661 1683.8814628 23.5283732661 1503.5 -22.5 c 0,7,8
 1431 -41 1431 -41 1328 -41 c 128,-1,9
 1225 -41 1225 -41 1110 3 c 128,-1,10
 995 47 995 47 915 131 c 1,11,12
 912 129 912 129 890 112.5 c 128,-1,13
 868 96 868 96 854.5 86.5 c 128,-1,14
 841 77 841 77 812 59 c 128,-1,15
 783 41 783 41 759 29.5 c 128,-1,16
 735 18 735 18 698 3 c 128,-1,17
 661 -12 661 -12 626.5 -20.5 c 0,18,19
 380.035569927 -81.2231204527 380.035569927 -81.2231204527 222 21.5 c 0,20,21
 114 91.7 114 91.7 114 253 c 0,22,23
 114 447.780821918 114 447.780821918 357 531 c 0,24,25
 487.282296651 575.61722488 487.282296651 575.61722488 666 582 c 2,26,-1
 782 586 l 1,27,28
 789 666 789 666 789 715 c 0,29,30
 789 823 789 823 748.5 878.5 c 128,-1,31
 708 934 708 934 598 934 c 0,32,33
 532 934 532 934 495.5 888 c 128,-1,34
 459 842 459 842 459 752 c 0,35,36
 459 740.28276224 459 740.28276224 424.54507176 723.40343839 c 0,37,38
 367.69124439 695.550988441 367.69124439 695.550988441 311.482647469 695.550988441 c 128,-1,39
 255.274050548 695.550988441 255.274050548 695.550988441 221.637025274 727.756341515 c 128,-1,40
 188 759.961694588 188 759.961694588 188 817.980847294 c 128,-1,41
 188 876 188 876 230 927 c 128,-1,42
 272 978 272 978 342.5 1006 c 0,43,44
 480.982142857 1061 480.982142857 1061 659 1061 c 0,45,46
 882.61038961 1061 882.61038961 1061 977 903 c 1,47,48
 1029 980 1029 980 1130 1020.5 c 128,-1,49
 1231 1061 1231 1061 1328 1061 c 128,-1,50
 1425 1061 1425 1061 1508 1035 c 128,-1,51
 1591 1009 1591 1009 1657.5 959.5 c 128,-1,52
 1724 910 1724 910 1763 830.5 c 128,-1,53
 1802 751 1802 751 1802 651 c 0,54,55
 1802 480 1802 480 1690 471 c 1,56,-1
 1094 455 l 1,57,0
 1125 303 1125 303 1224 199.5 c 128,-1,1
1305 934 m 0,58,59
 1077 934 1077 934 1077 584 c 1,60,61
 1392 592 1392 592 1528 612 c 1,62,63
 1534 648 1534 648 1534 681 c 0,64,65
 1534 800 1534 800 1468 867 c 128,-1,66
 1402 934 1402 934 1305 934 c 0,58,59
852 217 m 1,67,68
 789 325 789 325 780 471 c 1,69,-1
 633 465 l 2,70,71
 525 461 525 461 467.5 410.5 c 128,-1,72
 410 360 410 360 410 282.5 c 128,-1,73
 410 205 410 205 444 171 c 128,-1,74
 478 137 478 137 557 137 c 0,75,76
 701 137 701 137 852 217 c 1,67,68
EndSplineSet
EndChar

StartChar: OE
Encoding: 338 338 107
Width: 2253
Flags: HMW
HStem: -48 152<777 912.5> -20 163 -20 188 -20 362 621 191 1092 362 1280 127 1321 133 1449 20G<839 925>
VStem: 123 323<542 845.5 542 888> 1169 293<584 801> 1894 267<168 176 43 289 43 289 1257.5 1266 1266 1266>
LayerCount: 2
Fore
SplineSet
725.5 147.5 m 128,-1,1
 808 104 808 104 889.5 104 c 0,2,3
 1048.17948718 104 1048.17948718 104 1143 190 c 1,4,5
 1169 444 1169 444 1169 719.5 c 128,-1,6
 1169 995 1169 995 1116 1202 c 1,7,8
 1000 1321 1000 1321 845 1321 c 0,9,10
 673.520661157 1321 673.520661157 1321 573.5 1203.5 c 0,11,12
 446 1053.7184466 446 1053.7184466 446 745 c 0,13,14
 446 444.736 446 444.736 580.5 271.5 c 0,15,0
 643 191 643 191 725.5 147.5 c 128,-1,1
1430 143 m 1,16,17
 1494 143 1494 143 1894 168 c 1,18,-1
 1894 289 l 1,19,20
 1910.72941176 322.458823529 1910.72941176 322.458823529 1972 336.5 c 0,21,22
 1996 342 1996 342 2025 342 c 0,23,24
 2099 342 2099 342 2130 283 c 128,-1,25
 2161 224 2161 224 2161 78 c 0,26,27
 2161 24 2161 24 2158 6.5 c 128,-1,28
 2155 -11 2155 -11 2144 -20 c 1,29,30
 1800.05568445 -4.9524361949 1800.05568445 -4.9524361949 1511.52784223 -2.97621809745 c 128,-1,31
 1223 -1 1223 -1 1143 0 c 1,32,-1
 1118 -8 l 1,33,34
 999 -48 999 -48 863.5 -48 c 128,-1,35
 728 -48 728 -48 594 2.5 c 128,-1,36
 460 53 460 53 355 144 c 128,-1,37
 250 235 250 235 186.5 374 c 128,-1,38
 123 513 123 513 123 678 c 0,39,40
 123 988 123 988 266 1180 c 128,-1,41
 409 1372 409 1372 678 1444 c 1,42,43
 776 1469 776 1469 872 1469 c 0,44,45
 1034 1469 1034 1469 1184 1407 c 1,46,47
 1634 1419 1634 1419 2144 1454 c 1,48,49
 2155 1445 2155 1445 2158 1427 c 128,-1,50
 2161 1409 2161 1409 2161 1356 c 0,51,52
 2161 1210 2161 1210 2130 1151 c 128,-1,53
 2099 1092 2099 1092 2013.36363636 1092 c 128,-1,54
 1927.72727273 1092 1927.72727273 1092 1894 1145 c 1,55,-1
 1894 1266 l 1,56,57
 1602 1280 1602 1280 1430 1280 c 1,58,59
 1454 1170 1454 1170 1462 801 c 1,60,-1
 1892 823 l 1,61,62
 1909 803 1909 803 1909 741.5 c 128,-1,63
 1909 680 1909 680 1898 629 c 1,64,65
 1843 621 1843 621 1742.5 621 c 128,-1,66
 1642 621 1642 621 1462 641 c 1,67,68
 1454 253 1454 253 1430 143 c 1,16,17
EndSplineSet
EndChar

StartChar: Oslash
Encoding: 216 216 108
Width: 1737
Flags: HMW
HStem: -79 21G<486.5 514.5> -34 146<860.5 920> 1327 148<838 881.5>
VStem: 123 323<653 850 653 892> 1303 311<568.5 774>
LayerCount: 2
Fore
SplineSet
1614 768 m 0,0,1
 1614 465 1614 465 1486 268.5 c 128,-1,2
 1358 72 1358 72 1118 0 c 0,3,4
 1003 -34 1003 -34 865.5 -34 c 128,-1,5
 728 -34 728 -34 586 18 c 1,6,-1
 538 -76 l 1,7,8
 529 -79 529 -79 502 -79 c 128,-1,9
 475 -79 475 -79 435 -72 c 128,-1,10
 395 -65 395 -65 388 -57 c 1,11,12
 397 -33 397 -33 452 83 c 1,13,14
 300 176 300 176 211.5 329 c 128,-1,15
 123 482 123 482 123 682 c 0,16,17
 123 992 123 992 266 1185 c 128,-1,18
 409 1378 409 1378 678 1450 c 0,19,20
 769 1475 769 1475 895.5 1475 c 128,-1,21
 1022 1475 1022 1475 1164 1420 c 1,22,23
 1204 1493 1204 1493 1215 1509 c 1,24,25
 1224.25 1510 1224.25 1510 1247.63802083 1510 c 0,26,27
 1324.75 1510 1324.75 1510 1371 1485 c 1,28,-1
 1302 1350 l 1,29,30
 1445 1257 1445 1257 1529.5 1109 c 128,-1,31
 1614 961 1614 961 1614 768 c 0,0,1
684 179 m 1,32,33
 781 112 781 112 884.5 112 c 128,-1,34
 988 112 988 112 1058.5 145 c 128,-1,35
 1129 178 1129 178 1174 232.5 c 128,-1,36
 1219 287 1219 287 1249 362 c 0,37,38
 1303 497 1303 497 1303 682 c 0,39,40
 1303 954 1303 954 1176 1136 c 1,41,-1
 684 179 l 1,32,33
446 750 m 0,42,43
 446 469 446 469 569 294 c 1,44,45
 848 853 848 853 1060 1255 c 1,46,47
 958 1327 958 1327 842 1327 c 0,48,49
 768 1327 768 1327 696.5 1299 c 128,-1,50
 625 1271 625 1271 573.5 1209.5 c 128,-1,51
 522 1148 522 1148 495.5 1068.5 c 0,52,53
 446 920 446 920 446 750 c 0,42,43
EndSplineSet
EndChar

StartChar: oe
Encoding: 339 339 109
Width: 2058
Flags: HMW
HStem: -43 139 930 135<578.5 755> 1041 20G<1445 1637.5>
VStem: 113 295<396 618.5 396 669.5> 985 258<555 614.5> 1718 269<670 763.5>
LayerCount: 2
Fore
SplineSet
1538 -41 m 0,0,1
 1264 -41 1264 -41 1116 131 c 1,2,3
 955 -43 955 -43 637 -43 c 0,4,5
 495 -43 495 -43 375 23.5 c 128,-1,6
 255 90 255 90 184 210 c 128,-1,7
 113 330 113 330 113 497.5 c 128,-1,8
 113 665 113 665 199 799.5 c 0,9,10
 368.762081784 1065 368.762081784 1065 766 1065 c 0,11,12
 872 1065 872 1065 969 1022 c 128,-1,13
 1066 979 1066 979 1135 899 c 1,14,15
 1208 977 1208 977 1308 1019 c 128,-1,16
 1408 1061 1408 1061 1508.5 1061 c 128,-1,17
 1609 1061 1609 1061 1692 1035 c 128,-1,18
 1775 1009 1775 1009 1841.5 959.5 c 128,-1,19
 1908 910 1908 910 1947.5 830.5 c 128,-1,20
 1987 751 1987 751 1987 651 c 0,21,22
 1987 480 1987 480 1874 471 c 2,23,-1
 1260 426 l 1,24,25
 1289 280 1289 280 1395.5 188 c 128,-1,26
 1502 96 1502 96 1633.67391304 96 c 128,-1,27
 1765.34782609 96 1765.34782609 96 1898 209 c 1,28,29
 1949 176 1949 176 1960 131 c 1,30,31
 1867.8814628 23.5283732661 1867.8814628 23.5283732661 1687.5 -22.5 c 0,32,33
 1615 -41 1615 -41 1538 -41 c 0,0,1
507 208.5 m 128,-1,35
 606 82 606 82 739 82 c 0,36,37
 985 82 985 82 985 481 c 0,38,39
 985 680 985 680 894 805 c 128,-1,40
 803 930 803 930 662 930 c 0,41,42
 591 930 591 930 539 893.5 c 128,-1,43
 487 857 487 857 460 796 c 0,44,45
 408 678.518518519 408 678.518518519 408 506.759259259 c 128,-1,34
 408 335 408 335 507 208.5 c 128,-1,35
1652 867 m 128,-1,47
 1586 934 1586 934 1478 934 c 128,-1,48
 1370 934 1370 934 1306.5 831 c 128,-1,49
 1243 728 1243 728 1243 555 c 1,50,51
 1515 583 1515 583 1712 612 c 1,52,53
 1718 648 1718 648 1718 681 c 0,54,46
 1718 800 1718 800 1652 867 c 128,-1,47
EndSplineSet
EndChar

StartChar: oslash
Encoding: 248 248 110
Width: 1386
Flags: HMW
HStem: -37 125<707.5 822.5> 936 135<578.5 691>
VStem: 113 295<488 627 488 677.5> 985 289<395 544>
LayerCount: 2
Fore
SplineSet
1217 801 m 128,-1,1
 1274 694 1274 694 1274 553.5 c 128,-1,2
 1274 413 1274 413 1227 298 c 128,-1,3
 1180 183 1180 183 1094.5 110.5 c 0,4,5
 920.551724138 -37 920.551724138 -37 637 -37 c 0,6,7
 538 -37 538 -37 447 -3 c 1,8,-1
 379 -119 l 1,9,10
 371.767453816 -121.678720809 371.767453816 -121.678720809 354.209468139 -121.678720809 c 128,-1,11
 336.651482461 -121.678720809 336.651482461 -121.678720809 309.709786099 -117.219539593 c 0,12,13
 244.48469856 -106.423987553 244.48469856 -106.423987553 236 -92 c 1,14,15
 251 -55 251 -55 320 66 c 1,16,17
 224 138 224 138 168.5 246.5 c 128,-1,18
 113 355 113 355 113 485 c 0,19,20
 113 673 113 673 199 807 c 0,21,22
 368.432835821 1071 368.432835821 1071 766 1071 c 0,23,24
 852 1071 852 1071 934 1042 c 1,25,26
 973 1112 973 1112 991 1139 c 1,27,28
 994.733564773 1139.20181431 994.733564773 1139.20181431 1006.94927201 1139.20181431 c 128,-1,29
 1019.16497924 1139.20181431 1019.16497924 1139.20181431 1045.06694273 1135.30415805 c 0,30,31
 1107.27116805 1125.94383722 1107.27116805 1125.94383722 1139 1106 c 1,32,-1
 1062 977 l 1,33,0
 1160 908 1160 908 1217 801 c 128,-1,1
985 489 m 0,34,35
 985 651 985 651 921 769 c 1,36,-1
 562 157 l 1,37,38
 642 88 642 88 739 88 c 0,39,40
 985 88 985 88 985 489 c 0,34,35
465 283 m 1,41,42
 669 635 669 635 819 886 c 1,43,44
 747 936 747 936 669 936 c 128,-1,45
 591 936 591 936 539 900 c 128,-1,46
 487 864 487 864 460 803 c 0,47,48
 408 685.518518519 408 685.518518519 408 541.259259259 c 128,-1,49
 408 397 408 397 465 283 c 1,41,42
EndSplineSet
EndChar

StartChar: thorn
Encoding: 254 254 111
Width: 1425
Flags: HMW
HStem: -671 21G<347 397> -41 127<660.5 761 655.5 847> 909 156<805 860>
VStem: 259 274 1027 306<561.5 681.5>
LayerCount: 2
Fore
SplineSet
539 961 m 1,0,1
 684.6 1065 684.6 1065 858 1065 c 0,2,3
 1092 1065 1092 1065 1212.5 935.5 c 128,-1,4
 1333 806 1333 806 1333 571 c 0,5,6
 1333 359.451612903 1333 359.451612903 1234 223.725806452 c 0,7,8
 1040.90588235 -41 1040.90588235 -41 680 -41 c 0,9,10
 592 -41 592 -41 537 -37 c 1,11,-1
 530 -655 l 1,12,13
 439 -671 439 -671 366 -671 c 128,-1,14
 293 -671 293 -671 236 -649 c 1,15,16
 259 -410 259 -410 259 327 c 128,-1,17
 259 1064 259 1064 238 1272 c 1,18,19
 234 1322 234 1322 199 1351.5 c 128,-1,20
 164 1381 164 1381 111 1386 c 1,21,22
 102.035574373 1408.90908771 102.035574373 1408.90908771 102.035574373 1424.19945912 c 0,23,24
 102.035574373 1445.19565905 102.035574373 1445.19565905 104 1456 c 1,25,26
 296.990869865 1530.1196819 296.990869865 1530.1196819 486.468716628 1530.1196819 c 0,27,28
 495.143539046 1530.1196819 495.143539046 1530.1196819 504 1530 c 1,29,30
 527 1499 527 1499 537 1368 c 0,31,32
 537 1364 537 1364 537.5 1299.5 c 0,33,34
 539 1106 539 1106 539 961 c 1,0,1
539 815 m 1,35,36
 539 387 539 387 537 96 c 1,37,38
 612 86 612 86 680 86 c 0,39,40
 811 86 811 86 914 194.5 c 0,41,42
 1027 313.533980583 1027 313.533980583 1027 525.266990291 c 128,-1,43
 1027 737 1027 737 963.5 823 c 128,-1,44
 900 909 900 909 794 909 c 128,-1,45
 688 909 688 909 539 815 c 1,35,36
EndSplineSet
EndChar

StartChar: brokenbar
Encoding: 166 166 112
Width: 510
Flags: HMW
HStem: -360 21G<245 282.5> 1686 20G<224.5 263.5>
VStem: 154 202
LayerCount: 2
Fore
SplineSet
154 -346 m 1,0,-1
 154 498 l 1,1,2
 173 506 173 506 245 506 c 128,-1,3
 317 506 317 506 336 494 c 1,4,5
 356 346.5 356 346.5 356 -354 c 1,6,7
 314 -360 314 -360 253.5 -360 c 128,-1,8
 193 -360 193 -360 154 -346 c 1,0,-1
154 854 m 1,9,-1
 154 1698 l 1,10,11
 173 1706 173 1706 245 1706 c 128,-1,12
 317 1706 317 1706 336 1694 c 1,13,14
 356 1546.5 356 1546.5 356 846 c 1,15,16
 314 840 314 840 256.5 840 c 128,-1,17
 199 840 199 840 154 854 c 1,9,-1
EndSplineSet
EndChar

StartChar: guilsinglleft
Encoding: 8249 8249 113
Width: 784
Flags: HMW
HStem: 199 21G 1162 20G
LayerCount: 2
Fore
SplineSet
326 419 m 128,-1,1
 210 534 210 534 172.5 585 c 128,-1,2
 135 636 135 636 135 675.5 c 128,-1,3
 135 715 135 715 170 760 c 0,4,5
 267 885 267 885 598 1182 c 1,6,7
 623 1174 623 1174 650.5 1145.5 c 128,-1,8
 678 1117 678 1117 692 1087 c 1,9,10
 474 852.230769231 474 852.230769231 441 811.615384615 c 128,-1,11
 408 771 408 771 387.5 744 c 128,-1,12
 367 717 367 717 358.5 699 c 128,-1,13
 350 681 350 681 350 670 c 128,-1,14
 350 659 350 659 354.5 645.5 c 128,-1,15
 359 632 359 632 370 613.5 c 128,-1,16
 381 595 381 595 391.5 578 c 128,-1,17
 402 561 402 561 422 535.5 c 128,-1,18
 442 510 442 510 457.5 491 c 128,-1,19
 473 472 473 472 500.5 440 c 128,-1,20
 528 408 528 408 545.5 387.5 c 128,-1,21
 563 367 563 367 595.5 329.5 c 128,-1,22
 628 292 628 292 647 270 c 1,23,24
 637 248 637 248 614.5 227 c 128,-1,25
 592 206 592 206 565 199 c 1,26,0
 442 304 442 304 326 419 c 128,-1,1
EndSplineSet
EndChar

StartChar: guilsinglright
Encoding: 8250 8250 114
Width: 784
Flags: HMW
HStem: 199 21G 1162 20G
LayerCount: 2
Fore
SplineSet
614 760 m 1,0,1
 650 716 650 716 650 676 c 128,-1,2
 650 636 650 636 611.5 584.5 c 128,-1,3
 573 533 573 533 456.5 418 c 128,-1,4
 340 303 340 303 219 199 c 1,5,6
 166 213 166 213 137 270 c 1,7,8
 156 292 156 292 188.5 329.5 c 128,-1,9
 221 367 221 367 238.5 387.5 c 128,-1,10
 256 408 256 408 283.5 440 c 128,-1,11
 311 472 311 472 326.5 491 c 128,-1,12
 342 510 342 510 362 535.5 c 128,-1,13
 382 561 382 561 392.5 578 c 128,-1,14
 403 595 403 595 414 613.5 c 128,-1,15
 425 632 425 632 429.5 645.5 c 128,-1,16
 434 659 434 659 434 670 c 128,-1,17
 434 681 434 681 425.5 699 c 128,-1,18
 417 717 417 717 396.5 744 c 128,-1,19
 376 771 376 771 356.5 795 c 128,-1,20
 337 819 337 819 300 860 c 128,-1,21
 263 901 263 901 238.5 928 c 0,22,23
 189.5 982 189.5 982 92 1087 c 1,24,25
 107 1118 107 1118 134 1146 c 128,-1,26
 161 1174 161 1174 186 1182 c 1,27,28
 517 885 517 885 614 760 c 1,0,1
EndSplineSet
EndChar

StartChar: minus
Encoding: 8722 8722 115
Width: 1128
Flags: HMW
HStem: 657 159<763.5 895 763.5 981> 795 20G<973.5 987>
LayerCount: 2
Fore
SplineSet
871 816 m 1,0,-1
 987 815 l 1,1,2
 993 792 993 792 993 740 c 128,-1,3
 993 688 993 688 981 657 c 1,4,-1
 143 657 l 1,5,6
 133 670 133 670 133 731 c 128,-1,7
 133 792 133 792 145 809 c 1,8,9
 462 816 462 816 871 816 c 1,0,-1
EndSplineSet
EndChar

StartChar: plusminus
Encoding: 177 177 116
Width: 1128
Flags: HMW
HStem: 2 159<763.5 895 763.5 981> 657 158<649 649 649 981> 1139 20G<540.5 574>
VStem: 487 162<586.5 657 586.5 657 586.5 657 586.5 1149>
LayerCount: 2
Fore
SplineSet
487 319 m 1,0,-1
 487 657 l 1,1,-1
 143 657 l 1,2,3
 133 670 133 670 133 731 c 128,-1,4
 133 792 133 792 145 809 c 1,5,6
 285 813 285 813 487 813 c 1,7,-1
 487 1149 l 1,8,9
 500 1159 500 1159 561 1159 c 128,-1,10
 622 1159 622 1159 639 1147 c 1,11,12
 643 1076 643 1076 647 815 c 1,13,-1
 987 815 l 1,14,15
 993 792 993 792 993 740 c 128,-1,16
 993 688 993 688 981 657 c 1,17,-1
 649 657 l 1,18,19
 649 445 649 445 645 313 c 1,20,21
 622 307 622 307 570 307 c 128,-1,22
 518 307 518 307 487 319 c 1,0,-1
871 161 m 1,23,-1
 987 160 l 1,24,25
 993 138 993 138 993 85.5 c 128,-1,26
 993 33 993 33 981 2 c 1,27,-1
 143 2 l 1,28,29
 133 13 133 13 133 75 c 128,-1,30
 133 137 133 137 145 154 c 1,31,32
 462 161 462 161 871 161 c 1,23,-1
EndSplineSet
EndChar

StartChar: divide
Encoding: 247 247 117
Width: 1128
Flags: HMW
HStem: 237 273<567.5 574.5> 657 159<763.5 895 763.5 981> 961 273<566.5 574.5>
VStem: 428 279<369.5 380.5 1094 1103.5>
LayerCount: 2
Fore
SplineSet
475 1189 m 128,-1,1
 522 1234 522 1234 578.5 1234 c 128,-1,2
 635 1234 635 1234 671 1200.5 c 128,-1,3
 707 1167 707 1167 707 1106.5 c 128,-1,4
 707 1046 707 1046 660.5 1003.5 c 128,-1,5
 614 961 614 961 559 961 c 128,-1,6
 504 961 504 961 466 995.5 c 128,-1,7
 428 1030 428 1030 428 1087 c 128,-1,0
 428 1144 428 1144 475 1189 c 128,-1,1
479 471 m 1,8,9
 527 510 527 510 582 510 c 128,-1,10
 637 510 637 510 672 476.5 c 128,-1,11
 707 443 707 443 707 382 c 128,-1,12
 707 321 707 321 655 272 c 1,13,14
 614 237 614 237 559.5 237 c 128,-1,15
 505 237 505 237 466.5 272.5 c 128,-1,16
 428 308 428 308 428 366.5 c 128,-1,17
 428 425 428 425 479 471 c 1,8,9
871 816 m 1,18,-1
 987 815 l 1,19,20
 993 792 993 792 993 740 c 128,-1,21
 993 688 993 688 981 657 c 1,22,-1
 143 657 l 1,23,24
 133 670 133 670 133 731 c 128,-1,25
 133 792 133 792 145 809 c 1,26,27
 462 816 462 816 871 816 c 1,18,-1
EndSplineSet
EndChar

StartChar: macron
Encoding: 175 175 118
Width: 885
Flags: HMW
HStem: 1288 147<441.5 604 441.5 819>
LayerCount: 2
Fore
SplineSet
819 1288 m 1,0,-1
 61 1288 l 1,1,2
 51 1301 51 1301 51 1352.5 c 0,3,4
 51 1404 51 1404 63 1421 c 1,5,6
 158 1435 158 1435 463.5 1435 c 0,7,8
 769 1435 769 1435 825 1427 c 1,9,10
 832 1401 832 1401 832 1361 c 0,11,12
 832 1321 832 1321 819 1288 c 1,0,-1
EndSplineSet
EndChar

StartChar: braceleft
Encoding: 123 123 119
Width: 748
Flags: HMW
HStem: -371 21G<383 563> 1643 20G<388 567>
LayerCount: 2
Fore
SplineSet
352 649 m 1,0,-1
 352 643 l 1,1,2
 419.772357724 630.292682927 419.772357724 630.292682927 469.886178862 592.146341463 c 0,3,4
 563 521.268656716 563 521.268656716 563 424 c 0,5,6
 563 280 563 280 572.5 75 c 128,-1,7
 582 -130 582 -130 592 -178 c 128,-1,8
 602 -226 602 -226 609.5 -247 c 128,-1,9
 617 -268 617 -268 623.5 -278 c 0,10,11
 634.205882353 -294.470588235 634.205882353 -294.470588235 643.875156035 -302.007508976 c 128,-1,12
 653.544429716 -309.544429716 653.544429716 -309.544429716 653.544429716 -319.716173956 c 128,-1,13
 653.544429716 -329.887918195 653.544429716 -329.887918195 635.375304759 -342.41689028 c 0,14,15
 593.924969593 -371 593.924969593 -371 524.962484797 -371 c 128,-1,16
 456 -371 456 -371 415 -326 c 128,-1,17
 374 -281 374 -281 359.5 -211 c 128,-1,18
 345 -141 345 -141 338.5 -43 c 128,-1,19
 332 55 332 55 333.5 148.5 c 0,20,21
 337.32160804 386.713567839 337.32160804 386.713567839 303 524 c 1,22,23
 284.8 542.2 284.8 542.2 272.9 550.6 c 128,-1,24
 261 559 261 559 254.5 564 c 128,-1,25
 248 569 248 569 238.5 574 c 128,-1,26
 229 579 229 579 224.5 581.5 c 128,-1,27
 220 584 220 584 210 588.5 c 128,-1,28
 200 593 200 593 197 594 c 0,29,30
 174.5 601.5 174.5 601.5 172 604 c 0,31,32
 155 633 155 633 155 660 c 128,-1,33
 155 687 155 687 172 715 c 1,34,35
 253 731 253 731 303 770 c 1,36,37
 332.796966161 903.376896149 332.796966161 903.376896149 336 1244.5 c 0,38,39
 337 1351 337 1351 349.5 1451.5 c 0,40,41
 375.805970149 1663 375.805970149 1663 532 1663 c 0,42,43
 576.266756596 1663 576.266756596 1663 614.221033567 1644.88126498 c 128,-1,44
 652.175310539 1626.76252996 652.175310539 1626.76252996 652.175310539 1607.15601095 c 0,45,46
 652.175310539 1598.45020703 652.175310539 1598.45020703 646.58765527 1594.72510351 c 128,-1,47
 641 1591 641 1591 635.5 1585.5 c 128,-1,48
 630 1580 630 1580 623.5 1570 c 0,49,50
 608.38961039 1546.75324675 608.38961039 1546.75324675 595.194805195 1485.87662338 c 128,-1,51
 582 1425 582 1425 572.5 1198 c 128,-1,52
 563 971 563 971 563 848 c 0,53,54
 563 703 563 703 352 649 c 1,0,-1
EndSplineSet
EndChar

StartChar: braceright
Encoding: 125 125 120
Width: 748
Flags: HMW
HStem: -371 21G<184 364.5> 1643 20G<180 359.5>
LayerCount: 2
Fore
SplineSet
395 643 m 1,0,-1
 395 649 l 1,1,2
 184 704 184 704 184 848 c 0,3,4
 184 969 184 969 174.5 1197 c 128,-1,5
 165 1425 165 1425 155.5 1471.5 c 128,-1,6
 146 1518 146 1518 138 1539 c 128,-1,7
 130 1560 130 1560 123.5 1570 c 0,8,9
 112.794117647 1586.47058824 112.794117647 1586.47058824 105.167699923 1592.11832288 c 0,10,11
 95.1354273879 1599.54771047 95.1354273879 1599.54771047 95.1354273879 1606.88013341 c 0,12,13
 95.1354273879 1626.57365098 95.1354273879 1626.57365098 132.893957149 1644.78682549 c 128,-1,14
 170.652486911 1663 170.652486911 1663 222.826243456 1663 c 128,-1,15
 275 1663 275 1663 314.5 1633.5 c 128,-1,16
 354 1604 354 1604 373 1549.5 c 128,-1,17
 392 1495 392 1495 401 1427.5 c 128,-1,18
 410 1360 410 1360 412 1274 c 128,-1,19
 414 1188 414 1188 414.5 1107 c 0,20,21
 415.754980924 903.693090293 415.754980924 903.693090293 444 770 c 1,22,23
 494 731 494 731 575 715 c 1,24,25
 592 687 592 687 592 660 c 128,-1,26
 592 633 592 633 575 604 c 1,27,28
 567 600 567 600 555 595.5 c 128,-1,29
 543 591 543 591 532.5 586 c 128,-1,30
 522 581 522 581 516 577.5 c 128,-1,31
 510 574 510 574 499.5 568 c 128,-1,32
 489 562 489 562 481 556 c 0,33,34
 461 541 461 541 444 524 c 1,35,36
 414.00694927 399.528839472 414.00694927 399.528839472 412.5 68 c 0,37,38
 412 -42 412 -42 400.5 -146.5 c 0,39,40
 375.794258373 -371 375.794258373 -371 225 -371 c 0,41,42
 173.84614399 -371 173.84614399 -371 133.815479147 -353.905813651 c 128,-1,43
 93.7848143025 -336.811627302 93.7848143025 -336.811627302 93.7848143025 -316.711019263 c 0,44,45
 93.7848143025 -307.143457132 93.7848143025 -307.143457132 99.8924071513 -303.071728566 c 128,-1,46
 106 -299 106 -299 111.5 -293.5 c 128,-1,47
 117 -288 117 -288 123.5 -278 c 0,48,49
 140.12987013 -252.415584416 140.12987013 -252.415584416 153.064935065 -191.207792208 c 128,-1,50
 166 -130 166 -130 175 76 c 128,-1,51
 184 282 184 282 184 424 c 0,52,53
 184 553.985507246 184 553.985507246 328.5 621 c 0,54,55
 363 637 363 637 395 643 c 1,0,-1
EndSplineSet
EndChar

StartChar: asciicircum
Encoding: 94 94 121
Width: 844
Flags: HMW
HStem: 917 21G<143 173 665 695> 1462 20G<405 431.5>
LayerCount: 2
Fore
SplineSet
348 1473 m 1,0,1
 376 1482 376 1482 420.5 1482 c 128,-1,2
 465 1482 465 1482 498 1470 c 1,3,4
 538 1420 538 1420 630.5 1237 c 128,-1,5
 723 1054 723 1054 772 930 c 1,6,7
 724 917 724 917 679 917 c 128,-1,8
 634 917 634 917 588 930 c 1,9,10
 499 1107 499 1107 422 1292 c 1,11,12
 332.88 1069.2 332.88 1069.2 254 930 c 1,13,14
 203 917 203 917 157.5 917 c 128,-1,15
 112 917 112 917 72 930 c 1,16,17
 116 1043 116 1043 210 1226 c 128,-1,18
 304 1409 304 1409 348 1473 c 1,0,1
EndSplineSet
EndChar

StartChar: foursuperior
Encoding: 8308 8308 122
Width: 856
Flags: HMW
HStem: 586 313<434 537> 770 129 1432 20G<506.5 542>
VStem: 433 204 433 331
LayerCount: 2
Fore
SplineSet
78 754 m 1,0,1
 48.1435226279 797.999019285 48.1435226279 797.999019285 48.1435226279 875.631549956 c 0,2,3
 48.1435226279 891.859738249 48.1435226279 891.859738249 51 903 c 1,4,5
 119.472247777 976.877951549 119.472247777 976.877951549 253.236123888 1189.93897577 c 128,-1,6
 387 1403 387 1403 414 1444 c 1,7,8
 471 1452 471 1452 522 1452 c 128,-1,9
 573 1452 573 1452 631 1444 c 1,10,11
 643.5 1436.5 643.5 1436.5 643.5 1380.50462963 c 1,12,-1
 637 1171 l 1,13,-1
 637 893 l 1,14,15
 704 896 704 896 737 915 c 1,16,17
 764 902 764 902 764 860 c 128,-1,18
 764 818 764 818 732 788.5 c 128,-1,19
 700 759 700 759 639 752 c 1,20,21
 642 667 642 667 649 604 c 1,22,23
 583 586 583 586 516 586 c 128,-1,24
 449 586 449 586 420 604 c 1,25,26
 426 680 426 680 428 754 c 1,27,28
 236 770 236 770 190.5 770 c 128,-1,29
 145 770 145 770 78 754 c 1,0,1
434 899 m 1,30,-1
 432 1274 l 1,31,32
 306 1038 306 1038 190 907 c 1,33,-1
 219 907 l 2,34,35
 223 907 223 907 434 899 c 1,30,-1
EndSplineSet
EndChar

StartChar: onesuperior
Encoding: 185 185 123
Width: 672
Flags: HMW
HStem: 585 21G<348 394.5> 1438 20G<385.5 418.5>
VStem: 295 215<825 1112 1112 1148>
LayerCount: 2
Fore
SplineSet
516 1389 m 2,0,-1
 510 1182 l 1,1,-1
 510 823 l 1,2,-1
 518 602 l 1,3,4
 450 585 450 585 374.5 585 c 128,-1,5
 299 585 299 585 279 602 c 1,6,7
 295 748 295 748 295 825 c 2,8,-1
 295 1112 l 2,9,10
 295 1176 295 1176 301 1254 c 2,11,-1
 303 1280 l 1,12,-1
 303 1286 l 1,13,14
 282.666666667 1257.53333333 282.666666667 1257.53333333 273.333333333 1247.26666667 c 128,-1,15
 264 1237 264 1237 254 1224.5 c 128,-1,16
 244 1212 244 1212 236.5 1205 c 128,-1,17
 229 1198 229 1198 217 1187 c 0,18,19
 201.129032258 1172.4516129 201.129032258 1172.4516129 160 1141 c 1,20,21
 157 1145 157 1145 142.5 1163 c 128,-1,22
 128 1181 128 1181 121 1191.5 c 0,23,24
 96.2352941176 1228.64705882 96.2352941176 1228.64705882 92 1247 c 1,25,26
 112 1272 112 1272 203 1359 c 128,-1,27
 294 1446 294 1446 326.5 1452 c 128,-1,28
 359 1458 359 1458 410.5 1458 c 128,-1,29
 462 1458 462 1458 510 1440 c 1,30,31
 516 1411 516 1411 516 1389 c 2,0,-1
EndSplineSet
EndChar

StartChar: onehalf
Encoding: 189 189 124
Width: 1923
Flags: HMW
HStem: -100 21G<571 602.5> 2 260<1184 1707> 557 322<1214.5 1523> 766 113<1417.5 1477> 1438 20G<446.5 479.5> 1516 20G<1279 1307.5>
VStem: 356 215<825 1112 1112 1148> 1157 180<660.5 718> 1563 194<560 701.5>
LayerCount: 2
Fore
SplineSet
577 1389 m 2,0,-1
 571 1182 l 1,1,-1
 571 823 l 1,2,-1
 579 602 l 1,3,4
 511 585 511 585 435.5 585 c 128,-1,5
 360 585 360 585 340 602 c 1,6,7
 356 748 356 748 356 825 c 2,8,-1
 356 1112 l 2,9,10
 356 1176 356 1176 362 1254 c 2,11,-1
 364 1280 l 1,12,-1
 364 1286 l 1,13,14
 343.666666667 1257.53333333 343.666666667 1257.53333333 334.333333333 1247.26666667 c 128,-1,15
 325 1237 325 1237 315 1224.5 c 128,-1,16
 305 1212 305 1212 297.5 1205 c 128,-1,17
 290 1198 290 1198 278 1187 c 0,18,19
 262.129032258 1172.4516129 262.129032258 1172.4516129 221 1141 c 1,20,21
 218 1145 218 1145 203.5 1163 c 128,-1,22
 189 1181 189 1181 182 1191.5 c 0,23,24
 157.235294118 1228.64705882 157.235294118 1228.64705882 153 1247 c 1,25,26
 173 1272 173 1272 264 1359 c 128,-1,27
 355 1446 355 1446 387.5 1452 c 128,-1,28
 420 1458 420 1458 471.5 1458 c 128,-1,29
 523 1458 523 1458 571 1440 c 1,30,31
 577 1411 577 1411 577 1389 c 2,0,-1
1376 1524 m 1,32,-1
 657 -90 l 1,33,34
 641 -100 641 -100 582.5 -100 c 128,-1,35
 524 -100 524 -100 512 -88 c 1,36,37
 540 20 540 20 834.5 677.5 c 128,-1,38
 1129 1335 1129 1335 1224 1530 c 1,39,40
 1250 1536 1250 1536 1299 1536 c 128,-1,41
 1348 1536 1348 1536 1376 1524 c 1,32,-1
1184 2 m 1,42,43
 1167 38 1167 38 1167 69.5 c 128,-1,44
 1167 101 1167 101 1169 127 c 1,45,46
 1198.38661059 248.219768665 1198.38661059 248.219768665 1333.5 363.5 c 0,47,48
 1388 410 1388 410 1440.5 455.5 c 0,49,50
 1563 561.666666667 1563 561.666666667 1563 655 c 0,51,52
 1563 721 1563 721 1533 743.5 c 128,-1,53
 1503 766 1503 766 1440 766 c 128,-1,54
 1377 766 1377 766 1337 731 c 1,55,-1
 1337 590 l 1,56,57
 1311 557 1311 557 1254.5 557 c 128,-1,58
 1198 557 1198 557 1177.5 594 c 128,-1,59
 1157 631 1157 631 1157 689.5 c 128,-1,60
 1157 748 1157 748 1174 776 c 1,61,62
 1268 879 1268 879 1442 879 c 0,63,64
 1663.28571429 879 1663.28571429 879 1731 760.5 c 0,65,66
 1757 715 1757 715 1757 651 c 128,-1,67
 1757 587 1757 587 1720.5 524.5 c 128,-1,68
 1684 462 1684 462 1627 412 c 128,-1,69
 1570 362 1570 362 1511 318 c 0,70,71
 1355.05267062 201.700296736 1355.05267062 201.700296736 1319 139 c 1,72,-1
 1585 154 l 1,73,-1
 1593 225 l 1,74,75
 1620.75 262 1620.75 262 1673.375 262 c 128,-1,76
 1726 262 1726 262 1750 223.5 c 128,-1,77
 1774 185 1774 185 1774 114 c 128,-1,78
 1774 43 1774 43 1757 4 c 1,79,80
 1702 2 1702 2 1184 2 c 1,42,43
EndSplineSet
EndChar

StartChar: twosuperior
Encoding: 178 178 125
Width: 879
Flags: HMW
HStem: 600 260<160 683> 1155 322<190.5 499> 1364 113<393.5 453>
VStem: 133 180<1258.5 1316> 539 194<1158 1299.5>
LayerCount: 2
Fore
SplineSet
160 600 m 1,0,1
 143 636 143 636 143 667.5 c 128,-1,2
 143 699 143 699 145 725 c 1,3,4
 174.386610585 846.219768665 174.386610585 846.219768665 309.5 961.5 c 0,5,6
 364 1008 364 1008 416.5 1053.5 c 0,7,8
 539 1159.66666667 539 1159.66666667 539 1253 c 0,9,10
 539 1319 539 1319 509 1341.5 c 128,-1,11
 479 1364 479 1364 416 1364 c 128,-1,12
 353 1364 353 1364 313 1329 c 1,13,-1
 313 1188 l 1,14,15
 287 1155 287 1155 230.5 1155 c 128,-1,16
 174 1155 174 1155 153.5 1192 c 128,-1,17
 133 1229 133 1229 133 1287.5 c 128,-1,18
 133 1346 133 1346 150 1374 c 1,19,20
 244 1477 244 1477 418 1477 c 0,21,22
 639.285714286 1477 639.285714286 1477 707 1358.5 c 0,23,24
 733 1313 733 1313 733 1249 c 128,-1,25
 733 1185 733 1185 696.5 1122.5 c 128,-1,26
 660 1060 660 1060 603 1010 c 128,-1,27
 546 960 546 960 487 916 c 0,28,29
 331.052670623 799.700296736 331.052670623 799.700296736 295 737 c 1,30,-1
 561 752 l 1,31,-1
 569 823 l 1,32,33
 596.75 860 596.75 860 649.375 860 c 128,-1,34
 702 860 702 860 726 821.5 c 128,-1,35
 750 783 750 783 750 712 c 128,-1,36
 750 641 750 641 733 602 c 1,37,38
 678 600 678 600 160 600 c 1,0,1
EndSplineSet
EndChar

StartChar: threequarters
Encoding: 190 190 126
Width: 1860
Flags: HMW
HStem: -100 21G<592 623.5> -12 21G<1523.5 1567> 172 129 582 94<373.5 426.5 373.5 469.5> 582 245<198.5 469.5> 989 117 1239 238<214.5 447> 1364 113<372 427.5> 1516 20G<1300 1328.5>
VStem: 133 159<735 751> 290 394<1029 1358> 507 177<1239 1283> 507 211 1463 204 1463 331
LayerCount: 2
Fore
SplineSet
573 1079 m 1,0,1
 718 1009.74626866 718 1009.74626866 718 864.373134328 c 128,-1,2
 718 719 718 719 623.5 650.5 c 128,-1,3
 529 582 529 582 377 582 c 128,-1,4
 225 582 225 582 145 633 c 1,5,6
 133 683 133 683 133 730.5 c 128,-1,7
 133 778 133 778 139 815 c 1,8,9
 176 827 176 827 219 827 c 128,-1,10
 262 827 262 827 277 805.5 c 128,-1,11
 292 784 292 784 292 746.5 c 128,-1,12
 292 709 292 709 290 696 c 1,13,14
 340 676 340 676 393.5 676 c 128,-1,15
 447 676 447 676 485.5 722 c 128,-1,16
 524 768 524 768 524 842 c 0,17,18
 524 989 524 989 368 989 c 2,19,-1
 356 989 l 1,20,-1
 296 987 l 1,21,22
 290 1016 290 1016 290 1048.5 c 0,23,24
 290 1108 290 1108 359 1108 c 128,-1,25
 428 1108 428 1108 460 1106 c 1,26,27
 507 1177 507 1177 507 1239.5 c 0,28,29
 507 1364 507 1364 382 1364 c 0,30,31
 351 1364 351 1364 315 1358 c 1,32,-1
 315 1274 l 2,33,34
 315 1255.64 315 1255.64 275.5 1243 c 0,35,36
 263 1239 263 1239 247 1239 c 0,37,38
 201 1239 201 1239 175 1281 c 128,-1,39
 149 1323 149 1323 149 1370.5 c 128,-1,40
 149 1418 149 1418 159 1442 c 1,41,42
 257 1477 257 1477 345.5 1477 c 128,-1,43
 434 1477 434 1477 484.5 1468 c 128,-1,44
 535 1459 535 1459 582 1438 c 128,-1,45
 629 1417 629 1417 656.5 1376 c 128,-1,46
 684 1335 684 1335 684 1278 c 128,-1,47
 684 1221 684 1221 657.5 1175 c 128,-1,48
 631 1129 631 1129 573 1079 c 1,0,1
1108 156 m 1,49,50
 1078.14352263 199.999019285 1078.14352263 199.999019285 1078.14352263 277.631549956 c 0,51,52
 1078.14352263 293.859738249 1078.14352263 293.859738249 1081 305 c 1,53,54
 1149.47224778 378.877951549 1149.47224778 378.877951549 1283.23612389 591.938975774 c 128,-1,55
 1417 805 1417 805 1444 846 c 1,56,57
 1501 854 1501 854 1552 854 c 128,-1,58
 1603 854 1603 854 1661 846 c 1,59,60
 1673.5 838.5 1673.5 838.5 1673.5 782.50462963 c 1,61,-1
 1667 573 l 1,62,-1
 1667 295 l 1,63,64
 1734 298 1734 298 1767 317 c 1,65,66
 1794 304 1794 304 1794 262 c 128,-1,67
 1794 220 1794 220 1762 190.5 c 128,-1,68
 1730 161 1730 161 1669 154 c 1,69,70
 1672 69 1672 69 1679 6 c 1,71,72
 1613 -12 1613 -12 1546 -12 c 128,-1,73
 1479 -12 1479 -12 1450 6 c 1,74,75
 1456 82 1456 82 1458 156 c 1,76,77
 1266 172 1266 172 1220.5 172 c 128,-1,78
 1175 172 1175 172 1108 156 c 1,49,50
1464 301 m 1,79,-1
 1462 676 l 1,80,81
 1336 440 1336 440 1220 309 c 1,82,-1
 1249 309 l 2,83,84
 1253 309 1253 309 1464 301 c 1,79,-1
1397 1524 m 1,85,-1
 678 -90 l 1,86,87
 662 -100 662 -100 603.5 -100 c 128,-1,88
 545 -100 545 -100 533 -88 c 1,89,90
 561 20 561 20 855.5 677.5 c 128,-1,91
 1150 1335 1150 1335 1245 1530 c 1,92,93
 1271 1536 1271 1536 1320 1536 c 128,-1,94
 1369 1536 1369 1536 1397 1524 c 1,85,-1
EndSplineSet
EndChar

StartChar: threesuperior
Encoding: 179 179 127
Width: 801
Flags: HMW
HStem: 582 94<353.5 406.5 353.5 449.5> 582 245<178.5 449.5> 989 117 1239 238<194.5 427> 1364 113<352 407.5>
VStem: 113 159<735 751> 270 394<1029 1358> 487 211
LayerCount: 2
Fore
SplineSet
553 1079 m 1,0,1
 698 1009.74626866 698 1009.74626866 698 864.373134328 c 128,-1,2
 698 719 698 719 603.5 650.5 c 128,-1,3
 509 582 509 582 357 582 c 128,-1,4
 205 582 205 582 125 633 c 1,5,6
 113 683 113 683 113 730.5 c 128,-1,7
 113 778 113 778 119 815 c 1,8,9
 156 827 156 827 199 827 c 128,-1,10
 242 827 242 827 257 805.5 c 128,-1,11
 272 784 272 784 272 746.5 c 128,-1,12
 272 709 272 709 270 696 c 1,13,14
 320 676 320 676 373.5 676 c 128,-1,15
 427 676 427 676 465.5 722 c 128,-1,16
 504 768 504 768 504 842 c 0,17,18
 504 989 504 989 348 989 c 2,19,-1
 336 989 l 1,20,-1
 276 987 l 1,21,22
 270 1016 270 1016 270 1048.5 c 0,23,24
 270 1108 270 1108 339 1108 c 128,-1,25
 408 1108 408 1108 440 1106 c 1,26,27
 487 1177 487 1177 487 1239.5 c 0,28,29
 487 1364 487 1364 362 1364 c 0,30,31
 331 1364 331 1364 295 1358 c 1,32,-1
 295 1274 l 2,33,34
 295 1255.64 295 1255.64 255.5 1243 c 0,35,36
 243 1239 243 1239 227 1239 c 0,37,38
 181 1239 181 1239 155 1281 c 128,-1,39
 129 1323 129 1323 129 1370.5 c 128,-1,40
 129 1418 129 1418 139 1442 c 1,41,42
 237 1477 237 1477 325.5 1477 c 128,-1,43
 414 1477 414 1477 464.5 1468 c 128,-1,44
 515 1459 515 1459 562 1438 c 128,-1,45
 609 1417 609 1417 636.5 1376 c 128,-1,46
 664 1335 664 1335 664 1278 c 128,-1,47
 664 1221 664 1221 637.5 1175 c 128,-1,48
 611 1129 611 1129 553 1079 c 1,0,1
EndSplineSet
EndChar

StartChar: Thorn
Encoding: 222 222 128
Width: 1413
Flags: HMW
HStem: -26 21G<341.5 407> 340 156<559 559> 1122 154<754 793 754 816> 1440 20G<532 536.5> 1448 20G<259.5 333.5>
VStem: 265 293 1024 297<720.5 910.5>
LayerCount: 2
Fore
SplineSet
266 322 m 2,0,-1
 264 1149 l 2,1,2
 264 1276.88235294 264 1276.88235294 191.5 1311 c 0,3,4
 183 1315 183 1315 162.5 1321.5 c 128,-1,5
 142 1328 142 1328 139 1329 c 1,6,7
 124 1349 124 1349 124 1394.5 c 128,-1,8
 124 1440 124 1440 127 1458 c 1,9,10
 170 1468 170 1468 293.5 1468 c 128,-1,11
 417 1468 417 1468 532 1460 c 0,12,13
 540 1460 540 1460 548.5 1438.5 c 128,-1,14
 557 1417 557 1417 557 1389 c 2,15,-1
 557 1274 l 1,16,17
 631 1276 631 1276 753.5 1275.5 c 128,-1,18
 876 1275 876 1275 952 1259 c 128,-1,19
 1028 1243 1028 1243 1095.5 1210.5 c 128,-1,20
 1163 1178 1163 1178 1213 1131.5 c 0,21,22
 1321 1031.06 1321 1031.06 1321 868 c 0,23,24
 1321 348 1321 348 559 340 c 1,25,-1
 575 0 l 1,26,27
 490 -26 490 -26 380 -26 c 128,-1,28
 270 -26 270 -26 238 0 c 1,29,30
 266 211 266 211 266 322 c 2,0,-1
1024 815 m 0,31,32
 1024 1122 1024 1122 702 1122 c 0,33,34
 635 1122 635 1122 557 1114 c 1,35,-1
 559 496 l 1,36,37
 888.375067633 507.260686073 888.375067633 507.260686073 974.5 625.5 c 0,38,39
 1024 693.457627119 1024 693.457627119 1024 815 c 0,31,32
EndSplineSet
EndChar

StartChar: questiondown
Encoding: 191 191 129
Width: 1096
Flags: HMW
HStem: -146 134<496 629 496 668> 1056 315<581 590.5>
VStem: 31 317<163 407 163 477> 429 320<1207 1216.5> 473 221<775 861 689.5 919> 775 268<141.5 291.5>
LayerCount: 2
Fore
SplineSet
473 919 m 1,0,1
 516 938 516 938 566.5 938 c 0,2,3
 648.181818182 938 648.181818182 938 690 915 c 1,4,5
 694 884 694 884 694 835 c 128,-1,6
 694 786 694 786 675 733.5 c 128,-1,7
 656 681 656 681 625.5 645.5 c 128,-1,8
 595 610 595 610 558 579 c 128,-1,9
 521 548 521 548 484 517 c 128,-1,10
 447 486 447 486 416.5 451 c 0,11,12
 348 372.393442623 348 372.393442623 348 248.196721311 c 128,-1,13
 348 124 348 124 405.5 56 c 128,-1,14
 463 -12 463 -12 561.5 -12 c 128,-1,15
 660 -12 660 -12 717.5 48 c 128,-1,16
 775 108 775 108 775 193.5 c 128,-1,17
 775 279 775 279 725 352 c 1,18,19
 741.181102362 400.543307087 741.181102362 400.543307087 806 423.5 c 0,20,21
 830 432 830 432 858 432 c 0,22,23
 1043.01121029 432 1043.01121029 432 1043.01121029 227.977853832 c 0,24,25
 1043.01121029 8.9529451573 1043.01121029 8.9529451573 823.481132095 -91.1410002513 c 0,26,27
 703.162161198 -146 703.162161198 -146 557 -146 c 0,28,29
 31 -146 31 -146 31 248 c 0,30,31
 31 428.833333333 31 428.833333333 119 531.5 c 0,32,33
 182.118421053 605.138157895 182.118421053 605.138157895 264.059210526 656.569078947 c 128,-1,34
 346 708 346 708 385 739.5 c 0,35,36
 473 810.576923077 473 810.576923077 473 919 c 1,0,1
695.5 1108 m 128,-1,38
 642 1056 642 1056 577 1056 c 128,-1,39
 512 1056 512 1056 470.5 1095 c 128,-1,40
 429 1134 429 1134 429 1203 c 128,-1,41
 429 1272 429 1272 490 1331 c 1,42,43
 536 1371 536 1371 599 1371 c 128,-1,44
 662 1371 662 1371 705.5 1331.5 c 128,-1,45
 749 1292 749 1292 749 1226 c 128,-1,37
 749 1160 749 1160 695.5 1108 c 128,-1,38
EndSplineSet
EndChar

StartChar: cent
Encoding: 162 162 130
Width: 1186
Flags: HMW
HStem: -234 21G<667.5 687> 659 404 1248 20G<662.5 681>
VStem: 113 295<480 649.5> 616 125<-37 -37> 856 258<717 811>
LayerCount: 2
Fore
SplineSet
752 104 m 2,0,1
 902.689655172 104 902.689655172 104 1030 246 c 1,2,3
 1052 231 1052 231 1075.5 205.5 c 128,-1,4
 1099 180 1099 180 1104 158 c 1,5,6
 1088.69101124 136.56741573 1088.69101124 136.56741573 1049.34550562 101.783707865 c 128,-1,7
 1010 67 1010 67 971 42.5 c 0,8,9
 869.181609195 -21.462835249 869.181609195 -21.462835249 741 -37 c 1,10,11
 739 -142 739 -142 733 -221 c 1,12,13
 707 -234 707 -234 678.5 -234 c 128,-1,14
 650 -234 650 -234 616 -221 c 1,15,-1
 616 -37 l 1,16,17
 394 -18 394 -18 253.5 127.5 c 128,-1,18
 113 273 113 273 113 500 c 128,-1,19
 113 727 113 727 251.5 883 c 128,-1,20
 390 1039 390 1039 616 1061 c 1,21,-1
 618 1260 l 1,22,23
 645 1268 645 1268 673 1268 c 128,-1,24
 701 1268 701 1268 729 1260 c 1,25,26
 736 1203 736 1203 739 1063 c 1,27,28
 840 1055 840 1055 926 1019.5 c 128,-1,29
 1012 984 1012 984 1062.5 928.5 c 128,-1,30
 1113 873 1113 873 1114 811 c 1,31,32
 1114 659 1114 659 956 659 c 0,33,34
 901.916666667 659 901.916666667 659 877.958333333 671.5 c 128,-1,35
 854 684 854 684 854 686 c 0,36,37
 856 699 856 699 856 743.5 c 128,-1,38
 856 788 856 788 825.5 836 c 128,-1,39
 795 884 795 884 741 909 c 1,40,41
 744 693 744 693 744 448 c 128,-1,42
 744 203 744 203 743 104 c 1,43,-1
 752 104 l 2,0,1
464 832 m 128,-1,45
 408 744 408 744 408 590.5 c 128,-1,46
 408 437 408 437 467 320.5 c 128,-1,47
 526 204 526 204 616 147 c 1,48,-1
 616 928 l 1,49,44
 520 920 520 920 464 832 c 128,-1,45
EndSplineSet
EndChar

StartChar: Euro
Encoding: 8364 8364 131
Width: 1534
Flags: HMW
HStem: -41 180<954.5 1039.5> 548 161 811 160 1022 20G<1255.5 1281.5> 1321 156<897 1007.5>
LayerCount: 2
Fore
SplineSet
784 244.5 m 128,-1,1
 897 139 897 139 1055.92063492 139 c 128,-1,2
 1214.84126984 139 1214.84126984 139 1362 266 c 1,3,4
 1422 237 1422 237 1442 166 c 1,5,6
 1244 -41 1244 -41 934 -41 c 0,7,8
 672 -41 672 -41 497.5 113 c 128,-1,9
 323 267 323 267 287 561 c 1,10,-1
 133 565 l 1,11,12
 123 578 123 578 123 618.5 c 128,-1,13
 123 659 123 659 135 676 c 1,14,15
 181 681 181 681 279 688 c 1,16,-1
 279 707 l 2,17,18
 279 764 279 764 285 823 c 1,19,-1
 133 827 l 1,20,21
 123 840 123 840 123 880.5 c 128,-1,22
 123 921 123 921 135 938 c 1,23,24
 226 947 226 947 311 952 c 1,25,26
 380 1192 380 1192 569 1334.5 c 128,-1,27
 758 1477 758 1477 1028 1477 c 0,28,29
 1234 1477 1234 1477 1409 1395 c 1,30,31
 1433 1378 1433 1378 1433 1348 c 128,-1,32
 1433 1318 1433 1318 1427 1296 c 1,33,-1
 1329 1047 l 1,34,35
 1299 1042 1299 1042 1246 1042 c 128,-1,36
 1193 1042 1193 1042 1154.5 1077.5 c 128,-1,37
 1116 1113 1116 1113 1116 1172 c 128,-1,38
 1116 1231 1116 1231 1141 1284 c 1,39,40
 1089.74526771 1321.01730665 1089.74526771 1321.01730665 996.824543751 1321.01730665 c 2,41,-1
 983 1321 l 2,42,43
 847 1321 847 1321 755 1236 c 128,-1,44
 663 1151 663 1151 631 967 c 1,45,46
 726 971 726 971 865.5 971 c 128,-1,47
 1005 971 1005 971 1059 965 c 1,48,49
 1065 942 1065 942 1065 890 c 128,-1,50
 1065 838 1065 838 1053 807 c 1,51,-1
 614 815 l 1,52,-1
 614 707 l 1,53,54
 700 709 700 709 810 709 c 128,-1,55
 920 709 920 709 977 702 c 1,56,57
 983 680 983 680 983 628 c 128,-1,58
 983 576 983 576 971 545 c 1,59,-1
 633 551 l 1,60,0
 671 350 671 350 784 244.5 c 128,-1,1
EndSplineSet
EndChar

StartChar: yen
Encoding: 165 165 132
Width: 1307
Flags: HMW
HStem: -26 21G<689.5 738.5> 251 130 480 147 1455 20G<1039.5 1138.5>
VStem: 1004 249<1199 1405.5>
LayerCount: 2
Fore
SplineSet
1000.5 1322 m 128,-1,1
 1004 1357 1004 1357 1004 1388.25 c 128,-1,2
 1004 1419.5 1004 1419.5 985 1448 c 1,3,4
 985 1457.86363636 985 1457.86363636 1014 1466.43181818 c 128,-1,5
 1043 1475 1043 1475 1073 1475 c 0,6,7
 1162 1475 1162 1475 1207.5 1418.5 c 128,-1,8
 1253 1362 1253 1362 1253 1301 c 128,-1,9
 1253 1240 1253 1240 1231 1184.5 c 128,-1,10
 1209 1129 1209 1129 1169.5 1070 c 128,-1,11
 1130 1011 1130 1011 1085.5 951 c 0,12,13
 961.859281437 784.293413174 961.859281437 784.293413174 885 627 c 1,14,15
 1049 627 1049 627 1130 618 c 1,16,17
 1137 593 1137 593 1137 549 c 128,-1,18
 1137 505 1137 505 1126 479 c 1,19,-1
 868 481 l 1,20,-1
 870 401 l 1,21,-1
 870 381 l 1,22,23
 1060 381 1060 381 1130 375 c 1,24,25
 1137 349 1137 349 1137 304.5 c 128,-1,26
 1137 260 1137 260 1126 233 c 1,27,-1
 879 240 l 1,28,29
 888 162 888 162 913 0 c 1,30,31
 837 -26 837 -26 717.5 -26 c 128,-1,32
 598 -26 598 -26 555 0 c 1,33,-1
 569 248 l 1,34,-1
 322 254 l 1,35,36
 313 263 313 263 313 306 c 128,-1,37
 313 349 313 349 324 365 c 1,38,39
 440 375 440 375 575 377 c 1,40,-1
 578 485 l 1,41,-1
 322 489 l 1,42,43
 313 501 313 501 313 547.5 c 128,-1,44
 313 594 313 594 324 608 c 1,45,46
 424 620 424 620 571 623 c 1,47,48
 564 635 564 635 519.5 715 c 128,-1,49
 475 795 475 795 456.5 827 c 128,-1,50
 438 859 438 859 395.5 931.5 c 128,-1,51
 353 1004 353 1004 327.5 1042 c 128,-1,52
 302 1080 302 1080 268 1130 c 0,53,54
 206.865384615 1219.90384615 206.865384615 1219.90384615 158 1251 c 0,55,56
 138 1264 138 1264 59 1270 c 1,57,58
 41.7634408602 1318.01612903 41.7634408602 1318.01612903 45 1352 c 1,59,60
 127 1398 127 1398 191 1415.5 c 128,-1,61
 255 1433 255 1433 309 1433 c 128,-1,62
 363 1433 363 1433 379 1432 c 1,63,64
 383 1428 383 1428 409 1403.5 c 128,-1,65
 435 1379 435 1379 455 1357.5 c 128,-1,66
 475 1336 475 1336 514 1282 c 128,-1,67
 553 1228 553 1228 589 1163.5 c 0,68,69
 677.504615385 1004.92923077 677.504615385 1004.92923077 776 750 c 1,70,71
 861.795918367 943.040816327 861.795918367 943.040816327 929.397959184 1115.02040816 c 128,-1,0
 997 1287 997 1287 1000.5 1322 c 128,-1,1
EndSplineSet
EndChar

StartChar: dollar
Encoding: 36 36 133
Width: 1163
Flags: HMW
HStem: -186 21G<603.5 625> 2 125<543 543> 2 406<236 543> 1047 387 1577 20G<584.5 609.5>
VStem: 96 254 135 258<1072 1166.5 1072 1173.5> 543 135<137 535 137 627 137 627 909 922> 797 284<270 363.5>
LayerCount: 2
Fore
SplineSet
1005.19439614 1055.86366942 m 128,-1,1
 981.621341548 1046.68850887 981.621341548 1046.68850887 963.676389146 1046.68850887 c 128,-1,2
 945.731436744 1046.68850887 945.731436744 1046.68850887 924.865718372 1046.84425444 c 128,-1,3
 904 1047 904 1047 868.5 1055.5 c 0,4,5
 797 1072.61971831 797 1072.61971831 797.036498722 1078.94503436 c 128,-1,6
 797.072997443 1085.27035042 797.072997443 1085.27035042 797.073055069 1089.49222456 c 0,7,8
 797.073055069 1276.62531265 797.073055069 1276.62531265 672 1315 c 1,9,10
 678 1112 678 1112 678 834 c 1,11,12
 861.388888889 733.96969697 861.388888889 733.96969697 903.194444444 697.484848485 c 128,-1,13
 945 661 945 661 981 623.5 c 128,-1,14
 1017 586 1017 586 1035.5 550 c 0,15,16
 1081 461.459459459 1081 461.459459459 1081 367 c 0,17,18
 1081 214 1081 214 970 120.5 c 128,-1,19
 859 27 859 27 676 6 c 1,20,21
 673 -109 673 -109 668 -180 c 1,22,23
 646 -186 646 -186 610 -186 c 128,-1,24
 574 -186 574 -186 543 -174 c 1,25,-1
 543 2 l 1,26,27
 330.263246772 12.0279951016 330.263246772 12.0279951016 208.70704205 108.681720661 c 0,28,29
 95.9240201819 198.359571893 95.9240201819 198.359571893 95.9240201819 296.30791438 c 0,30,31
 95.9240201819 353.848448187 95.9240201819 353.848448187 127.031445383 380.964744914 c 128,-1,32
 158.138870584 408.08104164 158.138870584 408.08104164 228.109665868 408.08104164 c 0,33,34
 231.989640462 408.08104164 231.989640462 408.08104164 236 408 c 0,35,36
 295 408 295 408 350 375 c 1,37,38
 350 261 350 261 395.5 197.5 c 128,-1,39
 441 134 441 134 543 127 c 1,40,-1
 543 627 l 1,41,42
 524 639 524 639 487 660.5 c 128,-1,43
 450 682 450 682 428.5 694.5 c 128,-1,44
 407 707 407 707 373 728.5 c 128,-1,45
 339 750 339 750 318 765.5 c 128,-1,46
 297 781 297 781 269 804 c 128,-1,47
 241 827 241 827 224 846.5 c 128,-1,48
 207 866 207 866 188 892 c 128,-1,49
 169 918 169 918 159 943.5 c 0,50,51
 135 1004.7 135 1004.7 135 1063 c 0,52,53
 135 1222 135 1222 248.5 1317 c 128,-1,54
 362 1412 362 1412 543 1430 c 1,55,-1
 543 1587 l 1,56,57
 554 1597 554 1597 600.5 1597 c 128,-1,58
 647 1597 647 1597 662 1585 c 1,59,60
 668 1516 668 1516 670 1434 c 1,61,62
 956.666666667 1419.66666667 956.666666667 1419.66666667 1046.5 1251 c 0,63,64
 1071 1205 1071 1205 1071 1170.06687418 c 128,-1,65
 1071 1135.13374835 1071 1135.13374835 1063.90779638 1115.80293477 c 128,-1,66
 1056.81559275 1096.47212119 1056.81559275 1096.47212119 1042.79152175 1080.75547558 c 128,-1,0
 1028.76745074 1065.03882997 1028.76745074 1065.03882997 1005.19439614 1055.86366942 c 128,-1,1
393 1116 m 0,67,68
 393 1054 393 1054 431.5 1005.5 c 128,-1,69
 470 957 470 957 543 909 c 1,70,-1
 543 1317 l 1,71,72
 393 1285 393 1285 393 1116 c 0,67,68
678 137 m 1,73,74
 797 171 797 171 797 319 c 0,75,76
 797 433 797 433 678 535 c 1,77,-1
 678 137 l 1,73,74
EndSplineSet
EndChar

StartChar: Eth
Encoding: 208 208 134
Width: 1645
Flags: HMW
HStem: -25 138 654 169 1335 142 1460 20G<575.5 678>
VStem: 240 305 1192 330<536 954>
LayerCount: 2
Fore
SplineSet
319 0 m 1,0,1
 253.965517241 28.275862069 253.965517241 28.275862069 245 132.5 c 0,2,3
 238 213.875 238 213.875 238 381 c 2,4,-1
 238 657 l 1,5,-1
 135 659 l 1,6,7
 123 676 123 676 123 738 c 128,-1,8
 123 800 123 800 133 811 c 1,9,10
 178 818 178 818 242 821 c 1,11,12
 243 856 243 856 243 942 c 128,-1,13
 243 1028 243 1028 240 1159 c 1,14,15
 232.644230769 1245.43028846 232.644230769 1245.43028846 193 1269.5 c 0,16,17
 176.565217391 1279.47826087 176.565217391 1279.47826087 145 1290 c 1,18,19
 133 1299 133 1299 133 1345 c 128,-1,20
 133 1391 133 1391 137 1403 c 1,21,22
 482.074074074 1480 482.074074074 1480 664 1480 c 0,23,24
 1090.02777778 1480 1090.02777778 1480 1323.5 1275 c 0,25,26
 1522 1100.70731707 1522 1100.70731707 1522 791 c 0,27,28
 1522 541 1522 541 1403 354.5 c 128,-1,29
 1284 168 1284 168 1075.5 71.5 c 128,-1,30
 867 -25 867 -25 596 -25 c 0,31,32
 448 -25 448 -25 319 0 c 1,0,1
545 1012 m 1,33,-1
 543 823 l 1,34,35
 719 819 719 819 784 813 c 1,36,37
 794 781 794 781 794 743 c 128,-1,38
 794 705 794 705 766 653 c 1,39,-1
 537 655 l 1,40,41
 534 454 534 454 534 414.5 c 128,-1,42
 534 375 534 375 535 336 c 1,43,44
 535 145 535 145 569 117 c 1,45,46
 605 111 605 111 647 111 c 128,-1,47
 689 111 689 111 748 114 c 128,-1,48
 807 117 807 117 871.5 141.5 c 128,-1,49
 936 166 936 166 995 216 c 128,-1,50
 1054 266 1054 266 1097 337 c 0,51,52
 1192 493.860465116 1192 493.860465116 1192 741 c 0,53,54
 1192 1088.55639098 1192 1088.55639098 961.5 1248 c 0,55,56
 835.72826087 1335 835.72826087 1335 702.864130435 1335 c 128,-1,57
 570 1335 570 1335 520 1321 c 1,58,59
 545 1217 545 1217 545 1071 c 2,60,-1
 545 1012 l 1,33,-1
EndSplineSet
EndChar

StartChar: exclamdown
Encoding: 161 161 135
Width: 590
Flags: HMW
HStem: -183 21G<288.5 344.5> 1054 315<290.5 300 258.5 332.5>
VStem: 125 277 125 326<-164 -164>
LayerCount: 2
Fore
SplineSet
185.5 1106 m 128,-1,1
 132 1158 132 1158 132 1224 c 128,-1,2
 132 1290 132 1290 175.5 1329.5 c 128,-1,3
 219 1369 219 1369 282 1369 c 128,-1,4
 345 1369 345 1369 391 1329 c 1,5,6
 452 1270 452 1270 452 1201 c 128,-1,7
 452 1132 452 1132 410.5 1093 c 128,-1,8
 369 1054 369 1054 304 1054 c 128,-1,0
 239 1054 239 1054 185.5 1106 c 128,-1,1
402 907 m 1,9,10
 407 405 407 405 451 -164 c 1,11,12
 400 -183 400 -183 318.5 -183 c 128,-1,13
 237 -183 237 -183 125 -164 c 1,14,15
 134.068587106 561.48696845 134.068587106 561.48696845 179 880.5 c 0,16,17
 184 916 184 916 184 919 c 1,18,19
 236 932 236 932 290.5 932 c 128,-1,20
 345 932 345 932 402 907 c 1,9,10
EndSplineSet
EndChar

StartChar: uni00AD
Encoding: 173 173 136
Width: 936
Flags: HMW
HStem: 653 194<430 547.5 430 743>
LayerCount: 2
Fore
SplineSet
743 653 m 1,0,-1
 135 653 l 1,1,2
 122 669 122 669 122 739 c 0,3,4
 122 809 122 809 137 829 c 1,5,6
 263 847 263 847 462.5 847 c 0,7,8
 662 847 662 847 752 836 c 1,9,10
 759 805 759 805 759 749 c 0,11,12
 759 693 759 693 743 653 c 1,0,-1
EndSplineSet
EndChar

StartChar: asciitilde
Encoding: 126 126 137
Width: 1118
Flags: HMW
HStem: 602 166<701 824 701 838.5> 748 155<360 413>
LayerCount: 2
Fore
SplineSet
205 637 m 1,0,1
 192.943993821 634.933256084 192.943993821 634.933256084 158.242078023 634.933256084 c 128,-1,2
 123.540162224 634.933256084 123.540162224 634.933256084 94 649 c 1,3,4
 93.3023654802 657.255341817 93.3023654802 657.255341817 93.3023654802 665.478835077 c 0,5,6
 93.3023654802 729.862339154 93.3023654802 729.862339154 133.439461122 785.204167686 c 128,-1,7
 173.576556763 840.545996218 173.576556763 840.545996218 234.657494473 871.289828426 c 128,-1,8
 295.738432182 902.033660634 295.738432182 902.033660634 356.369216091 902.516830317 c 128,-1,9
 417 903 417 903 475 882 c 128,-1,10
 533 861 533 861 573.5 835.5 c 0,11,12
 680.705882353 768 680.705882353 768 780.852941176 768 c 128,-1,13
 881 768 881 768 926 883 c 1,14,-1
 930.866798082 883.161906248 l 1,15,16
 961.596269056 883.161906248 961.596269056 883.161906248 990.987561317 872.923097467 c 128,-1,17
 1020.37885358 862.684288685 1020.37885358 862.684288685 1026 858 c 1,18,19
 1023 750 1023 750 949 676 c 128,-1,20
 875 602 875 602 762 602 c 0,21,22
 662.407407407 602 662.407407407 602 547.5 675 c 128,-1,23
 432.592592593 748 432.592592593 748 324 748 c 0,24,25
 288 748 288 748 249.5 715 c 128,-1,26
 211 682 211 682 205 637 c 1,0,1
EndSplineSet
EndChar

